<svg xmlns="http://www.w3.org/2000/svg" viewBox="0 0 136.46 68.89"><defs><style>.cls-1{fill:#222745;}.cls-2{fill:#044aac;}</style></defs><title>01_Mais Ágil 02</title><g id="Layer_2" data-name="Layer 2"><g id="Layer_1-2" data-name="Layer 1"><path class="cls-1" d="M41,5.65l8,19.62a47.53,47.53,0,0,0-13,8.64l-15-15A68.67,68.67,0,0,1,41,5.65Z"/><path class="cls-1" d="M69.75,0V21.2a46.32,46.32,0,0,1,14.89,2.92l8-19.62A67.86,67.86,0,0,0,69.75,0Z"/><path class="cls-1" d="M95.47,5.65l-8,19.62a47.29,47.29,0,0,1,12.94,8.63l15-15A68.49,68.49,0,0,0,95.47,5.65Z"/><path class="cls-1" d="M117.5,21.07l-15,15A47.31,47.31,0,0,1,111,48.63l19.55-8.19A68.12,68.12,0,0,0,117.5,21.07Z"/><path class="cls-1" d="M66.72,21.2V0A67.87,67.87,0,0,0,43.8,4.5l8,19.62A46.32,46.32,0,0,1,66.72,21.2Z"/><path class="cls-1" d="M0,68.2H21.19A46.78,46.78,0,0,1,24.3,51.42L4.75,43.23A67.92,67.92,0,0,0,0,68.2Z"/><path class="cls-1" d="M5.93,40.44l19.54,8.19a47.31,47.31,0,0,1,8.47-12.58l-15-15A68.43,68.43,0,0,0,5.93,40.44Z"/><path class="cls-1" d="M131.71,43.23l-19.54,8.19a47,47,0,0,1,3.1,16.78h21.19A67.72,67.72,0,0,0,131.71,43.23Z"/><path class="cls-2" d="M62.12,61.08a9.29,9.29,0,0,0,6.93,7.54,9.67,9.67,0,0,0,1.78.26,9.6,9.6,0,0,0,3.52-.51,9.16,9.16,0,0,0,3.11-1.82,10,10,0,0,0,1.28-1.39c.09-.13.21-.29.33-.49.27-.42.61-1,1-1.71.15-.28.32-.58.49-.91.61-1.13,1.32-2.49,2.1-4s1.63-3.25,2.52-5.07c.6-1.21,1.21-2.47,1.84-3.77,1.25-2.58,2.55-5.28,3.82-8,.64-1.33,1.27-2.66,1.88-4l1.8-3.8c3.47-7.36,6.11-13.08,6.11-13.08S66.92,49.89,63.84,54A9.24,9.24,0,0,0,62.12,61.08Zm5.93-5.74a5.13,5.13,0,0,1,8.66,5.42,5.44,5.44,0,0,1-.44.73,5.14,5.14,0,0,1-7.19,1,5.2,5.2,0,0,1-1-7.18Z"/></g></g></svg>