<svg xmlns="http://www.w3.org/2000/svg" viewBox="0 0 97.44 97.49"><defs><style>.cls-1{fill:#044aac;}.cls-1,.cls-2{fill-rule:evenodd;}.cls-2{fill:#222745;}</style></defs><title>02_Mais Completo 02</title><g id="Layer_2" data-name="Layer 2"><g id="Layer_1-2" data-name="Layer 1"><path class="cls-1" d="M49.79,0V13.78c0,4.35-1.56,5.83-3.79,6A11,11,0,0,1,41.72,19a19.56,19.56,0,0,0-4.29-1.19h-.32a5.55,5.55,0,0,0-5.3,3.49,6.84,6.84,0,0,0-.47,2.49,6.75,6.75,0,0,0,.47,2.48,5.57,5.57,0,0,0,5.46,3.5,13.05,13.05,0,0,0,3.67-.93,16.36,16.36,0,0,1,4.25-1.07h.62A3.58,3.58,0,0,1,48.53,29a7.06,7.06,0,0,1,1.25,4.51c0,.23,0,.45,0,.68V47.62H64.19c2.64-.07,3.42-.87,3.42-2a13.68,13.68,0,0,0-1-3.88,19.11,19.11,0,0,1-1.08-3.68,7.25,7.25,0,0,1,0-1.68,7.57,7.57,0,0,1,4.85-6.63,9,9,0,0,1,6.61,0,7.66,7.66,0,0,1,4.88,7.49h0a13.93,13.93,0,0,1-1.14,4.5,13.3,13.3,0,0,0-1,3.88c0,1.12.64,1.91,3.53,2H97.44V0Z"/><path class="cls-2" d="M0,47.66H13.78c4.35,0,5.83,1.56,6,3.78A11,11,0,0,1,19,55.73,19.65,19.65,0,0,0,17.83,60v.33a5.53,5.53,0,0,0,3.49,5.29,6.64,6.64,0,0,0,2.49.48,6.56,6.56,0,0,0,2.48-.48,5.55,5.55,0,0,0,3.49-5.45,13.32,13.32,0,0,0-.92-3.68,16.3,16.3,0,0,1-1.07-4.24c0-.21,0-.41,0-.62A3.62,3.62,0,0,1,29,48.91a7.06,7.06,0,0,1,4.51-1.25h14.1V34.15c0-.31,0-.6,0-.9-.06-2.63-.86-3.41-2-3.41a13.1,13.1,0,0,0-3.89,1A18.09,18.09,0,0,1,38.09,32a7.26,7.26,0,0,1-1.68,0,7.58,7.58,0,0,1-6.63-4.84,9,9,0,0,1,0-6.61,7.66,7.66,0,0,1,7.49-4.88h0a14.07,14.07,0,0,1,4.49,1.14,13.1,13.1,0,0,0,3.89,1c1.12,0,1.91-.65,2-3.53V0H0V47.66Z"/><path class="cls-1" d="M15.65,60.3a7.64,7.64,0,0,0,4.87,7.36,9,9,0,0,0,6.62,0A7.64,7.64,0,0,0,32,60.31V60a14.82,14.82,0,0,0-1.14-4.33,13.35,13.35,0,0,1-1-3.89c0-1.08.74-1.86,3.24-2H47.66V63.61c0,4.34,1.55,5.82,3.78,6a11,11,0,0,0,4.28-.8A19.62,19.62,0,0,1,60,67.66h.32a5.54,5.54,0,0,1,5.3,3.49,6.8,6.8,0,0,1,0,5,5.55,5.55,0,0,1-5.45,3.49,13.32,13.32,0,0,1-3.68-.92,16.74,16.74,0,0,0-4.24-1.08c-.22,0-.41,0-.62,0a3.6,3.6,0,0,0-2.73,1.22,7,7,0,0,0-1.25,4.5c0,.23,0,.45,0,.68V97.44H0V49.83H14.08c2.9,0,3.75.83,3.75,2a13.74,13.74,0,0,1-1,3.89A15.07,15.07,0,0,0,15.65,60v.29Z"/><path class="cls-2" d="M97.44,97.49H49.83V84c0-.3,0-.59,0-.89.07-2.64.86-3.42,2-3.42a13.74,13.74,0,0,1,3.89,1,18.71,18.71,0,0,0,3.68,1.08,7.17,7.17,0,0,0,1.67,0A7.58,7.58,0,0,0,67.66,77a9,9,0,0,0,0-6.62,7.67,7.67,0,0,0-7.49-4.87h0a14.14,14.14,0,0,0-4.49,1.14,13.35,13.35,0,0,1-3.89,1c-1.12,0-1.91-.64-2-3.53,0-.16,0-.31,0-.47V49.83H63.24c.23,0,.45,0,.69,0,4.1-.07,5.51-1.61,5.71-3.78a11,11,0,0,0-.8-4.28,20.07,20.07,0,0,1-1.18-4.23c0-.16,0-.3,0-.45a5.57,5.57,0,0,1,3.49-5.23,6.8,6.8,0,0,1,5,0,5.55,5.55,0,0,1,3.49,5.45A13.32,13.32,0,0,1,78.69,41a15.06,15.06,0,0,0-1.09,4.58h0c0,2.48,1.35,4.26,6,4.26H97.44V97.49Z"/></g></g></svg>