<svg xmlns="http://www.w3.org/2000/svg" viewBox="0 0 97.45 96.39"><defs><style>.cls-1{fill:#044aac;}.cls-2{fill:#222745;}</style></defs><title>03_Mais Fácil 02</title><g id="Layer_2" data-name="Layer 2"><g id="Layer_1-2" data-name="Layer 1"><path class="cls-1" d="M96.64,85.76,78.91,68,97.42,57.2a0,0,0,0,0,0-.09L35,34,58.16,96.36a0,0,0,0,0,.09,0L69.08,77.86,86.81,95.59a1.59,1.59,0,0,0,2.25,0L96.64,88A1.59,1.59,0,0,0,96.64,85.76Z"/><path class="cls-2" d="M60.38,38.65a24,24,0,0,0,.17-2.83A24.73,24.73,0,1,0,35.82,60.55a24.3,24.3,0,0,0,4.2-.37L38.45,56a20.75,20.75,0,0,1-2.63.17,20.3,20.3,0,1,1,20.3-20.3c0,.42,0,.83,0,1.24Z"/><path class="cls-2" d="M35.82,27.43a8.39,8.39,0,0,1,7.65,5l5.07,1.88a12.82,12.82,0,1,0-12.8,14.38L34,44a8.39,8.39,0,0,1,1.8-16.59Z"/><path class="cls-2" d="M35.82,67.22a31.4,31.4,0,1,1,31.4-31.4A32,32,0,0,1,66.79,41L71,42.59A35.77,35.77,0,1,0,43.93,70.72l-1.56-4.19A31.37,31.37,0,0,1,35.82,67.22Z"/></g></g></svg>