<svg xmlns="http://www.w3.org/2000/svg" viewBox="0 0 104.79 107.48"><defs><style>.cls-1{fill:#222745;}.cls-2{fill:#044aac;}</style></defs><title>04_Solução 360 02</title><g id="Layer_2" data-name="Layer 2"><g id="Layer_1-2" data-name="Layer 1"><circle class="cls-1" cx="62.16" cy="64.85" r="42.63"/><path class="cls-2" d="M74,19.69l-5.15,5.44.42.4,5.33-5.26-.6-.58"/><path class="cls-2" d="M69.72,16l-4.41,6.06.23.16,4.61-5.9L69.72,16"/><path class="cls-2" d="M72.34,28.92l5.94-4.56c-.27-.35-.56-.7-.84-1l-5.8,4.74.7.86"/><path class="cls-2" d="M80,47.07l7.44-.86c-.11-.88-.25-1.76-.41-2.64l-7.37,1.31c.14.73.25,1.46.34,2.19"/><path class="cls-2" d="M79.32,43.3l7.3-1.63c-.17-.73-.35-1.44-.55-2.15l-7.22,2c.17.59.33,1.19.47,1.79"/><path class="cls-2" d="M63.65,82.12A36.38,36.38,0,1,1,44.55,15.2L42.88,23l12.66-5.92,5-2.35L55.91,9.39,47.81,0,46.15,7.77a43.67,43.67,0,0,0-10.51.71c-1.15.22-2.29.49-3.41.8A43.89,43.89,0,1,0,86.65,61.34l-7.31-1.67A36.09,36.09,0,0,1,63.65,82.12"/><path class="cls-2" d="M74.42,31.81l.36.58,6.43-3.85-.5-.8-.36-.53-6.28,4.07c.11.18.23.36.35.53"/><path class="cls-2" d="M77.72,38.2c.19.48.37,1,.54,1.45l7.1-2.36c-.2-.59-.42-1.18-.65-1.76Z"/><path class="cls-2" d="M76.75,36l6.81-3.11q-.34-.73-.72-1.47l-6.7,3.37c.21.4.41.81.61,1.21"/><path class="cls-2" d="M80.09,55.08l7.46.74c.12-1.26.19-2.52.21-3.79l-7.5-.11c0,1-.07,2.1-.17,3.16"/><path class="cls-2" d="M80.26,51l7.5-.08c0-1.07-.07-2.15-.17-3.23l-7.46.62c.07.89.12,1.79.13,2.69"/><path class="cls-2" d="M79.45,59.2l0,.13,7.32,1.6c0-.06,0-.11,0-.16.3-1.41.53-2.83.69-4.24L80,55.66c-.14,1.18-.33,2.36-.58,3.54"/></g></g></svg>