<?xml version="1.0" encoding="utf-8"?>
<!-- Generator: Adobe Illustrator 22.0.0, SVG Export Plug-In . SVG Version: 6.00 Build 0)  -->
<svg version="1.1" id="Layer_1" xmlns="http://www.w3.org/2000/svg" xmlns:xlink="http://www.w3.org/1999/xlink" x="0px" y="0px"
	 viewBox="0 0 130.2 130.2" style="enable-background:new 0 0 130.2 130.2;" xml:space="preserve">
<style type="text/css">
	.st0{fill:#212644;}
</style>
<title>Asset 1</title>
<g>
	<path class="st0" d="M124.7,78.4l-1.2-4.9c0,0,0,0,0,0l-2.7-10.9l-5-20.3l-2.7-10.9l0,0l-1.2-4.9c-0.6-2.6-3.2-4.2-5.8-3.5
		l-4.9,1.2l0,0l-11,2.7v0l-65.5,16l0,0l-10.9,2.7l0,0L9,46.8c-2.6,0.6-4.2,3.2-3.5,5.8l1.2,4.9l0,0l2.7,10.9l0,0l5,20.3l0,0L17,99.6
		c0,0,0,0,0,0l1.2,4.9c0.6,2.6,3.2,4.2,5.8,3.5l4.9-1.2l10.9-2.7l65.5-16l11-2.7l4.9-1.2C123.8,83.6,125.3,81,124.7,78.4z
		 M104.7,83.2L38.1,99.6c-3.6-7-11-11.5-18.9-11.5l-5.3-21.5c7-3.6,11.5-10.9,11.5-18.8l66.7-16.3c3.7,7,11,11.5,18.9,11.4l5.3,21.4
		C109.2,68,104.7,75.3,104.7,83.2z"/>
	<path class="st0" d="M59.9,44.1C48,47,40.8,58.9,43.7,70.7s14.8,19.1,26.7,16.2C82.2,84,89.4,72.1,86.5,60.3
		C83.6,48.4,71.7,41.2,59.9,44.1z M70.5,76.7l1,3.9l-5.1,1.2l-0.9-3.6c-1.9,0.2-3.7,0-5.1-0.5l-1.1-0.4l0.6-5.6l1.8,0.7
		c1.4,0.5,3.1,0.6,4.5,0.2c1.6-0.4,2.5-1.4,2.2-2.6c-0.2-0.8-0.6-1.6-3.7-2.1c-3.6-0.5-7.4-1.5-8.5-5.7c-0.8-3.2,0.6-6.3,3.6-8.1
		l-0.9-3.8l5.1-1.2l0.9,3.5c1.5-0.1,2.8,0,4.1,0.4l1.2,0.4l-0.7,5.5l-1.7-0.5c-0.6-0.2-2-0.6-3.9-0.1c-1.4,0.3-2.1,1.1-1.9,2.1
		c0.2,0.7,0.6,1.3,4.1,1.8c3.2,0.5,7.1,1.6,8.2,6.2C75.1,71.7,73.6,74.9,70.5,76.7z"/>
	<path class="st0" d="M98,52.8c-2.4,0.6-3.9,3.1-3.3,5.5c0.6,2.4,3.1,3.9,5.5,3.3c2.4-0.6,3.9-3.1,3.3-5.5
		C102.9,53.7,100.4,52.2,98,52.8z"/>
	<path class="st0" d="M30.1,69.4c-2.4,0.6-3.9,3.1-3.3,5.5c0.6,2.4,3.1,3.9,5.5,3.3c2.4-0.6,3.9-3.1,3.3-5.5
		C35,70.3,32.5,68.8,30.1,69.4z"/>
</g>
</svg>
