<?xml version="1.0" encoding="utf-8"?>
<!-- Generator: Adobe Illustrator 22.0.0, SVG Export Plug-In . SVG Version: 6.00 Build 0)  -->
<svg version="1.1" id="Layer_1" xmlns="http://www.w3.org/2000/svg" xmlns:xlink="http://www.w3.org/1999/xlink" x="0px" y="0px"
	 viewBox="0 0 130.2 130.2" style="enable-background:new 0 0 130.2 130.2;" xml:space="preserve">
<style type="text/css">
	.st0{fill:#212644;}
</style>
<title>Asset 3</title>
<g>
	<path class="st0" d="M48.8,65.8l-2.7-2.7L76.1,33c3.2-3.2,3.2-8.3,0-11.5c-3.2-3.2-8.3-3.2-11.5,0L34.6,51.6l-2.7-2.7l-6.3-6.3
		c-2.2-2.2-6.1-1-6.6,2.1l-5.4,34.9c-0.4,2.6,1.8,4.8,4.4,4.4l34.9-5.4c3.1-0.5,4.4-4.3,2.1-6.6L48.8,65.8z"/>
	<path class="st0" d="M112.2,49.9l-34.9,5.4c-3.1,0.5-4.4,4.3-2.1,6.6l6.3,6.3l2.7,2.7l-30.1,30.1c-3.2,3.2-3.2,8.3,0,11.5
		c1.6,1.6,3.7,2.4,5.8,2.4c2.1,0,4.2-0.8,5.8-2.4l30.1-30.1l2.7,2.7l6.3,6.3c2.2,2.2,6.1,1,6.6-2.1l5.4-34.9
		C117,51.8,114.8,49.5,112.2,49.9z"/>
</g>
</svg>
