<?xml version="1.0" encoding="utf-8"?>
<!-- Generator: Adobe Illustrator 22.0.0, SVG Export Plug-In . SVG Version: 6.00 Build 0)  -->
<svg version="1.1" id="Layer_1" xmlns="http://www.w3.org/2000/svg" xmlns:xlink="http://www.w3.org/1999/xlink" x="0px" y="0px"
	 viewBox="0 0 130.2 130.2" style="enable-background:new 0 0 130.2 130.2;" xml:space="preserve">
<style type="text/css">
	.st0{fill:#212644;}
</style>
<title>Asset 2</title>
<path class="st0" d="M120.5,77.3l-10.2-44.1c-1.1-5-6.1-8-11-6.9L19.6,44.8c-5,1.1-8,6.1-6.9,11l10.2,44.1c1.1,5,6.1,8,11,6.9
	l79.7-18.4C118.6,87.2,121.7,82.3,120.5,77.3z M33.7,93.1c-1.9,0.4-3.8-0.8-4.3-2.7c-0.4-1.9,0.8-3.8,2.7-4.3
	c1.9-0.4,3.8,0.8,4.3,2.7C36.8,90.7,35.6,92.7,33.7,93.1z M36.8,62.4l-10.8,2.5c-1.2,0.3-2.4-0.5-2.7-1.7L21.6,56
	c-0.3-1.2,0.5-2.4,1.7-2.7l10.8-2.5c1.2-0.3,2.4,0.5,2.7,1.7l1.7,7.3C38.7,61,38,62.2,36.8,62.4z M46.2,90.2
	c-1.9,0.4-3.8-0.8-4.3-2.7c-0.4-1.9,0.8-3.8,2.7-4.3c1.9-0.4,3.8,0.8,4.3,2.7C49.3,87.9,48.1,89.8,46.2,90.2z M58.6,87.3
	c-1.9,0.4-3.8-0.8-4.3-2.7c-0.4-1.9,0.8-3.8,2.7-4.3c1.9-0.4,3.8,0.8,4.3,2.7C61.7,85,60.5,86.9,58.6,87.3z M71.1,84.5
	c-1.9,0.4-3.8-0.8-4.3-2.7c-0.4-1.9,0.8-3.8,2.7-4.3s3.8,0.8,4.3,2.7C74.2,82.1,73,84,71.1,84.5z M83.5,81.6
	c-1.9,0.4-3.8-0.8-4.3-2.7c-0.4-1.9,0.8-3.8,2.7-4.3c1.9-0.4,3.8,0.8,4.3,2.7C86.7,79.2,85.5,81.1,83.5,81.6z M96,78.7
	c-1.9,0.4-3.8-0.8-4.3-2.7c-0.4-1.9,0.8-3.8,2.7-4.3c1.9-0.4,3.8,0.8,4.3,2.7C99.1,76.3,97.9,78.3,96,78.7z M108.5,75.8
	c-1.9,0.4-3.8-0.8-4.3-2.7c-0.4-1.9,0.8-3.8,2.7-4.3c1.9-0.4,3.8,0.8,4.3,2.7C111.6,73.5,110.4,75.4,108.5,75.8z"/>
</svg>
