<?xml version="1.0" encoding="utf-8"?>
<!-- Generator: Adobe Illustrator 22.0.0, SVG Export Plug-In . SVG Version: 6.00 Build 0)  -->
<svg version="1.1" id="Layer_1" xmlns="http://www.w3.org/2000/svg" xmlns:xlink="http://www.w3.org/1999/xlink" x="0px" y="0px"
	 viewBox="0 0 130.2 130.2" style="enable-background:new 0 0 130.2 130.2;" xml:space="preserve">
<style type="text/css">
	.st0{fill:#212644;}
</style>
<title>Asset 4</title>
<g>
	<path class="st0" d="M87.1,75v-8c0-4.4,3.6-8,8-8h20.1V43.4c0-5.5-4.5-10-10-10H23.5c-1.7,0-3-1.4-2.9-3.1c0.1-1.5,1.5-2.6,3.1-2.6
		H108c-0.9-4.5-4.9-7.9-9.6-7.9H20.9c-5.5,0-9.9,4.4-9.9,9.9v71.1c0,5.5,4.4,9.9,9.9,9.9h84.4c5.5,0,9.9-4.4,9.9-9.9V83H95.1
		C90.7,83,87.1,79.4,87.1,75z"/>
	<path class="st0" d="M95.1,63.3c-2.1,0-3.8,1.7-3.8,3.8v8c0,2.1,1.7,3.8,3.8,3.8h24.1V63.3H95.1z"/>
</g>
</svg>
