<?xml version="1.0" encoding="utf-8"?>
<!-- Generator: Adobe Illustrator 22.0.0, SVG Export Plug-In . SVG Version: 6.00 Build 0)  -->
<svg version="1.1" id="Layer_1" xmlns="http://www.w3.org/2000/svg" xmlns:xlink="http://www.w3.org/1999/xlink" x="0px" y="0px"
	 viewBox="0 0 130.2 130.2" style="enable-background:new 0 0 130.2 130.2;" xml:space="preserve">
<style type="text/css">
	.st0{fill:#212644;}
</style>
<title>Asset 5</title>
<g>
	<polygon class="st0" points="34.6,47.4 4.8,75.2 42,75.2 71.9,47.4 	"/>
	<polygon class="st0" points="125.2,47.4 91.7,47.4 61.8,75.2 95.4,75.2 	"/>
	<polygon class="st0" points="94.7,80.8 61.9,80.8 61.9,84.5 96.1,84.5 125.4,57 125.4,51.9 	"/>
	<rect x="4.8" y="80.8" class="st0" width="36.9" height="3.7"/>
	<rect x="4.8" y="88.2" class="st0" width="36.9" height="3.7"/>
	<polygon class="st0" points="61.9,88.2 61.9,92 96.1,92 125.4,64.4 125.4,59.3 94.7,88.2 	"/>
	<rect x="4.8" y="95.7" class="st0" width="36.9" height="3.7"/>
	<polygon class="st0" points="61.9,95.7 61.9,99.4 96.1,99.4 125.4,71.9 125.4,66.8 94.7,95.7 	"/>
</g>
</svg>
