<?xml version="1.0" encoding="utf-8"?>
<!-- Generator: Adobe Illustrator 22.0.0, SVG Export Plug-In . SVG Version: 6.00 Build 0)  -->
<svg version="1.1" id="Layer_1" xmlns="http://www.w3.org/2000/svg" xmlns:xlink="http://www.w3.org/1999/xlink" x="0px" y="0px"
	 viewBox="0 0 130.2 130.2" style="enable-background:new 0 0 130.2 130.2;" xml:space="preserve">
<style type="text/css">
	.st0{fill:#212644;}
</style>
<title>Asset 6</title>
<g>
	<path class="st0" d="M79.2,82c-1.9,0-3.6-1-4.6-2.6l-9.5-15.7l-9.5,15.7C54.7,81,52.9,82,51,82c-0.5,0-1.1-0.1-1.6-0.2l-26.6-8.3
		v17.9l42.9,13.4l42.9-13.4V73l-27.9,8.7C80.3,81.9,79.7,82,79.2,82z"/>
	<path class="st0" d="M64.4,55.2c0.1,0.1,1.2,0.1,1.3,0l13.4,21.5l42.9-13.4c0,0-13.8-23.9-14.3-24.1L65.5,25.7
		c-0.3-0.1-0.5-0.1-0.8,0L22.4,39.2C21.9,39.3,8.1,63.2,8.1,63.2L51,76.6L64.4,55.2z M65.1,28.4l37.8,12l-37.8,12l-37.8-12
		L65.1,28.4z"/>
</g>
</svg>
