<svg width="601" height="329" viewBox="0 0 601 329" fill="none" xmlns="http://www.w3.org/2000/svg">
<g clip-path="url(#clip0)">
<path d="M343.251 328.55H4.19131C3.0797 328.55 2.01363 328.108 1.22761 327.322C0.441583 326.536 0 325.47 0 324.359L0 4.52004C0 3.40844 0.441583 2.34236 1.22761 1.55634C2.01363 0.770318 3.0797 0.328735 4.19131 0.328735L343.251 0.328735C344.363 0.328735 345.429 0.770318 346.215 1.55634C347.001 2.34236 347.443 3.40844 347.443 4.52004V324.359C347.443 325.47 347.001 326.536 346.215 327.322C345.429 328.108 344.363 328.55 343.251 328.55ZM8.38262 320.167H339.06V8.71135H8.38262V320.167Z" fill="url(#paint0_linear)"/>
<path d="M85.8464 163.128C93.1225 161.577 99.8034 154.896 99.8034 144.879C99.8034 132.95 91.337 124.593 77.4973 124.593H42.064V204.169H78.3355C92.8878 204.169 101.354 195.459 101.354 182.693C101.354 173.153 94.3212 164.444 85.8464 163.128ZM51.9722 133.428H75.8291C84.7734 133.428 89.5431 139.153 89.5431 146.312C89.5431 153.471 84.7734 159.07 75.8291 159.07H51.9722V133.428ZM76.4327 195.342H51.9722V167.906H76.4243C86.0895 167.906 91.0939 174.343 91.0939 181.62C91.0939 190.094 85.6116 195.342 76.4243 195.342H76.4327ZM118.79 204.169V124.593H128.69V195.342H165.674V204.169H118.79ZM178.675 173.27V124.593H188.735V173.011C188.735 187.571 196.488 196.75 211.158 196.75C225.828 196.75 233.707 187.529 233.707 173.011V124.593H243.766V173.153C243.766 192.953 232.785 205.602 211.192 205.602C189.648 205.602 178.667 192.836 178.667 173.27H178.675ZM265.293 204.169V124.593H317.424V133.42H275.184V159.07H316.578V167.897H275.184V195.342H317.416V204.169H265.293Z" fill="url(#paint1_linear)"/>
<path d="M409.072 163.128C416.348 161.577 423.029 154.896 423.029 144.879C423.029 132.95 414.554 124.593 400.714 124.593H365.256V204.169H401.527C416.079 204.169 424.554 195.459 424.554 182.693C424.546 173.153 417.505 164.444 409.072 163.128ZM375.189 133.428H399.012C407.965 133.428 412.735 139.153 412.735 146.312C412.735 153.471 407.965 159.07 399.012 159.07H375.156L375.189 133.428ZM399.641 195.342H375.156V167.906H399.608C409.273 167.906 414.286 174.343 414.286 181.62C414.286 190.094 408.795 195.342 399.608 195.342H399.641Z" fill="white"/>
<path d="M479.544 123.285C456.073 123.285 440.054 140.939 440.054 164.444C440.054 187.948 456.039 205.602 479.544 205.602C503.049 205.602 519.152 187.948 519.152 164.444C519.152 140.939 503.049 123.285 479.544 123.285ZM479.544 196.775C461.647 196.775 450.314 182.936 450.314 164.444C450.314 145.952 461.647 132.112 479.544 132.112C497.315 132.112 508.883 145.834 508.883 164.444C508.883 183.053 497.315 196.775 479.544 196.775Z" fill="white"/>
<path d="M588.946 204.169L563.538 170.286L538.122 204.169H526.076L557.092 163.371L527.862 124.593H539.916L563.538 156.329L587.035 124.593H599.206L569.976 163.245L601 204.169H588.946Z" fill="white"/>
</g>
<defs>
<linearGradient id="paint0_linear" x1="0" y1="164.444" x2="347.443" y2="164.444" gradientUnits="userSpaceOnUse">
<stop stop-color="#2A3071"/>
<stop offset="0.23" stop-color="#16509F"/>
<stop offset="0.5" stop-color="#6A86C3"/>
<stop offset="1" stop-color="white"/>
</linearGradient>
<linearGradient id="paint1_linear" x1="42.064" y1="165.097" x2="317.416" y2="165.097" gradientUnits="userSpaceOnUse">
<stop stop-color="#4278BB"/>
<stop offset="0.5" stop-color="#C2D9F1"/>
<stop offset="1" stop-color="white"/>
</linearGradient>
<clipPath id="clip0">
<rect width="601" height="328.221" fill="white" transform="translate(0 0.328735)"/>
</clipPath>
</defs>
</svg>
