<svg xmlns="http://www.w3.org/2000/svg" viewBox="0 0 113.48 113.48"><defs><style>.cls-1{fill:#0065f4;}</style></defs><title>02_Mais Completo</title><g id="Layer_2" data-name="Layer 2"><g id="Layer_1-2" data-name="Layer 1"><path class="cls-1" d="M56.74,0a56.74,56.74,0,1,0,56.74,56.74A56.74,56.74,0,0,0,56.74,0ZM93.27,57.7l-11,11a8.83,8.83,0,1,0-14.44,9.52,8.64,8.64,0,0,0,3,2l-8.52,8.52a3.4,3.4,0,0,1-4.81,0L46.86,78.13a8.83,8.83,0,1,1-15-7.33A8.72,8.72,0,0,1,37,68.29L26.43,57.7a3.39,3.39,0,0,1,0-4.8L35,44.37a8.83,8.83,0,1,0,14.44-9.52,8.7,8.7,0,0,0-3-2l11-11a3.4,3.4,0,0,1,4.81,0L72.67,32.29A8.84,8.84,0,1,0,82.85,42.48L93.27,52.9A3.39,3.39,0,0,1,93.27,57.7Z"/></g></g></svg>