<svg xmlns="http://www.w3.org/2000/svg" viewBox="0 0 113.48 113.48"><defs><style>.cls-1{fill:#0065f4;}</style></defs><title>03_Mais Fácil</title><g id="Layer_2" data-name="Layer 2"><g id="Layer_1-2" data-name="Layer 1"><path class="cls-1" d="M113.48,56.74A56.74,56.74,0,1,1,56.74,0,56.74,56.74,0,0,1,113.48,56.74ZM74.31,48.22a5.29,5.29,0,0,0-4.06,1.89V49.4a5.31,5.31,0,1,0-10.61,0l0-2.95a5.31,5.31,0,0,0-10.36-1.63V26.4a6.19,6.19,0,1,0-12.38,0V54l-.23.14a6.19,6.19,0,0,0-7.25,7.84S36,82.29,36.94,83.05c3.85,6.3,11.36,10.58,20,10.58,12.52,0,22.71-9.06,22.71-20.2V53.53A5.31,5.31,0,0,0,74.31,48.22Z"/></g></g></svg>