<svg width="98" height="98" viewBox="0 0 98 98" fill="none" xmlns="http://www.w3.org/2000/svg">
<path fill-rule="evenodd" clip-rule="evenodd" d="M49.79 0V13.78C49.79 18.13 48.23 19.61 46 19.78C44.5357 19.8075 43.0805 19.5423 41.72 19C40.34 18.4414 38.9007 18.0421 37.43 17.81H37.11C35.9758 17.7802 34.8597 18.0988 33.912 18.7228C32.9644 19.3468 32.2308 20.2463 31.81 21.3C31.4996 22.0935 31.3402 22.938 31.34 23.79C31.3394 24.6389 31.4988 25.4802 31.81 26.27C32.2407 27.3504 32.9989 28.2689 33.9781 28.8966C34.9573 29.5243 36.1084 29.8297 37.27 29.77C38.5321 29.64 39.7684 29.3267 40.94 28.84C42.3023 28.2943 43.7318 27.9344 45.19 27.77H45.81C46.3252 27.7672 46.8349 27.8757 47.3043 28.088C47.7738 28.3002 48.1919 28.6113 48.53 29C49.4473 30.3175 49.8882 31.9083 49.78 33.51C49.78 33.74 49.78 33.96 49.78 34.19V47.62H64.19C66.83 47.55 67.61 46.75 67.61 45.62C67.4689 44.2846 67.132 42.9772 66.61 41.74C66.1275 40.5527 65.7657 39.3198 65.53 38.06C65.4649 37.5019 65.4649 36.9381 65.53 36.38C65.6146 34.9253 66.1172 33.526 66.9775 32.3499C67.8378 31.1739 69.0193 30.2711 70.38 29.75C72.5036 28.9116 74.8665 28.9116 76.99 29.75C78.4852 30.3304 79.7604 31.3655 80.636 32.7093C81.5115 34.0531 81.9431 35.6378 81.87 37.24C81.7444 38.7932 81.3591 40.3143 80.73 41.74C80.2027 42.9754 79.8655 44.2836 79.73 45.62C79.73 46.74 80.37 47.53 83.26 47.62H97.44V0H49.79Z" fill="#217FF9"/>
<path fill-rule="evenodd" clip-rule="evenodd" d="M0 47.66H13.78C18.13 47.66 19.61 49.22 19.78 51.44C19.8089 52.9077 19.5437 54.3664 19 55.73C18.4504 57.1047 18.0579 58.5371 17.83 60V60.33C17.7994 61.4632 18.1178 62.5783 18.742 63.5245C19.3663 64.4707 20.2662 65.2022 21.32 65.62C22.1115 65.9385 22.9569 66.1014 23.81 66.1C24.66 66.1022 25.5022 65.9392 26.29 65.62C27.3687 65.1907 28.2855 64.434 28.9116 63.4563C29.5376 62.4787 29.8414 61.3293 29.78 60.17C29.6505 58.9057 29.3407 57.6665 28.86 56.49C28.3145 55.1311 27.9546 53.705 27.79 52.25C27.79 52.04 27.79 51.84 27.79 51.63C27.7873 51.1168 27.8938 50.6088 28.1025 50.1399C28.3111 49.6709 28.617 49.2517 29 48.91C30.3175 47.9927 31.9083 47.5518 33.51 47.66H47.61V34.15C47.61 33.84 47.61 33.55 47.61 33.25C47.55 30.62 46.75 29.84 45.61 29.84C44.2696 29.9714 42.9576 30.3087 41.72 30.84C40.5542 31.3534 39.3375 31.7422 38.09 32C37.5319 32.065 36.9681 32.065 36.41 32C34.9568 31.915 33.5588 31.4134 32.3831 30.5551C31.2074 29.6969 30.3037 28.5182 29.78 27.16C28.9416 25.0364 28.9416 22.6736 29.78 20.55C30.3604 19.0548 31.3955 17.7796 32.7393 16.9041C34.0831 16.0285 35.6678 15.5969 37.27 15.67C38.8194 15.7993 40.3366 16.1845 41.76 16.81C42.9976 17.3413 44.3096 17.6786 45.65 17.81C46.77 17.81 47.56 17.16 47.65 14.28V0H0V47.66Z" fill="url(#paint0_linear)"/>
<path fill-rule="evenodd" clip-rule="evenodd" d="M15.65 60.2998C15.6007 61.8796 16.0426 63.4359 16.9148 64.7541C17.787 66.0723 19.0466 67.0875 20.52 67.6598C22.6465 68.5008 25.0135 68.5008 27.14 67.6598C28.6099 67.0864 29.8662 66.0721 30.7364 64.756C31.6066 63.44 32.048 61.8868 32 60.3098V59.9998C31.8415 58.507 31.4571 57.0471 30.86 55.6698C30.3324 54.431 29.9953 53.1195 29.86 51.7798C29.86 50.6998 30.6 49.9198 33.1 49.7798H47.66V63.6098C47.66 67.9498 49.21 69.4298 51.44 69.6098C52.9057 69.631 54.3609 69.359 55.72 68.8098C57.0987 68.266 58.5345 67.8802 60 67.6598H60.32C61.4545 67.6286 62.5713 67.9466 63.5192 68.5707C64.4671 69.1949 65.2005 70.0952 65.62 71.1498C66.255 72.756 66.255 74.5436 65.62 76.1498C65.1907 77.2284 64.434 78.1453 63.4563 78.7714C62.4787 79.3974 61.3293 79.7012 60.17 79.6398C58.9057 79.5102 57.6665 79.2004 56.49 78.7198C55.13 78.1758 53.7045 77.8127 52.25 77.6398C52.03 77.6398 51.84 77.6398 51.63 77.6398C51.1141 77.6357 50.6034 77.7424 50.1323 77.9529C49.6613 78.1634 49.2411 78.4727 48.9 78.8598C47.9805 80.1725 47.5392 81.7609 47.65 83.3598C47.65 83.5898 47.65 83.8098 47.65 84.0398V97.4398H0V49.8298H14.08C16.98 49.8298 17.83 50.6598 17.83 51.8298C17.689 53.1684 17.3521 54.4791 16.83 55.7198C16.2275 57.0804 15.8299 58.5227 15.65 59.9998V60.2898V60.2998Z" fill="#217FF9"/>
<path fill-rule="evenodd" clip-rule="evenodd" d="M97.44 97.49H49.83V84C49.83 83.7 49.83 83.41 49.83 83.11C49.9 80.47 50.69 79.69 51.83 79.69C53.1686 79.831 54.4793 80.1679 55.72 80.69C56.9064 81.1751 58.1396 81.537 59.4 81.77C59.9547 81.8351 60.5152 81.8351 61.07 81.77C62.5082 81.6835 63.8919 81.1888 65.0591 80.344C66.2262 79.4992 67.1285 78.3392 67.66 77C68.501 74.8735 68.501 72.5065 67.66 70.38C67.0767 68.8876 66.0406 67.6154 64.6972 66.7419C63.3539 65.8685 61.7707 65.4377 60.17 65.51C58.6208 65.6406 57.1038 66.0258 55.68 66.65C54.4412 67.1776 53.1297 67.5148 51.79 67.65C50.67 67.65 49.88 67.01 49.79 64.12C49.79 63.96 49.79 63.81 49.79 63.65V49.83H63.24C63.47 49.83 63.69 49.83 63.93 49.83C68.03 49.76 69.44 48.22 69.64 46.05C69.6612 44.5843 69.3892 43.1291 68.84 41.77C68.2931 40.4074 67.8974 38.9889 67.66 37.54C67.66 37.38 67.66 37.24 67.66 37.09C67.6473 35.9682 67.9737 34.8687 68.5965 33.9355C69.2192 33.0023 70.1092 32.2789 71.15 31.86C72.7562 31.225 74.5438 31.225 76.15 31.86C77.2286 32.2893 78.1455 33.046 78.7716 34.0237C79.3976 35.0013 79.7013 36.1507 79.64 37.31C79.5018 38.5792 79.1818 39.8219 78.69 41C78.0888 42.4601 77.721 44.0057 77.6 45.58C77.6 48.06 78.95 49.84 83.6 49.84H97.44V97.49Z" fill="url(#paint1_linear)"/>
<defs>
<linearGradient id="paint0_linear" x1="0" y1="33.05" x2="47.62" y2="33.05" gradientUnits="userSpaceOnUse">
<stop stop-color="white"/>
<stop offset="1" stop-color="#217FF9"/>
</linearGradient>
<linearGradient id="paint1_linear" x1="3558.26" y1="6476.08" x2="3558.26" y2="2106.46" gradientUnits="userSpaceOnUse">
<stop stop-color="white"/>
<stop offset="1" stop-color="#217FF9"/>
</linearGradient>
</defs>
</svg>
