<svg xmlns="http://www.w3.org/2000/svg" viewBox="0 0 130.2 130.2"><defs><style>.cls-1{fill:#0065f4;}</style></defs><title>Asset 3</title><g id="Layer_2" data-name="Layer 2"><g id="Layer_1-2" data-name="Layer 1"><path class="cls-1" d="M130.2,65.1A65.1,65.1,0,1,1,65.1,0,65.09,65.09,0,0,1,130.2,65.1Zm-75.62-.33-2-2L74.87,40.49A6,6,0,0,0,66.33,32L44.05,54.24l-2-2-4.69-4.68a2.86,2.86,0,0,0-4.85,1.59L28.52,75a2.87,2.87,0,0,0,3.27,3.27l25.89-4a2.87,2.87,0,0,0,1.58-4.86Zm47-11.75L75.69,57a2.87,2.87,0,0,0-1.58,4.86l4.68,4.68,2,2L58.5,90.84A6,6,0,0,0,67,99.37L89.32,77.09l2,2L96,83.77a2.86,2.86,0,0,0,4.85-1.59l4-25.89A2.87,2.87,0,0,0,101.58,53Z"/></g></g></svg>