<svg width="137" height="69" viewBox="0 0 137 69" fill="none" xmlns="http://www.w3.org/2000/svg">
<path d="M41 5.6499L49 25.2699C44.2201 27.4138 39.8276 30.3332 36 33.9099L21 18.9099C26.8367 13.3503 33.6067 8.8618 41 5.6499Z" fill="url(#paint0_linear)"/>
<path d="M69.75 0V21.2C74.8401 21.3482 79.8709 22.3348 84.64 24.12L92.64 4.5C85.327 1.68994 77.5826 0.167444 69.75 0V0Z" fill="url(#paint1_linear)"/>
<path d="M95.47 5.6499L87.47 25.2699C92.2301 27.4127 96.6025 30.3288 100.41 33.8999L115.41 18.8999C109.593 13.3468 102.843 8.86162 95.47 5.6499Z" fill="url(#paint2_linear)"/>
<path d="M117.5 21.0698L102.5 36.0698C105.99 39.7722 108.861 44.0133 111 48.6298L130.55 40.4398C127.348 33.28 122.933 26.7271 117.5 21.0698Z" fill="url(#paint3_linear)"/>
<path d="M66.72 21.2V0C58.8773 0.164191 51.1225 1.68673 43.8 4.5L51.8 24.12C56.5786 22.3316 61.6198 21.345 66.72 21.2Z" fill="url(#paint4_linear)"/>
<path d="M2.00148e-06 68.2H21.19C21.189 62.4633 22.2432 56.7753 24.3 51.42L4.75 43.23C1.60947 51.1802 -0.00207312 59.6519 2.00148e-06 68.2Z" fill="url(#paint5_linear)"/>
<path d="M5.92999 40.4398L25.47 48.6298C27.5985 44.0083 30.4585 39.7604 33.94 36.0498L18.94 21.0498C13.5245 26.72 9.12375 33.2788 5.92999 40.4398Z" fill="url(#paint6_linear)"/>
<path d="M131.71 43.23L112.17 51.42C114.219 56.7773 115.269 62.4643 115.27 68.2H136.46C136.467 59.6514 134.855 51.1789 131.71 43.23Z" fill="url(#paint7_linear)"/>
<path d="M62.12 61.0801C62.4092 62.8777 63.2202 64.5507 64.4523 65.8912C65.6843 67.2317 67.2832 68.1807 69.05 68.6201C69.634 68.7619 70.2299 68.8489 70.83 68.8801C72.0249 68.9308 73.2187 68.7579 74.35 68.3701C75.497 67.9753 76.5541 67.3567 77.46 66.5501C77.9296 66.1282 78.3582 65.6628 78.74 65.1601C78.83 65.0301 78.95 64.8701 79.07 64.6701C79.34 64.2501 79.68 63.6701 80.07 62.9601C80.22 62.6801 80.39 62.3801 80.56 62.0501C81.17 60.9201 81.88 59.5601 82.66 58.0501C83.44 56.5401 84.29 54.8001 85.18 52.9801C85.78 51.7701 86.39 50.5101 87.02 49.2101C88.27 46.6301 89.57 43.9301 90.84 41.2101C91.48 39.8801 92.11 38.5501 92.72 37.2101L94.52 33.4101C97.99 26.0501 100.63 20.3301 100.63 20.3301C100.63 20.3301 66.92 49.8901 63.84 54.0001C63.0885 55.002 62.5484 56.1463 62.2527 57.3634C61.9571 58.5805 61.9119 59.845 62.12 61.0801ZM68.05 55.3401C68.8255 54.3234 69.9526 53.633 71.2106 53.4041C72.4686 53.1751 73.7667 53.4243 74.8506 54.1026C75.9345 54.781 76.7259 55.8397 77.0699 57.0712C77.4139 58.3027 77.2855 59.6183 76.71 60.7601C76.5827 61.0145 76.4356 61.2586 76.27 61.4901C75.4481 62.5746 74.2296 63.2889 72.8818 63.4763C71.5339 63.6638 70.1668 63.3091 69.08 62.4901C68.0116 61.6589 67.3094 60.4438 67.1226 59.1031C66.9359 57.7623 67.2794 56.4016 68.08 55.3101L68.05 55.3401Z" fill="#217FF9"/>
<defs>
<linearGradient id="paint0_linear" x1="89.23" y1="95.4599" x2="38.07" y2="6.8499" gradientUnits="userSpaceOnUse">
<stop stop-color="white"/>
<stop offset="1" stop-color="#217FF9"/>
</linearGradient>
<linearGradient id="paint1_linear" x1="89.23" y1="95.46" x2="38.07" y2="6.85" gradientUnits="userSpaceOnUse">
<stop stop-color="white"/>
<stop offset="1" stop-color="#217FF9"/>
</linearGradient>
<linearGradient id="paint2_linear" x1="89.23" y1="95.4599" x2="38.07" y2="6.8499" gradientUnits="userSpaceOnUse">
<stop stop-color="white"/>
<stop offset="1" stop-color="#217FF9"/>
</linearGradient>
<linearGradient id="paint3_linear" x1="89.23" y1="95.4598" x2="38.07" y2="6.84982" gradientUnits="userSpaceOnUse">
<stop stop-color="white"/>
<stop offset="1" stop-color="#217FF9"/>
</linearGradient>
<linearGradient id="paint4_linear" x1="89.23" y1="95.46" x2="38.07" y2="6.84999" gradientUnits="userSpaceOnUse">
<stop stop-color="white"/>
<stop offset="1" stop-color="#217FF9"/>
</linearGradient>
<linearGradient id="paint5_linear" x1="89.23" y1="95.46" x2="38.07" y2="6.84998" gradientUnits="userSpaceOnUse">
<stop stop-color="white"/>
<stop offset="1" stop-color="#217FF9"/>
</linearGradient>
<linearGradient id="paint6_linear" x1="89.23" y1="95.4598" x2="38.07" y2="6.8498" gradientUnits="userSpaceOnUse">
<stop stop-color="white"/>
<stop offset="1" stop-color="#217FF9"/>
</linearGradient>
<linearGradient id="paint7_linear" x1="89.23" y1="95.46" x2="38.07" y2="6.84997" gradientUnits="userSpaceOnUse">
<stop stop-color="white"/>
<stop offset="1" stop-color="#217FF9"/>
</linearGradient>
</defs>
</svg>
