<svg xmlns="http://www.w3.org/2000/svg" viewBox="0 0 130.2 130.2"><defs><style>.cls-1{fill:#0065f4;}</style></defs><title>Asset 6</title><g id="Layer_2" data-name="Layer 2"><g id="Layer_1-2" data-name="Layer 1"><polygon class="cls-1" points="41.08 46.52 65.82 54.38 90.56 46.52 65.82 38.67 41.08 46.52"/><path class="cls-1" d="M67.23,0A65.1,65.1,0,1,0,130.17,63,65.11,65.11,0,0,0,67.23,0ZM103.54,89,66.36,100.59,29.17,89V71.28l24.44,7.54A4.72,4.72,0,0,0,55,79a4.64,4.64,0,0,0,4-2.29L65.82,65.1l7.62,11.77a4.64,4.64,0,0,0,4,2.29A4.72,4.72,0,0,0,78.83,79l24.71-8ZM76.6,75.2c-2.21-3.38-10.78-16.67-10.78-16.67L55.49,75.16a1.25,1.25,0,0,1-1.44.54L20.14,65.1S31.53,45,32,44.83L65.5,34.18a1.2,1.2,0,0,1,.65,0L99.68,44.83C100.12,45,112,65.1,112,65.1L78,75.71A1.26,1.26,0,0,1,76.6,75.2Z"/></g></g></svg>