<svg xmlns="http://www.w3.org/2000/svg" viewBox="0 0 130.2 130.2"><defs><style>.cls-1{fill:#0065f4;}</style></defs><title>Asset 2</title><g id="Layer_2" data-name="Layer 2"><g id="Layer_1-2" data-name="Layer 1"><path class="cls-1" d="M56.94,76.67a2.88,2.88,0,1,0,3.46,2.15A2.88,2.88,0,0,0,56.94,76.67Z"/><path class="cls-1" d="M46.91,79a2.88,2.88,0,1,0,3.45,2.16A2.88,2.88,0,0,0,46.91,79Z"/><path class="cls-1" d="M65.1,0a65.1,65.1,0,1,0,65.1,65.1A65.1,65.1,0,0,0,65.1,0Zm37.46,83.12L38.32,98a7.42,7.42,0,0,1-8.9-5.56L21.21,56.9A7.42,7.42,0,0,1,26.77,48L91,33.15a7.42,7.42,0,0,1,8.9,5.56l8.21,35.5A7.43,7.43,0,0,1,102.56,83.12Z"/><path class="cls-1" d="M67,74.35a2.88,2.88,0,1,0,3.45,2.15A2.87,2.87,0,0,0,67,74.35Z"/><path class="cls-1" d="M36.87,81.31a2.88,2.88,0,1,0,3.45,2.16A2.88,2.88,0,0,0,36.87,81.31Z"/><rect class="cls-1" x="28.91" y="53.71" width="12.52" height="9.63" rx="1.78" ry="1.78" transform="translate(-12.28 9.43) rotate(-13.02)"/><path class="cls-1" d="M77,72a2.87,2.87,0,1,0,3.45,2.15A2.87,2.87,0,0,0,77,72Z"/><path class="cls-1" d="M97.1,67.39a2.87,2.87,0,1,0,3.45,2.15A2.87,2.87,0,0,0,97.1,67.39Z"/><path class="cls-1" d="M87.06,69.71a2.87,2.87,0,1,0,3.45,2.15A2.88,2.88,0,0,0,87.06,69.71Z"/></g></g></svg>