<svg width="112" height="115" viewBox="0 0 112 115" fill="none" xmlns="http://www.w3.org/2000/svg">
<g clip-path="url(#clip0)">
<path fill-rule="evenodd" clip-rule="evenodd" d="M110.54 78.24V81.29C110.43 81.6528 110.226 81.9803 109.95 82.24C109.745 82.4405 109.517 82.6151 109.27 82.76L57.77 112.49C56.7803 112.988 55.6878 113.247 54.58 113.247C53.4722 113.247 52.3797 112.988 51.39 112.49L3.77 85C3.22362 84.704 2.79359 84.2317 2.55 83.66V83.54V80.44C2.75373 81.0741 3.19929 81.6023 3.79 81.91L51.41 109.43C52.3988 109.931 53.4916 110.192 54.6 110.192C55.7084 110.192 56.8012 109.931 57.79 109.43L109.29 79.71C109.585 79.5591 109.847 79.3516 110.061 79.0994C110.276 78.8471 110.438 78.5551 110.54 78.24Z" fill="#00CEF0"/>
<path fill-rule="evenodd" clip-rule="evenodd" d="M3.42 83.34C3.58778 83.7066 3.87762 84.0035 4.24 84.1801L51.85 111.7C52.7014 112.129 53.6416 112.353 54.595 112.353C55.5484 112.353 56.4886 112.129 57.34 111.7L108.81 82.0001C108.996 81.9005 109.164 81.7723 109.31 81.6201C109.449 81.4872 109.564 81.3316 109.65 81.1601V80.5501L58.23 110.21C57.1058 110.789 55.8595 111.091 54.595 111.091C53.3305 111.091 52.0842 110.789 50.96 110.21L3.42 82.7401V83.34ZM54.58 114.15C53.3186 114.165 52.0736 113.863 50.96 113.27L3.32 85.7401C2.57825 85.3379 1.99873 84.6913 1.68 83.9101C1.6478 83.7751 1.62442 83.6381 1.61 83.5001V80.4401C1.61389 80.2235 1.69491 80.0154 1.83849 79.8532C1.98206 79.691 2.17879 79.5854 2.39329 79.5553C2.60779 79.5251 2.826 79.5725 3.0087 79.6889C3.1914 79.8052 3.3266 79.9829 3.39 80.1901C3.54159 80.6012 3.8461 80.938 4.24 81.1301L51.85 108.64C52.7014 109.069 53.6416 109.293 54.595 109.293C55.5484 109.293 56.4886 109.069 57.34 108.64L108.81 78.9201C109.009 78.8312 109.187 78.703 109.335 78.5432C109.483 78.3833 109.597 78.1952 109.67 77.9901C109.734 77.7825 109.87 77.6043 110.053 77.4872C110.236 77.37 110.455 77.3214 110.67 77.3501C110.884 77.3813 111.079 77.4884 111.221 77.6518C111.362 77.8152 111.44 78.024 111.44 78.2401V81.2901C111.328 81.8982 111.031 82.4571 110.59 82.8901C110.329 83.1435 110.037 83.362 109.72 83.5401L58.23 113.27C57.1068 113.866 55.8514 114.169 54.58 114.15Z" fill="#0087CA"/>
<path fill-rule="evenodd" clip-rule="evenodd" d="M3.77 78.22L55.27 48.49C56.2604 47.9945 57.3526 47.7366 58.46 47.7366C59.5674 47.7366 60.6596 47.9945 61.65 48.49L109.27 76C111.02 77 111.02 78.67 109.27 79.68L57.77 109.41C56.7803 109.908 55.6878 110.167 54.58 110.167C53.4722 110.167 52.3797 109.908 51.39 109.41L3.77 81.91C2.05 80.89 2.05 79.24 3.77 78.22Z" fill="#A6EDF8"/>
<path fill-rule="evenodd" clip-rule="evenodd" d="M58.46 48.64C57.5104 48.618 56.5708 48.8382 55.73 49.28L4.24 79C3.7 79.31 3.37 79.7 3.37 80.06C3.37 80.42 3.7 80.8 4.24 81.11L51.85 108.63C52.7021 109.057 53.642 109.279 54.595 109.279C55.548 109.279 56.4879 109.057 57.34 108.63L108.81 78.9C109.37 78.59 109.67 78.2 109.67 77.84C109.67 77.48 109.37 77.1 108.81 76.78L61.19 49.28C60.3496 48.837 59.4097 48.6166 58.46 48.64ZM54.61 111.1C53.337 111.123 52.0797 110.816 50.96 110.21L3.32 82.69C2.79647 82.4791 2.34796 82.1165 2.03211 81.6488C1.71626 81.181 1.54749 80.6295 1.54749 80.065C1.54749 79.5006 1.71626 78.9491 2.03211 78.4813C2.34796 78.0136 2.79647 77.651 3.32 77.44L54.81 47.71C55.9395 47.1309 57.1907 46.8289 58.46 46.8289C59.7293 46.8289 60.9805 47.1309 62.11 47.71L109.72 75.23C110.219 75.4742 110.645 75.8461 110.954 76.308C111.263 76.7699 111.445 77.3054 111.48 77.86C111.448 78.4143 111.268 78.9499 110.958 79.4108C110.649 79.8717 110.221 80.241 109.72 80.48L58.23 110.21C57.1197 110.812 55.873 111.119 54.61 111.1Z" fill="#0087CA"/>
<path fill-rule="evenodd" clip-rule="evenodd" d="M48.26 98.61V100.92C49.38 106.31 62.79 106.42 63.94 100.92V98.6C62.79 104.06 49.59 103.94 48.31 98.83L48.26 98.61Z" fill="white"/>
<path fill-rule="evenodd" clip-rule="evenodd" d="M49.71 102C50.91 103.41 53.66 104.11 56.14 104.11C58.62 104.11 61.14 103.46 62.36 102.11C60.546 103.107 58.5098 103.629 56.44 103.63C54.0893 103.717 51.7602 103.153 49.71 102ZM56.14 105.92C52.29 105.92 48.05 104.43 47.36 101.11V98.61C47.3584 98.3865 47.439 98.1703 47.5865 98.0025C47.7341 97.8347 47.9382 97.727 48.16 97.7C48.3832 97.6911 48.6028 97.7572 48.7841 97.8877C48.9653 98.0181 49.0977 98.2055 49.16 98.42V98.64C49.7 100.76 53.16 101.83 56.39 101.77C59.39 101.71 62.58 100.66 63.04 98.42C63.0839 98.1953 63.2117 97.9958 63.3975 97.862C63.5832 97.7282 63.813 97.6703 64.04 97.7C64.2621 97.7264 64.4672 97.8319 64.6178 97.9971C64.7684 98.1624 64.8544 98.3764 64.86 98.6V100.92C64.12 104.42 60 105.91 56.14 105.91V105.92Z" fill="#0087CA"/>
<path fill-rule="evenodd" clip-rule="evenodd" d="M61.67 95C59.9444 94.1226 58.0359 93.6653 56.1 93.6653C54.1641 93.6653 52.2556 94.1226 50.53 95C47.44 96.77 47.44 99.65 50.53 101.43C52.257 102.303 54.165 102.757 56.1 102.757C58.035 102.757 59.943 102.303 61.67 101.43C64.73 99.61 64.73 96.73 61.67 95Z" fill="white"/>
<path fill-rule="evenodd" clip-rule="evenodd" d="M56.09 94.54C54.3155 94.4991 52.5601 94.9122 50.99 95.74C50.4577 95.8863 49.9881 96.2032 49.6534 96.6422C49.3187 97.0812 49.1375 97.618 49.1375 98.17C49.1375 98.7221 49.3187 99.2588 49.6534 99.6978C49.9881 100.137 50.4577 100.454 50.99 100.6C52.5796 101.389 54.3302 101.8 56.105 101.8C57.8798 101.8 59.6305 101.389 61.22 100.6C61.7143 100.391 62.1458 100.058 62.4719 99.6315C62.7981 99.2054 63.0076 98.7017 63.08 98.17C63.0011 97.6406 62.7891 97.1399 62.4638 96.7149C62.1384 96.2898 61.7105 95.9544 61.22 95.74C59.6375 94.9167 57.8735 94.5041 56.09 94.54ZM56.09 103.63C53.9969 103.664 51.9303 103.158 50.09 102.16C48.33 101.16 47.33 99.72 47.33 98.16C47.33 96.6 48.33 95.16 50.09 94.16C51.9446 93.2008 54.0021 92.7002 56.09 92.7002C58.1779 92.7002 60.2354 93.2008 62.09 94.16C63.87 95.16 64.84 96.6 64.84 98.16C64.7858 99.013 64.5015 99.8354 64.0172 100.54C63.533 101.244 62.867 101.804 62.09 102.16C60.2487 103.155 58.1828 103.662 56.09 103.63Z" fill="#0087CA"/>
<path fill-rule="evenodd" clip-rule="evenodd" d="M61.6 70.59V97.51V97.66C60.68 101.29 51.5 101.29 50.6 97.66V97.51V70.59C50.6 70.7 50.6 70.78 50.67 70.89C50.8144 71.2675 51.0397 71.6088 51.33 71.89C52.0853 72.5697 53.0061 73.0388 54 73.25C55.9505 73.71 57.9987 73.5059 59.82 72.67C60.3796 72.3852 60.8683 71.9785 61.25 71.48C61.4043 71.2529 61.5224 71.0033 61.6 70.74V70.59Z" fill="white"/>
<path fill-rule="evenodd" clip-rule="evenodd" d="M51.42 73.18V97.51C51.72 98.62 53.66 99.51 56.06 99.51C58.46 99.51 60.4 98.66 60.7 97.51V73.18C60.542 73.288 60.3746 73.3817 60.2 73.46C58.199 74.4216 55.9262 74.6585 53.77 74.13C52.9399 73.9443 52.146 73.6233 51.42 73.18ZM56.06 101.29C53.52 101.29 50.3 100.4 49.69 97.88C49.6501 97.7599 49.6233 97.6359 49.61 97.51V70.59C49.5947 70.3546 49.6715 70.1224 49.8241 69.9425C49.9767 69.7625 50.1933 69.6489 50.428 69.6256C50.6628 69.6022 50.8975 69.671 51.0826 69.8173C51.2676 69.9637 51.3886 70.1762 51.42 70.41C51.4944 70.7389 51.665 71.0383 51.91 71.27C52.5602 71.8247 53.3418 72.2034 54.18 72.37C55.9179 72.7924 57.7476 72.6126 59.37 71.86C59.8004 71.6521 60.1769 71.3475 60.47 70.97C60.5683 70.8285 60.6458 70.6736 60.7 70.51C60.7394 70.2817 60.8653 70.0773 61.0516 69.9394C61.2378 69.8016 61.4701 69.7409 61.7 69.77C61.9159 69.7751 62.1215 69.8631 62.2742 70.0158C62.4269 70.1685 62.5149 70.3741 62.52 70.59V97.51C62.52 97.57 62.46 97.77 62.46 97.84C61.83 100.4 58.61 101.29 56.06 101.29Z" fill="#0087CA"/>
<path fill-rule="evenodd" clip-rule="evenodd" d="M58.92 97.74C58.7997 97.7413 58.6802 97.7188 58.5687 97.6736C58.4571 97.6285 58.3556 97.5617 58.2701 97.477C58.1845 97.3924 58.1166 97.2916 58.0702 97.1806C58.0239 97.0695 58 96.9504 58 96.83V76C57.9866 75.8732 58.0001 75.745 58.0395 75.6236C58.0789 75.5023 58.1434 75.3907 58.2287 75.2959C58.314 75.2011 58.4183 75.1253 58.5348 75.0734C58.6513 75.0216 58.7775 74.9948 58.905 74.9948C59.0325 74.9948 59.1586 75.0216 59.2752 75.0734C59.3917 75.1253 59.496 75.2011 59.5813 75.2959C59.6666 75.3907 59.7311 75.5023 59.7705 75.6236C59.8099 75.745 59.8233 75.8732 59.81 76V96.83C59.8101 97.0679 59.7169 97.2964 59.5506 97.4665C59.3842 97.6366 59.1579 97.7348 58.92 97.74Z" fill="#0087CA"/>
<path fill-rule="evenodd" clip-rule="evenodd" d="M56.09 98.53C55.8504 98.5274 55.6215 98.4303 55.453 98.2599C55.2845 98.0896 55.19 97.8596 55.19 97.62V77.4C55.19 77.1586 55.2859 76.9272 55.4565 76.7565C55.6272 76.5859 55.8587 76.49 56.1 76.49C56.3413 76.49 56.5728 76.5859 56.7435 76.7565C56.9141 76.9272 57.01 77.1586 57.01 77.4V97.62C57.0074 97.8623 56.9093 98.0937 56.737 98.2641C56.5648 98.4345 56.3323 98.53 56.09 98.53Z" fill="#0087CA"/>
<path fill-rule="evenodd" clip-rule="evenodd" d="M53.28 97.9101C53.043 97.9074 52.8167 97.8115 52.6501 97.643C52.4834 97.4745 52.39 97.247 52.39 97.0101V79.2801C52.4135 79.0564 52.519 78.8495 52.6861 78.699C52.8533 78.5486 53.0701 78.4653 53.295 78.4653C53.5199 78.4653 53.7367 78.5486 53.9039 78.699C54.071 78.8495 54.1765 79.0564 54.2 79.2801V97.0001C54.2 97.1204 54.1761 97.2396 54.1298 97.3506C54.0834 97.4617 54.0155 97.5625 53.9299 97.6471C53.8444 97.7317 53.7429 97.7985 53.6313 97.8437C53.5198 97.8888 53.4003 97.9114 53.28 97.9101Z" fill="#0087CA"/>
<path fill-rule="evenodd" clip-rule="evenodd" d="M84.94 76.62V78.94C86.06 84.33 99.47 84.44 100.62 78.94V76.62C99.5 82.08 86.26 82 85 76.84L84.94 76.62Z" fill="white"/>
<path fill-rule="evenodd" clip-rule="evenodd" d="M86.39 80C87.59 81.4 90.39 82.1 92.84 82.1C95.18 82.1 97.84 81.46 99.07 80.1C97.2474 81.1035 95.2006 81.6298 93.12 81.63C90.7684 81.727 88.4367 81.1623 86.39 80ZM92.84 83.9101C88.96 83.9101 84.76 82.43 84.07 79.11V76.61C84.0736 76.3859 84.1588 76.1707 84.3098 76.005C84.4608 75.8393 84.6671 75.7344 84.89 75.71C85.1155 75.6895 85.3407 75.7511 85.5244 75.8833C85.7081 76.0156 85.838 76.2097 85.89 76.43V76.65C86.43 78.78 89.98 79.87 93.11 79.77C96.11 79.77 99.29 78.66 99.75 76.43C99.7964 76.2134 99.9211 76.0215 100.1 75.8911C100.279 75.7606 100.5 75.7008 100.721 75.7231C100.941 75.7454 101.145 75.8482 101.295 76.0119C101.444 76.1755 101.528 76.3885 101.53 76.61V78.93C100.84 82.43 96.69 83.93 92.86 83.93L92.84 83.9101Z" fill="#0087CA"/>
<path fill-rule="evenodd" clip-rule="evenodd" d="M98.35 73C96.6265 72.1275 94.7218 71.6729 92.79 71.6729C90.8582 71.6729 88.9535 72.1275 87.23 73C84.14 74.78 84.14 77.65 87.23 79.43C88.9574 80.3075 90.8675 80.7648 92.805 80.7648C94.7425 80.7648 96.6526 80.3075 98.38 79.43C101.43 77.62 101.43 74.75 98.35 73Z" fill="white"/>
<path fill-rule="evenodd" clip-rule="evenodd" d="M92.79 72.56C91.0093 72.5205 89.2477 72.9334 87.67 73.76C87.1771 73.9722 86.7466 74.3068 86.4194 74.7321C86.0921 75.1574 85.8789 75.6592 85.8 76.19C85.8743 76.7224 86.0857 77.2264 86.4135 77.6524C86.7414 78.0784 87.1744 78.4119 87.67 78.62C89.2591 79.4048 91.0077 79.813 92.78 79.813C94.5524 79.813 96.3009 79.4048 97.89 78.62C98.3849 78.4122 98.8169 78.0786 99.1432 77.6523C99.4694 77.2261 99.6786 76.722 99.75 76.19C99.6796 75.6577 99.4707 75.1531 99.1444 74.7267C98.818 74.3003 98.3855 73.967 97.89 73.76C96.3195 72.9334 94.5643 72.5204 92.79 72.56ZM92.79 81.64C90.698 81.6746 88.6322 81.1719 86.79 80.18C85.01 79.18 84.04 77.74 84.04 76.18C84.0974 75.3279 84.383 74.5069 84.8668 73.8031C85.3507 73.0993 86.0149 72.5387 86.79 72.18C88.646 71.2256 90.703 70.7277 92.79 70.7277C94.8771 70.7277 96.934 71.2256 98.79 72.18C100.55 73.18 101.55 74.63 101.55 76.18C101.55 77.73 100.55 79.18 98.79 80.18C96.9499 81.1774 94.8826 81.6804 92.79 81.64Z" fill="#0087CA"/>
<path fill-rule="evenodd" clip-rule="evenodd" d="M98.3 48.6V75.53L98.24 75.68C97.35 79.31 88.15 79.3 87.24 75.68L87.18 75.53V48.6C87.18 48.71 87.24 48.8 87.26 48.91C87.4068 49.2937 87.6434 49.6366 87.95 49.91C88.7039 50.5954 89.6305 51.0622 90.63 51.26C92.5847 51.7192 94.6369 51.5115 96.46 50.67C97.0205 50.391 97.5097 49.9873 97.89 49.49C98.0577 49.2733 98.1709 49.0195 98.22 48.75L98.3 48.6Z" fill="white"/>
<path fill-rule="evenodd" clip-rule="evenodd" d="M88.13 51.19V75.53C88.43 76.63 90.36 77.53 92.74 77.53C95.12 77.53 97.05 76.67 97.36 75.53V51.19C97.18 51.31 97.02 51.4 96.88 51.48C94.8667 52.4358 92.5866 52.6723 90.42 52.15C89.5978 51.9533 88.8161 51.6149 88.11 51.15L88.13 51.19ZM92.76 79.3C90.21 79.3 87.02 78.41 86.39 75.89C86.39 75.83 86.33 75.59 86.33 75.53V48.6C86.3291 48.3745 86.4129 48.1569 86.5647 47.9903C86.7166 47.8236 86.9254 47.72 87.15 47.7C87.3803 47.6683 87.6139 47.7279 87.8008 47.8662C87.9876 48.0045 88.113 48.2104 88.15 48.44C88.2421 48.7537 88.4065 49.0414 88.63 49.28C89.2813 49.8349 90.0621 50.2166 90.9 50.39C92.6416 50.8067 94.4726 50.6272 96.1 49.88C96.5391 49.6725 96.9228 49.3641 97.22 48.98C97.312 48.8413 97.3828 48.6896 97.43 48.53C97.4867 48.3099 97.6166 48.1158 97.7984 47.9795C97.9801 47.8431 98.2029 47.7728 98.43 47.78C98.6451 47.7874 98.8493 47.8762 99.0015 48.0284C99.1537 48.1806 99.2425 48.3849 99.25 48.6V75.53C99.2487 75.6426 99.2284 75.7541 99.19 75.86C98.5 78.41 95.31 79.3 92.76 79.3Z" fill="#0087CA"/>
<path fill-rule="evenodd" clip-rule="evenodd" d="M95.59 75.75C95.353 75.7473 95.1267 75.6514 94.9601 75.4829C94.7934 75.3144 94.7 75.0869 94.7 74.85V54.05C94.7235 53.8263 94.829 53.6194 94.9961 53.4689C95.1633 53.3185 95.3801 53.2352 95.605 53.2352C95.8299 53.2352 96.0467 53.3185 96.2139 53.4689C96.381 53.6194 96.4865 53.8263 96.51 54.05V74.85C96.51 74.9699 96.4861 75.0885 96.4396 75.1991C96.3932 75.3096 96.3251 75.4097 96.2394 75.4935C96.1537 75.5774 96.0521 75.6432 95.9406 75.6873C95.829 75.7313 95.7099 75.7526 95.59 75.75Z" fill="#0087CA"/>
<path fill-rule="evenodd" clip-rule="evenodd" d="M92.79 76.54C92.6705 76.5413 92.5519 76.519 92.441 76.4745C92.3301 76.43 92.229 76.3641 92.1436 76.2805C92.0581 76.1969 91.99 76.0973 91.9431 75.9874C91.8961 75.8775 91.8713 75.7595 91.87 75.6399V55.41C91.8935 55.1863 91.999 54.9793 92.1661 54.8289C92.3332 54.6785 92.5501 54.5952 92.775 54.5952C92.9998 54.5952 93.2167 54.6785 93.3839 54.8289C93.551 54.9793 93.6565 55.1863 93.68 55.41V75.6399C93.6775 75.8761 93.5832 76.1021 93.4171 76.27C93.251 76.438 93.0261 76.5348 92.79 76.54Z" fill="#0087CA"/>
<path fill-rule="evenodd" clip-rule="evenodd" d="M90 75.93C89.8806 75.9313 89.7621 75.9087 89.6516 75.8633C89.5412 75.8179 89.4409 75.7508 89.357 75.6658C89.273 75.5809 89.207 75.48 89.1628 75.369C89.1187 75.2581 89.0973 75.1393 89.1 75.0199V57.3C89.0973 57.1806 89.1187 57.0618 89.1628 56.9509C89.207 56.8399 89.273 56.739 89.357 56.6541C89.4409 56.5691 89.5412 56.502 89.6516 56.4566C89.7621 56.4113 89.8806 56.3886 90 56.39C90.2379 56.3952 90.4642 56.4934 90.6306 56.6635C90.7969 56.8335 90.89 57.062 90.89 57.3V75C90.8926 75.1195 90.8717 75.2383 90.8284 75.3498C90.7851 75.4612 90.7203 75.563 90.6377 75.6493C90.555 75.7357 90.4562 75.8049 90.3467 75.8531C90.2373 75.9012 90.1195 75.9274 90 75.93Z" fill="#0087CA"/>
<path fill-rule="evenodd" clip-rule="evenodd" d="M67 66.3201V68.6201C68.12 74.0101 81.54 74.1301 82.66 68.6201V66.3101C81.54 71.7701 68.32 71.6501 67.05 66.5201L67 66.3201Z" fill="white"/>
<path fill-rule="evenodd" clip-rule="evenodd" d="M68.51 69.72C69.71 71.06 72.41 71.8 74.91 71.8C77.26 71.8 79.91 71.15 81.14 69.8C79.3273 70.7999 77.2902 71.323 75.22 71.32C72.8817 71.4355 70.5576 70.8952 68.51 69.76V69.72ZM74.91 73.61C71.03 73.61 66.82 72.13 66.14 68.81V66.32C66.1389 66.0961 66.2212 65.8798 66.371 65.7134C66.5208 65.547 66.7272 65.4424 66.95 65.42C67.1748 65.3947 67.4011 65.4531 67.5856 65.584C67.77 65.715 67.8998 65.9094 67.95 66.13V66.35C68.48 68.48 71.95 69.58 75.16 69.47C78.16 69.47 81.36 68.36 81.82 66.13C81.8355 66.0161 81.8742 65.9065 81.9337 65.8082C81.9932 65.7098 82.0723 65.6247 82.166 65.5582C82.2598 65.4916 82.3662 65.445 82.4787 65.4212C82.5912 65.3975 82.7073 65.397 82.82 65.42C83.0429 65.4399 83.2503 65.542 83.4019 65.7066C83.5535 65.8711 83.6384 66.0862 83.64 66.31V68.62C82.92 72.13 78.76 73.62 74.94 73.62L74.91 73.61Z" fill="#0087CA"/>
<path fill-rule="evenodd" clip-rule="evenodd" d="M80.42 62.6601C78.6965 61.7875 76.7918 61.3329 74.86 61.3329C72.9282 61.3329 71.0235 61.7875 69.3 62.6601C66.22 64.4401 66.22 67.3101 69.3 69.0901C71.0274 69.9675 72.9375 70.4248 74.875 70.4248C76.8125 70.4248 78.7226 69.9675 80.45 69.0901C83.51 67.3101 83.51 64.4401 80.42 62.6601Z" fill="white"/>
<path fill-rule="evenodd" clip-rule="evenodd" d="M74.86 62.2401C73.0843 62.1987 71.3279 62.6154 69.76 63.4501C69.264 63.6562 68.8309 63.9893 68.5044 64.4159C68.1779 64.8424 67.9695 65.3474 67.9 65.8801C67.9733 66.4114 68.1833 66.9146 68.5093 67.3406C68.8353 67.7665 69.2662 68.1005 69.76 68.3101C71.3478 69.0993 73.0969 69.5101 74.87 69.5101C76.6432 69.5101 78.3922 69.0993 79.98 68.3101C80.4717 68.1003 80.9002 67.7657 81.2229 67.3395C81.5456 66.9133 81.7514 66.4102 81.82 65.8801C81.7602 65.3497 81.56 64.845 81.2401 64.4178C80.9202 63.9907 80.4921 63.6566 80 63.4501C78.4241 62.6175 76.6618 62.201 74.88 62.2401H74.86ZM74.86 71.3401C72.7669 71.3743 70.7003 70.868 68.86 69.8701C67.07 68.8701 66.1 67.4301 66.1 65.8701C66.1551 65.016 66.441 64.1929 66.927 63.4885C67.4131 62.7841 68.0811 62.2247 68.86 61.8701C70.716 60.9156 72.773 60.4177 74.86 60.4177C76.9471 60.4177 79.004 60.9156 80.86 61.8701C82.64 62.8701 83.62 64.3101 83.62 65.8701C83.62 67.4301 82.62 68.8701 80.86 69.8701C79.0187 70.8654 76.9528 71.3716 74.86 71.3401Z" fill="#0087CA"/>
<path fill-rule="evenodd" clip-rule="evenodd" d="M29.92 66V68.32C31.04 73.71 44.46 73.82 45.6 68.32V66C44.48 71.45 31.24 71.34 29.97 66.22L29.92 66Z" fill="white"/>
<path fill-rule="evenodd" clip-rule="evenodd" d="M31.37 69.38C32.57 70.79 35.37 71.49 37.82 71.49C40.27 71.49 42.82 70.84 44.03 69.49C42.2159 70.4852 40.1792 71.0047 38.11 71C35.7593 71.1056 33.4256 70.5551 31.37 69.41V69.38ZM37.82 73.3C33.95 73.3 29.74 71.81 29.05 68.49L29 66C28.9991 65.7772 29.0818 65.5621 29.2318 65.3974C29.3818 65.2326 29.5881 65.13 29.81 65.11C29.9233 65.0886 30.0397 65.0904 30.1522 65.1154C30.2647 65.1404 30.371 65.1881 30.4645 65.2554C30.558 65.3228 30.6369 65.4084 30.6963 65.5072C30.7557 65.606 30.7944 65.7158 30.81 65.83L30.86 66.04C31.37 68.11 34.69 69.17 37.8 69.17H38.09C41.04 69.11 44.25 68.06 44.71 65.83C44.7539 65.6053 44.8817 65.4058 45.0675 65.272C45.2532 65.1383 45.483 65.0803 45.71 65.11C45.931 65.1301 46.1362 65.233 46.2846 65.3981C46.4329 65.5631 46.5134 65.7781 46.51 66V68.32C45.81 71.81 41.62 73.3 37.82 73.3Z" fill="#0087CA"/>
<path fill-rule="evenodd" clip-rule="evenodd" d="M43.34 62.34C41.6112 61.4672 39.7016 61.0125 37.765 61.0125C35.8284 61.0125 33.9188 61.4672 32.19 62.34C29.13 64.12 29.13 67 32.19 68.78C33.9188 69.6528 35.8284 70.1075 37.765 70.1075C39.7016 70.1075 41.6112 69.6528 43.34 68.78C46.4 67 46.4 64.12 43.34 62.34Z" fill="white"/>
<path fill-rule="evenodd" clip-rule="evenodd" d="M37.78 61.93C35.996 61.8893 34.2308 62.3022 32.65 63.13C32.1551 63.3378 31.7231 63.6714 31.3969 64.0977C31.0706 64.5239 30.8614 65.028 30.79 65.56C30.8588 66.0941 31.0669 66.6007 31.3933 67.029C31.7198 67.4573 32.1532 67.7922 32.65 68C34.2396 68.7894 35.9902 69.2002 37.765 69.2002C39.5398 69.2002 41.2905 68.7894 42.88 68C43.3743 67.7913 43.8058 67.4575 44.1319 67.0314C44.4581 66.6053 44.6676 66.1017 44.74 65.57C44.6657 65.039 44.4555 64.5362 44.1296 64.1104C43.8037 63.6846 43.3732 63.3503 42.88 63.14C41.3095 62.3134 39.5543 61.9004 37.78 61.94V61.93ZM37.78 71.01C35.6895 71.0428 33.6249 70.5438 31.78 69.56C30.9691 69.2513 30.2712 68.7035 29.7788 67.9892C29.2863 67.2748 29.0226 66.4276 29.0226 65.56C29.0226 64.6924 29.2863 63.8452 29.7788 63.1308C30.2712 62.4165 30.9691 61.8687 31.78 61.56C33.636 60.6056 35.693 60.1077 37.78 60.1077C39.867 60.1077 41.924 60.6056 43.78 61.56C45.54 62.56 46.54 64.01 46.54 65.56C46.54 67.11 45.54 68.56 43.78 69.56C41.9359 70.5449 39.8702 71.0407 37.78 71V71.01Z" fill="#0087CA"/>
<path fill-rule="evenodd" clip-rule="evenodd" d="M30.27 87.42V89.73C31.37 95.12 44.79 95.24 45.94 89.73V87.42C44.81 92.87 31.57 92.76 30.3 87.64L30.27 87.42Z" fill="white"/>
<path fill-rule="evenodd" clip-rule="evenodd" d="M31.7 90.81C32.9 92.22 35.7 92.92 38.15 92.92C40.6 92.92 43.15 92.27 44.38 90.92C42.5607 91.9216 40.5168 92.4446 38.44 92.44C36.0907 92.5445 33.7581 91.9977 31.7 90.86V90.81ZM38.15 94.72C34.28 94.72 30.08 93.24 29.38 89.92V87.42C29.3793 87.1956 29.4634 86.9792 29.6155 86.8142C29.7675 86.6492 29.9763 86.5476 30.2 86.53C30.3124 86.51 30.4276 86.5125 30.539 86.5375C30.6504 86.5624 30.7557 86.6093 30.8488 86.6754C30.9419 86.7415 31.0209 86.8255 31.0812 86.9224C31.1415 87.0193 31.1819 87.1273 31.2 87.24L31.26 87.46C31.79 89.59 35.26 90.65 38.47 90.59C41.47 90.52 44.64 89.47 45.1 87.24C45.1469 87.0184 45.2739 86.8219 45.4567 86.6881C45.6395 86.5543 45.8652 86.4927 46.0906 86.515C46.316 86.5373 46.5253 86.6419 46.6783 86.8089C46.8314 86.9759 46.9174 87.1935 46.92 87.42V89.73C46.14 93.24 42 94.72 38.15 94.72Z" fill="#0087CA"/>
<path fill-rule="evenodd" clip-rule="evenodd" d="M43.67 83.77C41.9465 82.8975 40.0418 82.4429 38.11 82.4429C36.1782 82.4429 34.2735 82.8975 32.55 83.77C29.46 85.55 29.46 88.43 32.55 90.2C34.2721 91.0772 36.1773 91.5345 38.11 91.5345C40.0427 91.5345 41.9479 91.0772 43.67 90.2C46.75 88.43 46.75 85.55 43.67 83.77Z" fill="white"/>
<path fill-rule="evenodd" clip-rule="evenodd" d="M38.11 83.3601C36.3343 83.3265 34.5782 83.7355 33 84.5501C32.4694 84.6997 32.0023 85.0185 31.6696 85.4581C31.3368 85.8976 31.1568 86.4338 31.1568 86.9851C31.1568 87.5363 31.3368 88.0725 31.6696 88.512C32.0023 88.9516 32.4694 89.2704 33 89.4201C34.5896 90.2094 36.3402 90.6202 38.115 90.6202C39.8898 90.6202 41.6405 90.2094 43.23 89.4201C43.7666 89.277 44.2409 88.9608 44.5792 88.5205C44.9176 88.0801 45.101 87.5404 45.101 86.9851C45.101 86.4297 44.9176 85.89 44.5792 85.4496C44.2409 85.0093 43.7666 84.6931 43.23 84.5501C41.6569 83.7315 39.903 83.3222 38.13 83.3601H38.11ZM38.11 92.4501C36.0188 92.4776 33.9547 91.9753 32.11 90.9901C31.2991 90.6814 30.6012 90.1336 30.1088 89.4192C29.6163 88.7048 29.3526 87.8577 29.3526 86.9901C29.3526 86.1224 29.6163 85.2753 30.1088 84.5609C30.6012 83.8465 31.2991 83.2987 32.11 82.9901C33.966 82.0356 36.023 81.5377 38.11 81.5377C40.197 81.5377 42.254 82.0356 44.11 82.9901C44.9209 83.2987 45.6188 83.8465 46.1112 84.5609C46.6037 85.2753 46.8674 86.1224 46.8674 86.9901C46.8674 87.8577 46.6037 88.7048 46.1112 89.4192C45.6188 90.1336 44.9209 90.6814 44.11 90.9901C42.265 91.9745 40.2011 92.4767 38.11 92.4501Z" fill="#0087CA"/>
<path fill-rule="evenodd" clip-rule="evenodd" d="M43.61 59.4V86.32V86.47C42.71 90.1 33.51 90.1 32.61 86.47V86.32V59.4C32.61 59.51 32.61 59.6 32.69 59.7C32.8426 60.0806 33.0783 60.4223 33.38 60.7C34.1168 61.3783 35.0212 61.8478 36 62.06C37.9603 62.535 40.024 62.3268 41.85 61.47C42.4078 61.1957 42.894 60.7951 43.27 60.3C43.4273 60.0724 43.5425 59.8184 43.61 59.55V59.4Z" fill="white"/>
<path fill-rule="evenodd" clip-rule="evenodd" d="M33.44 62V86.32C33.74 87.43 35.68 88.32 38.09 88.32C40.45 88.32 42.41 87.46 42.7 86.32V62C42.51 62.11 42.37 62.21 42.21 62.29C40.1981 63.238 37.9238 63.4743 35.76 62.96C34.9351 62.7619 34.1504 62.4237 33.44 61.96V62ZM38.09 90.1C35.5 90.1 32.32 89.2 31.68 86.7C31.68 86.63 31.63 86.4 31.63 86.32V59.4C31.6311 59.1767 31.7142 58.9617 31.8636 58.7957C32.013 58.6298 32.2181 58.5245 32.44 58.5C32.6674 58.4678 32.8984 58.5248 33.0848 58.6589C33.2711 58.7931 33.3984 58.9942 33.44 59.22C33.5282 59.5502 33.7085 59.8485 33.96 60.08C34.6035 60.6409 35.3827 61.0236 36.22 61.19C37.9552 61.6022 39.7785 61.4227 41.4 60.68C41.8367 60.4688 42.2197 60.161 42.52 59.78C42.6102 59.6403 42.6809 59.4889 42.73 59.33C42.7867 59.11 42.9166 58.9158 43.0984 58.7795C43.2801 58.6432 43.5029 58.5728 43.73 58.58C43.9396 58.5926 44.1367 58.6843 44.2814 58.8364C44.4262 58.9886 44.5079 59.19 44.51 59.4V86.32C44.5204 86.4298 44.5204 86.5402 44.51 86.65C43.82 89.2 40.63 90.1 38.09 90.1Z" fill="#0087CA"/>
<path fill-rule="evenodd" clip-rule="evenodd" d="M40.91 86.55C40.6721 86.5448 40.4458 86.4466 40.2794 86.2765C40.1131 86.1064 40.0199 85.8779 40.02 85.64V64.85C40.0435 64.6264 40.149 64.4194 40.3161 64.269C40.4833 64.1185 40.7001 64.0353 40.925 64.0353C41.1499 64.0353 41.3667 64.1185 41.5339 64.269C41.701 64.4194 41.8065 64.6264 41.83 64.85V85.64C41.8274 85.8823 41.7293 86.1137 41.557 86.2841C41.3848 86.4545 41.1523 86.55 40.91 86.55Z" fill="#0087CA"/>
<path fill-rule="evenodd" clip-rule="evenodd" d="M38.11 87.34C37.9897 87.3413 37.8702 87.3187 37.7587 87.2736C37.6471 87.2285 37.5456 87.1616 37.4601 87.077C37.3745 86.9924 37.3066 86.8916 37.2602 86.7806C37.2139 86.6695 37.19 86.5503 37.19 86.43V66.22C37.1766 66.0931 37.1901 65.9649 37.2295 65.8436C37.2689 65.7223 37.3334 65.6107 37.4187 65.5159C37.504 65.4211 37.6083 65.3453 37.7248 65.2934C37.8413 65.2415 37.9675 65.2147 38.095 65.2147C38.2225 65.2147 38.3487 65.2415 38.4652 65.2934C38.5817 65.3453 38.686 65.4211 38.7713 65.5159C38.8566 65.6107 38.9211 65.7223 38.9605 65.8436C38.9999 65.9649 39.0134 66.0931 39 66.22V86.43C39.0001 86.6679 38.9069 86.8964 38.7406 87.0665C38.5742 87.2366 38.3479 87.3348 38.11 87.34Z" fill="#0087CA"/>
<path fill-rule="evenodd" clip-rule="evenodd" d="M35.3 86.72C35.1819 86.7213 35.0647 86.6989 34.9555 86.654C34.8462 86.6092 34.7471 86.5428 34.6641 86.4588C34.581 86.3748 34.5157 86.275 34.4721 86.1652C34.4284 86.0555 34.4073 85.938 34.41 85.82V68.09C34.41 67.8539 34.5038 67.6275 34.6707 67.4606C34.8376 67.2937 35.064 67.2 35.3 67.2C35.536 67.2 35.7624 67.2937 35.9293 67.4606C36.0962 67.6275 36.19 67.8539 36.19 68.09V85.82C36.1927 85.938 36.1716 86.0555 36.1279 86.1652C36.0843 86.275 36.019 86.3748 35.936 86.4588C35.8529 86.5428 35.7538 86.6092 35.6445 86.654C35.5353 86.6989 35.4181 86.7213 35.3 86.72Z" fill="#0087CA"/>
<path fill-rule="evenodd" clip-rule="evenodd" d="M11.74 77V79.32C12.85 84.71 26.28 84.82 27.42 79.32V77C26.28 82.45 13.06 82.34 11.79 77.22L11.74 77Z" fill="white"/>
<path fill-rule="evenodd" clip-rule="evenodd" d="M13.19 80.39C14.38 81.8 17.19 82.5 19.62 82.5C22.05 82.5 24.62 81.85 25.84 80.5C24.0182 81.493 21.9748 82.009 19.9 82C17.5578 82.1167 15.2307 81.5653 13.19 80.41V80.39ZM19.62 84.31C15.77 84.31 11.53 82.82 10.84 79.5V77C10.8243 76.767 10.8998 76.5369 11.0505 76.3585C11.2013 76.1801 11.4155 76.0673 11.6479 76.0439C11.8803 76.0206 12.1127 76.0885 12.296 76.2333C12.4792 76.3781 12.599 76.5885 12.63 76.82V77.04C13.14 79.16 16.56 80.21 19.82 80.17C22.82 80.11 26.02 79.05 26.47 76.82C26.5201 76.5986 26.6494 76.4032 26.8336 76.2706C27.0178 76.138 27.2442 76.0773 27.47 76.1C27.6911 76.1266 27.895 76.2325 28.0439 76.398C28.1929 76.5635 28.2767 76.7774 28.28 77V79.32C27.6 82.82 23.44 84.31 19.62 84.31Z" fill="#0087CA"/>
<path fill-rule="evenodd" clip-rule="evenodd" d="M25.15 73.35C23.4212 72.4772 21.5116 72.0225 19.575 72.0225C17.6384 72.0225 15.7288 72.4772 14 73.35C10.94 75.13 10.94 78.01 14 79.78C15.7274 80.6574 17.6375 81.1148 19.575 81.1148C21.5125 81.1148 23.4226 80.6574 25.15 79.78C28.21 78 28.21 75.13 25.15 73.35Z" fill="white"/>
<path fill-rule="evenodd" clip-rule="evenodd" d="M19.57 72.93C17.7925 72.8905 16.0341 73.3034 14.46 74.13C13.9649 74.3404 13.5331 74.676 13.207 75.1038C12.8809 75.5316 12.6717 76.0369 12.6 76.57C12.6704 77.1023 12.8793 77.6069 13.2056 78.0333C13.532 78.4597 13.9645 78.793 14.46 79C16.0495 79.7894 17.8002 80.2002 19.575 80.2002C21.3498 80.2002 23.1004 79.7894 24.69 79C25.1855 78.793 25.618 78.4597 25.9444 78.0333C26.2707 77.6069 26.4796 77.1023 26.55 76.57C26.4783 76.0369 26.2691 75.5316 25.943 75.1038C25.6169 74.676 25.1851 74.3404 24.69 74.13C23.1123 73.3034 21.3507 72.8905 19.57 72.93ZM19.57 82.03C17.4769 82.0642 15.4103 81.5579 13.57 80.56C11.81 79.56 10.81 78.12 10.81 76.56C10.81 75 11.81 73.56 13.57 72.56C15.426 71.6056 17.483 71.1077 19.57 71.1077C21.657 71.1077 23.714 71.6056 25.57 72.56C26.3809 72.8687 27.0788 73.4165 27.5712 74.1309C28.0637 74.8452 28.3274 75.6924 28.3274 76.56C28.3274 77.4276 28.0637 78.2748 27.5712 78.9892C27.0788 79.7035 26.3809 80.2513 25.57 80.56C23.7259 81.5449 21.6602 82.0407 19.57 82V82.03Z" fill="#0087CA"/>
<path fill-rule="evenodd" clip-rule="evenodd" d="M25.07 49V75.9V76.06C24.15 79.68 14.97 79.68 14.07 76.06V75.9V49L14.15 49.31C14.293 49.6906 14.5224 50.0329 14.82 50.31C15.5902 50.9827 16.5197 51.4475 17.52 51.66C19.4685 52.1273 21.5181 51.9156 23.33 51.06C23.8914 50.7869 24.3812 50.3863 24.76 49.89C24.9195 49.6609 25.041 49.4077 25.12 49.14L25.07 49Z" fill="white"/>
<path fill-rule="evenodd" clip-rule="evenodd" d="M14.9 51.58V75.9C15.21 77.02 17.14 77.9 19.54 77.9C21.94 77.9 23.87 77.05 24.16 75.9V51.64L23.67 51.92C21.6575 52.8657 19.3839 53.1019 17.22 52.59C16.3916 52.3837 15.6016 52.0461 14.88 51.59L14.9 51.58ZM19.54 79.68C16.99 79.68 13.78 78.79 13.16 76.27C13.1329 76.1483 13.1161 76.0246 13.11 75.9V49C13.1083 48.7792 13.1879 48.5655 13.3336 48.3996C13.4792 48.2336 13.6808 48.127 13.9 48.1C14.1262 48.0751 14.3536 48.1349 14.5383 48.2679C14.723 48.4009 14.8519 48.5976 14.9 48.82C14.9727 49.1473 15.1396 49.4463 15.38 49.68C16.0291 50.2383 16.8108 50.6205 17.65 50.79C19.3947 51.2091 21.2297 51.0295 22.86 50.28C23.2879 50.0638 23.6633 49.7566 23.96 49.38C24.0551 49.248 24.1231 49.0985 24.16 48.94C24.2147 48.7181 24.3438 48.5217 24.5258 48.3834C24.7077 48.2452 24.9316 48.1734 25.16 48.18C25.3778 48.1849 25.5857 48.2722 25.7417 48.4244C25.8976 48.5766 25.9899 48.7824 26 49V75.9C26 75.96 26 76.19 26 76.25C25.3 78.79 22.09 79.68 19.54 79.68Z" fill="#0087CA"/>
<path fill-rule="evenodd" clip-rule="evenodd" d="M22.39 76.13C22.1504 76.13 21.9204 76.0355 21.75 75.867C21.5797 75.6985 21.4826 75.4696 21.48 75.23V54.43C21.5035 54.2064 21.609 53.9994 21.7761 53.8489C21.9433 53.6985 22.1601 53.6152 22.385 53.6152C22.6098 53.6152 22.8267 53.6985 22.9939 53.8489C23.161 53.9994 23.2665 54.2064 23.29 54.43V75.23C23.2874 75.4679 23.1917 75.6953 23.0235 75.8635C22.8553 76.0317 22.6279 76.1274 22.39 76.13Z" fill="#0087CA"/>
<path fill-rule="evenodd" clip-rule="evenodd" d="M19.57 76.9201C19.3313 76.9201 19.1024 76.8252 18.9336 76.6565C18.7648 76.4877 18.67 76.2588 18.67 76.0201V55.8001C18.6566 55.6732 18.6701 55.545 18.7095 55.4237C18.7489 55.3024 18.8134 55.1907 18.8987 55.0959C18.984 55.0012 19.0883 54.9254 19.2048 54.8735C19.3213 54.8216 19.4475 54.7948 19.575 54.7948C19.7025 54.7948 19.8286 54.8216 19.9452 54.8735C20.0617 54.9254 20.166 55.0012 20.2513 55.0959C20.3366 55.1907 20.4011 55.3024 20.4405 55.4237C20.4799 55.545 20.4933 55.6732 20.48 55.8001V76.0001C20.4827 76.1208 20.4611 76.2408 20.4164 76.353C20.3718 76.4651 20.305 76.5672 20.2201 76.653C20.1352 76.7389 20.0339 76.8067 19.9222 76.8526C19.8105 76.8985 19.6907 76.9214 19.57 76.9201Z" fill="#0087CA"/>
<path fill-rule="evenodd" clip-rule="evenodd" d="M16.78 76.3C16.661 76.3013 16.5429 76.279 16.4325 76.2343C16.3222 76.1897 16.2218 76.1236 16.1371 76.0399C16.0525 75.9562 15.9853 75.8565 15.9394 75.7467C15.8936 75.6368 15.87 75.519 15.87 75.4V57.67C15.87 57.5509 15.8936 57.4331 15.9394 57.3232C15.9853 57.2134 16.0525 57.1137 16.1371 57.03C16.2218 56.9463 16.3222 56.8802 16.4325 56.8356C16.5429 56.7909 16.661 56.7686 16.78 56.77C16.8977 56.7699 17.0143 56.7933 17.1229 56.8386C17.2315 56.884 17.3301 56.9504 17.4129 57.0342C17.4957 57.1179 17.561 57.2172 17.6051 57.3263C17.6493 57.4354 17.6713 57.5522 17.67 57.67V75.4C17.6713 75.5177 17.6493 75.6345 17.6051 75.7436C17.561 75.8527 17.4957 75.952 17.4129 76.0357C17.3301 76.1195 17.2315 76.1859 17.1229 76.2313C17.0143 76.2766 16.8977 76.3 16.78 76.3Z" fill="#0087CA"/>
<path fill-rule="evenodd" clip-rule="evenodd" d="M66.47 87.38V89.69C67.59 95.08 81.01 95.19 82.13 89.69V87.38C81.01 92.83 67.79 92.72 66.49 87.6L66.47 87.38Z" fill="white"/>
<path fill-rule="evenodd" clip-rule="evenodd" d="M67.92 90.76C69.1 92.17 71.92 92.87 74.35 92.87C76.78 92.87 79.35 92.22 80.57 90.82C78.7528 91.828 76.708 92.3546 74.63 92.35C72.2896 92.4474 69.9678 91.8972 67.92 90.76ZM74.35 94.68C70.47 94.68 66.26 93.19 65.58 89.87V87.38C65.5643 87.147 65.6398 86.9169 65.7905 86.7385C65.9413 86.5601 66.1555 86.4473 66.3879 86.424C66.6203 86.4006 66.8527 86.4685 67.036 86.6133C67.2192 86.7581 67.339 86.9685 67.37 87.2V87.41C67.91 89.54 71.37 90.61 74.59 90.55C77.59 90.49 80.77 89.43 81.25 87.2C81.2669 87.0864 81.3065 86.9774 81.3663 86.8793C81.426 86.7812 81.5049 86.6961 81.5981 86.629C81.6913 86.5619 81.797 86.5141 81.909 86.4885C82.0209 86.463 82.1369 86.4601 82.25 86.48C82.4728 86.5024 82.6792 86.607 82.829 86.7734C82.9788 86.9398 83.0611 87.1561 83.06 87.38V89.69C82.33 93.19 78.17 94.68 74.35 94.68Z" fill="#0087CA"/>
<path fill-rule="evenodd" clip-rule="evenodd" d="M79.86 83.73C78.1379 82.8528 76.2327 82.3955 74.3 82.3955C72.3674 82.3955 70.4621 82.8528 68.74 83.73C65.65 85.5 65.65 88.38 68.74 90.16C70.4635 91.0325 72.3682 91.4871 74.3 91.4871C76.2318 91.4871 78.1365 91.0325 79.86 90.16C82.94 88.38 82.94 85.5 79.86 83.73Z" fill="white"/>
<path fill-rule="evenodd" clip-rule="evenodd" d="M74.3 83.31C72.5256 83.2691 70.7701 83.6822 69.2 84.51C68.6677 84.6562 68.1981 84.9732 67.8634 85.4122C67.5287 85.8512 67.3475 86.388 67.3475 86.94C67.3475 87.4921 67.5287 88.0288 67.8634 88.4678C68.1981 88.9068 68.6677 89.2238 69.2 89.37C70.793 90.1596 72.547 90.5705 74.325 90.5705C76.103 90.5705 77.857 90.1596 79.45 89.37C79.9823 89.2238 80.4519 88.9068 80.7866 88.4678C81.1213 88.0288 81.3026 87.4921 81.3026 86.94C81.3026 86.388 81.1213 85.8512 80.7866 85.4122C80.4519 84.9732 79.9823 84.6562 79.45 84.51C77.8795 83.6834 76.1243 83.2705 74.35 83.31H74.3ZM74.3 92.4C72.2083 92.4324 70.143 91.9298 68.3 90.94C66.51 89.94 65.54 88.49 65.54 86.94C65.54 85.39 66.54 83.94 68.3 82.94C70.1575 81.9903 72.2138 81.4951 74.3 81.4951C76.3862 81.4951 78.4425 81.9903 80.3 82.94C81.1109 83.2487 81.8088 83.7965 82.3012 84.5109C82.7937 85.2252 83.0574 86.0724 83.0574 86.94C83.0574 87.8077 82.7937 88.6548 82.3012 89.3692C81.8088 90.0835 81.1109 90.6314 80.3 90.94C78.4562 91.9277 76.3915 92.4302 74.3 92.4Z" fill="#0087CA"/>
<path fill-rule="evenodd" clip-rule="evenodd" d="M79.81 59.36V86.28L79.75 86.43C78.86 90.06 69.66 90.06 68.75 86.43V86.28V59.36C68.7552 59.4666 68.7789 59.5715 68.82 59.67C68.9555 60.0544 69.186 60.3984 69.49 60.67C70.2595 61.334 71.1852 61.7917 72.18 62C74.1289 62.4609 76.1764 62.2494 77.99 61.4C78.5541 61.1312 79.0448 60.7297 79.42 60.23C79.5844 60.0076 79.6971 59.7514 79.75 59.48L79.81 59.36Z" fill="white"/>
<path fill-rule="evenodd" clip-rule="evenodd" d="M69.63 62V86.28C69.94 87.4 71.87 88.28 74.27 88.28C76.65 88.28 78.61 87.43 78.89 86.28V62C78.7343 62.1062 78.5705 62.1998 78.4 62.28C76.4009 63.2146 74.1413 63.4335 72 62.9C71.1653 62.7345 70.3642 62.4303 69.63 62ZM74.27 90.11C71.72 90.11 68.51 89.21 67.87 86.7C67.87 86.63 67.81 86.4 67.81 86.33V59.36C67.8138 59.1343 67.9005 58.9179 68.0536 58.7519C68.2066 58.586 68.4153 58.4821 68.64 58.46C68.8667 58.4223 69.099 58.4758 69.2864 58.6089C69.4737 58.7419 69.6009 58.9436 69.64 59.17C69.7122 59.4976 69.8791 59.7966 70.12 60.03C70.7726 60.6005 71.5673 60.984 72.42 61.14C74.1511 61.5642 75.9751 61.3842 77.59 60.63C78.0282 60.4166 78.414 60.1093 78.72 59.73C78.8128 59.5967 78.8806 59.4476 78.92 59.29C78.9767 59.07 79.1066 58.8759 79.2884 58.7395C79.4701 58.6032 79.6929 58.5328 79.92 58.54C80.1359 58.5451 80.3415 58.6331 80.4942 58.7858C80.6469 58.9385 80.7349 59.1442 80.74 59.36V86.28C80.7545 86.3929 80.7545 86.5072 80.74 86.62C80 89.16 76.82 90.06 74.27 90.06V90.11Z" fill="#0087CA"/>
<path fill-rule="evenodd" clip-rule="evenodd" d="M77.1 86.5C76.863 86.4973 76.6367 86.4013 76.4701 86.2328C76.3034 86.0643 76.21 85.8369 76.21 85.5999V64.8099C76.1967 64.6831 76.2101 64.5549 76.2495 64.4336C76.2889 64.3123 76.3534 64.2006 76.4387 64.1058C76.524 64.011 76.6283 63.9353 76.7448 63.8834C76.8613 63.8315 76.9875 63.8047 77.115 63.8047C77.2425 63.8047 77.3687 63.8315 77.4852 63.8834C77.6017 63.9353 77.706 64.011 77.7913 64.1058C77.8766 64.2006 77.9411 64.3123 77.9805 64.4336C78.0199 64.5549 78.0334 64.6831 78.02 64.8099V85.5999C78.02 85.7198 77.9961 85.8385 77.9496 85.949C77.9032 86.0596 77.8351 86.1597 77.7494 86.2435C77.6637 86.3274 77.5621 86.3932 77.4506 86.4373C77.3391 86.4813 77.2199 86.5026 77.1 86.5Z" fill="#0087CA"/>
<path fill-rule="evenodd" clip-rule="evenodd" d="M74.3 87.3001C74.0577 87.3001 73.8252 87.2045 73.653 87.0341C73.4807 86.8638 73.3826 86.6323 73.38 86.3901V66.1701C73.3666 66.0432 73.3801 65.915 73.4195 65.7937C73.4589 65.6724 73.5234 65.5607 73.6087 65.4659C73.694 65.3712 73.7983 65.2954 73.9148 65.2435C74.0314 65.1916 74.1575 65.1648 74.285 65.1648C74.4125 65.1648 74.5387 65.1916 74.6552 65.2435C74.7717 65.2954 74.876 65.3712 74.9613 65.4659C75.0466 65.5607 75.1111 65.6724 75.1505 65.7937C75.1899 65.915 75.2034 66.0432 75.19 66.1701V86.3901C75.1901 86.628 75.0969 86.8565 74.9306 87.0266C74.7642 87.1967 74.5379 87.2948 74.3 87.3001Z" fill="#0087CA"/>
<path fill-rule="evenodd" clip-rule="evenodd" d="M71.49 86.68C71.2521 86.6747 71.0258 86.5766 70.8594 86.4065C70.6931 86.2364 70.5999 86.0079 70.6 85.77V68.05C70.6235 67.8264 70.729 67.6194 70.8961 67.4689C71.0633 67.3185 71.2802 67.2352 71.505 67.2352C71.7299 67.2352 71.9468 67.3185 72.1139 67.4689C72.281 67.6194 72.3865 67.8264 72.41 68.05V85.77C72.4074 86.0122 72.3093 86.2437 72.137 86.4141C71.9648 86.5844 71.7323 86.68 71.49 86.68Z" fill="#0087CA"/>
<path fill-rule="evenodd" clip-rule="evenodd" d="M107.05 44.23L56.11 14.82C55.9214 14.7032 55.7014 14.6473 55.48 14.66L29.64 16.53C29.3604 16.5642 29.0894 16.649 28.84 16.78C28.5579 16.9645 28.3023 17.1865 28.08 17.44L2 46.07C1.35158 46.7854 0.960877 47.697 0.889999 48.66V50C0.889999 50.2 0.889999 50.28 1.08 50.41L52 79.8C51.82 79.67 51.82 79.59 51.79 79.39V78.08C51.8636 77.095 52.2938 76.1706 53 75.48L79 46.85C79.2873 46.5439 79.6257 46.2901 80 46.1C80.1877 46.0159 80.3863 45.9586 80.59 45.93L106.43 44.07C106.649 44.0539 106.866 44.1101 107.05 44.23Z" fill="#CBEAF5"/>
<path fill-rule="evenodd" clip-rule="evenodd" d="M1.78 49.77L50.93 78.13V78.07C51.0081 76.8947 51.4761 75.7791 52.26 74.9L78.35 46.24C78.694 45.8328 79.1112 45.4936 79.58 45.24C79.8565 45.1153 80.1495 45.0311 80.45 44.99L103.73 43.31L55.65 15.61L29.65 17.43C29.504 17.4491 29.364 17.5004 29.24 17.58C29.0345 17.7204 28.8465 17.8849 28.68 18.07L2.68 46.67C2.15909 47.2344 1.85142 47.963 1.81 48.73V49.73L1.78 49.77ZM52 80.7C51.845 80.7018 51.6926 80.6603 51.56 80.58L0.64 51.17C0.453797 51.048 0.298859 50.8841 0.187688 50.6912C0.076517 50.4984 0.0122252 50.2822 0 50.06L0 48.66C0.0598059 47.4805 0.530309 46.359 1.33 45.49L27.39 16.83C27.6862 16.5199 28.0225 16.2509 28.39 16.03C28.7398 15.8148 29.1322 15.6783 29.54 15.63L55.4 13.75C55.7995 13.7272 56.1966 13.8247 56.54 14.03L107.54 43.45C107.642 43.508 107.732 43.5858 107.804 43.6787C107.876 43.7716 107.928 43.8778 107.959 43.9912C107.99 44.1046 107.998 44.223 107.982 44.3395C107.967 44.456 107.929 44.5683 107.87 44.67C107.754 44.8774 107.561 45.0312 107.333 45.0985C107.105 45.1658 106.86 45.1412 106.65 45.03L106.54 44.97L80.62 46.84L80.32 46.93C80.0698 47.0779 79.8439 47.2634 79.65 47.48L53.65 76.09C53.1238 76.6288 52.808 77.3383 52.76 78.09V79.2C52.8593 79.3589 52.912 79.5425 52.912 79.73C52.912 79.9174 52.8593 80.101 52.76 80.26C52.6845 80.3948 52.5741 80.5068 52.4404 80.5843C52.3067 80.6617 52.1545 80.7017 52 80.7Z" fill="#0087CA"/>
<path fill-rule="evenodd" clip-rule="evenodd" d="M106.41 44.07L80.57 45.93C79.9562 46.0314 79.403 46.3598 79.02 46.85L53 75.48C52.3262 76.1847 51.9255 77.1065 51.87 78.08V79.39C51.87 79.79 52.18 79.95 52.54 79.75L106.84 47.8C107.028 47.6777 107.184 47.5123 107.296 47.3175C107.407 47.1227 107.47 46.9041 107.48 46.68V45.37C107.51 44.51 107.09 44 106.41 44.07Z" fill="#A6EDF8"/>
<path fill-rule="evenodd" clip-rule="evenodd" d="M106.51 44.96L80.62 46.84C80.2466 46.9368 79.916 47.1549 79.68 47.46L53.68 76.09C53.1589 76.6323 52.844 77.3399 52.79 78.09V78.54L106.38 47C106.486 46.9105 106.556 46.7866 106.58 46.65V45.36C106.594 45.2228 106.57 45.0844 106.51 44.96ZM52.18 80.74C51.9662 80.7406 51.756 80.6855 51.57 80.58C51.3667 80.4545 51.2003 80.2773 51.0879 80.0665C50.9754 79.8557 50.9209 79.6188 50.93 79.38V78.07C50.997 76.8776 51.478 75.7459 52.29 74.87L78.35 46.24C78.872 45.5608 79.6411 45.1152 80.49 45L106.33 43.13C106.588 43.1018 106.849 43.1292 107.096 43.2103C107.343 43.2913 107.569 43.4242 107.76 43.6C107.988 43.8232 108.163 44.0941 108.274 44.3933C108.385 44.6924 108.428 45.0123 108.4 45.33V46.65C108.379 47.0297 108.269 47.399 108.078 47.7276C107.887 48.0562 107.62 48.3346 107.3 48.54L53 80.52C52.7533 80.6703 52.4688 80.7466 52.18 80.74Z" fill="#0087CA"/>
<path fill-rule="evenodd" clip-rule="evenodd" d="M99.8 48.41L59.56 72.07L79.75 49.86L99.8 48.41Z" fill="white"/>
<path fill-rule="evenodd" clip-rule="evenodd" d="M80.18 50.73L64.18 68.27L96 49.59L80.18 50.73ZM59.56 73C59.4274 73.0012 59.2964 72.9721 59.1768 72.9149C59.0572 72.8577 58.9523 72.7739 58.87 72.67C58.7279 72.5063 58.6496 72.2968 58.6496 72.08C58.6496 71.8632 58.7279 71.6537 58.87 71.49L79.09 49.25C79.2523 49.078 79.474 48.9743 79.71 48.96L99.71 47.51C99.9112 47.4998 100.11 47.5559 100.276 47.6697C100.443 47.7835 100.567 47.9487 100.63 48.14C100.679 48.3286 100.666 48.528 100.592 48.7084C100.518 48.8887 100.387 49.0402 100.22 49.14L60 72.84C59.8702 72.9316 59.7183 72.9869 59.56 73Z" fill="#0087CA"/>
<path fill-rule="evenodd" clip-rule="evenodd" d="M107.05 44.23L56.11 14.82C55.9214 14.7032 55.7014 14.6473 55.48 14.66L29.64 16.53C29.3604 16.5642 29.0894 16.649 28.84 16.78L80 46.1C80.1877 46.0159 80.3863 45.9586 80.59 45.93L106.43 44.07C106.649 44.0539 106.866 44.1101 107.05 44.23Z" fill="#CBEAF5"/>
<path fill-rule="evenodd" clip-rule="evenodd" d="M31.55 17.3L80.08 45.11C80.2018 45.079 80.3254 45.0557 80.45 45.04L103.73 43.36L55.65 15.61L31.55 17.3ZM80 47C79.8483 47.0005 79.6995 46.959 79.57 46.88L28.41 17.57C28.2675 17.4914 28.1493 17.3753 28.0682 17.2342C27.9871 17.0932 27.9462 16.9326 27.95 16.77C27.9521 16.6061 27.9988 16.446 28.0851 16.3068C28.1715 16.1676 28.2942 16.0546 28.44 15.98C28.7688 15.791 29.1331 15.6719 29.51 15.63L55.4 13.75C55.7995 13.7272 56.1966 13.8247 56.54 14.03L107.54 43.45C107.642 43.508 107.732 43.5858 107.804 43.6787C107.876 43.7716 107.928 43.8778 107.959 43.9912C107.99 44.1046 107.998 44.223 107.982 44.3395C107.967 44.456 107.929 44.5683 107.87 44.67C107.754 44.8774 107.561 45.0312 107.333 45.0985C107.105 45.1658 106.86 45.1412 106.65 45.03L106.54 44.97L80.62 46.84L80.32 46.93C80.2199 46.9769 80.1106 47.0008 80 47Z" fill="#0087CA"/>
<path fill-rule="evenodd" clip-rule="evenodd" d="M40 26.3201C38.75 25.6101 38.67 24.3201 39.93 23.6401L40.93 23.1101C41.6325 22.7619 42.406 22.5808 43.19 22.5808C43.974 22.5808 44.7475 22.7619 45.45 23.1101C51.64 26.6801 62.71 33.0401 68.89 36.6101C69.1618 36.7035 69.3976 36.8795 69.5646 37.1135C69.7315 37.3474 69.8213 37.6276 69.8213 37.9151C69.8213 38.2025 69.7315 38.4827 69.5646 38.7167C69.3976 38.9506 69.1618 39.1266 68.89 39.2201L67.89 39.7501C67.1731 40.1098 66.3821 40.2972 65.58 40.2972C64.7779 40.2972 63.9869 40.1098 63.27 39.7501C55 35.0001 48.28 31.1001 40 26.3201Z" fill="#00CEF0"/>
<path fill-rule="evenodd" clip-rule="evenodd" d="M43.21 23.49C42.566 23.475 41.9279 23.6156 41.35 23.9L40.35 24.43C40.12 24.58 39.95 24.76 39.95 24.93C39.95 25.1 40.1 25.32 40.48 25.54L63.76 39C64.3368 39.2789 64.9693 39.4238 65.61 39.4238C66.2507 39.4238 66.8832 39.2789 67.46 39L68.46 38.45C68.82 38.25 68.94 38.04 68.94 37.94C68.94 37.84 68.79 37.61 68.46 37.41L45 23.89C44.4488 23.6118 43.8373 23.4744 43.22 23.49H43.21ZM65.62 41.2C64.6607 41.2195 63.7129 40.9886 62.87 40.53L39.56 27.11C39.1515 26.9039 38.8043 26.594 38.5533 26.2114C38.3023 25.8288 38.1563 25.3869 38.13 24.93C38.1472 24.4953 38.2818 24.0733 38.5195 23.7088C38.7572 23.3444 39.0891 23.0511 39.48 22.86L40.48 22.31C41.3175 21.888 42.2422 21.6682 43.18 21.6682C44.1178 21.6682 45.0425 21.888 45.88 22.31L69.32 35.81C69.7148 36.0046 70.0507 36.3008 70.2932 36.668C70.5357 37.0353 70.6761 37.4606 70.7 37.9C70.6792 38.3442 70.5378 38.7742 70.2912 39.1442C70.0446 39.5141 69.702 39.81 69.3 40L68.3 40.54C67.477 40.9834 66.5548 41.2105 65.62 41.2Z" fill="#0087CA"/>
<path fill-rule="evenodd" clip-rule="evenodd" d="M45.43 23.11C51.62 26.68 62.69 33.04 68.87 36.61C69.1418 36.7034 69.3776 36.8794 69.5446 37.1134C69.7115 37.3473 69.8013 37.6276 69.8013 37.915C69.8013 38.2024 69.7115 38.4826 69.5446 38.7166C69.3776 38.9505 69.1418 39.1265 68.87 39.22L67.87 39.75C67.1531 40.1098 66.3621 40.2971 65.56 40.2971C64.7579 40.2971 63.9669 40.1098 63.25 39.75C56.88 36.06 51.37 32.9 45.38 29.44L45.43 23.11Z" fill="#00CEF0"/>
<path fill-rule="evenodd" clip-rule="evenodd" d="M46.34 28.92L63.76 39C64.3368 39.2789 64.9693 39.4237 65.61 39.4237C66.2507 39.4237 66.8832 39.2789 67.46 39L68.46 38.45C68.82 38.25 68.94 38.0399 68.94 37.9399C68.94 37.8399 68.79 37.61 68.46 37.41L46.34 24.67V28.92ZM65.62 41.2C64.6607 41.2194 63.7129 40.9885 62.87 40.5299L45 30.2299C44.8609 30.1509 44.7457 30.0358 44.6665 29.8967C44.5873 29.7577 44.5471 29.5999 44.55 29.44V23.11C44.5499 22.9519 44.5914 22.7966 44.6704 22.6596C44.7494 22.5227 44.8631 22.409 45 22.33C45.1335 22.2466 45.2876 22.2024 45.445 22.2024C45.6024 22.2024 45.7565 22.2466 45.89 22.33L69.33 35.83C69.7248 36.0245 70.0607 36.3207 70.3032 36.688C70.5457 37.0552 70.6861 37.4805 70.71 37.9199C70.6847 38.3617 70.5402 38.7883 70.292 39.1545C70.0437 39.5207 69.7009 39.8129 69.3 40L68.3 40.54C67.477 40.9833 66.5548 41.2104 65.62 41.2Z" fill="#0087CA"/>
<path fill-rule="evenodd" clip-rule="evenodd" d="M45 3.26003C48.64 1.17003 50.66 -0.279969 55.51 2.26003C58.3771 3.83897 60.8517 6.04355 62.75 8.71003C68.46 16.46 70.38 27.56 64.59 31.08L62 32.58C68.78 28.29 64.5 16.12 60.24 10.32C57.08 6.12003 50.63 0.340031 45 3.26003Z" fill="#A6EDF8"/>
<path fill-rule="evenodd" clip-rule="evenodd" d="M50.42 1.84001C54.74 2.90001 58.74 6.84001 60.91 9.84001C64.32 14.46 67.23 22.05 66.19 27.61C66.1365 27.9136 66.0664 28.2141 65.98 28.51C66.4705 27.6871 66.8092 26.7827 66.98 25.84C67.89 21.19 65.9 14.53 61.98 9.28001C60.1972 6.69527 57.8518 4.54817 55.12 3.00001C53.7153 2.12323 52.0731 1.70395 50.42 1.80001V1.84001ZM62 33.49C61.844 33.4925 61.6902 33.4529 61.5547 33.3755C61.4193 33.2981 61.3071 33.1857 61.23 33.05C61.1087 32.8485 61.0701 32.6079 61.1223 32.3786C61.1745 32.1493 61.3134 31.9491 61.51 31.82C62.2995 31.3103 62.9698 30.6365 63.4754 29.8445C63.9811 29.0524 64.31 28.1607 64.44 27.23C65.39 22.23 62.6 15.07 59.5 10.86C56.72 7.07001 50.62 1.38001 45.5 4.06001C45.2882 4.16785 45.0429 4.18956 44.8155 4.12058C44.5881 4.05161 44.3962 3.89732 44.28 3.69001C44.1685 3.48263 44.1426 3.23979 44.2081 3.01358C44.2735 2.78737 44.425 2.59582 44.63 2.48001L45.12 2.19001C48.48 0.190012 50.94 -1.18999 55.99 1.43001C58.9841 3.06786 61.5661 5.36594 63.54 8.15001C67.72 13.8 69.83 21.02 68.82 26.15C68.6398 27.3084 68.216 28.4154 67.5764 29.398C66.9369 30.3805 66.0963 31.2163 65.11 31.85L62.46 33.39C62.3168 33.4595 62.1591 33.4938 62 33.49Z" fill="#0087CA"/>
<path fill-rule="evenodd" clip-rule="evenodd" d="M53.48 4.10001C60.09 7.91001 65.48 17.2 65.48 24.83C65.48 32.46 60.1 35.56 53.48 31.74C46.86 27.92 41.48 18.64 41.48 11.01C41.48 3.38001 46.88 0.280014 53.48 4.10001Z" fill="white"/>
<path fill-rule="evenodd" clip-rule="evenodd" d="M48.16 3.36005C47.2259 3.33385 46.3015 3.55462 45.48 4.00005C43.48 5.14005 42.41 7.62005 42.41 11C42.41 18.33 47.6 27.28 53.95 31C56.85 32.68 59.53 33 61.5 31.84C63.47 30.68 64.5 28.22 64.5 24.84C64.5 17.51 59.35 8.56005 53 4.89005C51.5296 3.96755 49.8443 3.44371 48.11 3.37005L48.16 3.36005ZM58.84 34.29C56.7889 34.2222 54.7919 33.6152 53.05 32.53C46.19 28.53 40.61 18.92 40.61 11.01C40.61 7.01005 42.04 3.95005 44.61 2.48005C47.18 1.01005 50.46 1.30005 54 3.31005C60.85 7.31005 66.41 16.92 66.41 24.83C66.41 28.83 65.01 31.89 62.41 33.37C61.3216 33.9853 60.0902 34.3026 58.84 34.29Z" fill="#0087CA"/>
<path fill-rule="evenodd" clip-rule="evenodd" d="M56.47 25.92C56.1145 25.9198 55.7669 25.8155 55.47 25.62C53.22 24.24 51.36 23.14 49.47 22.05C49.2665 21.9257 49.1199 21.7264 49.0618 21.4952C49.0036 21.2639 49.0386 21.019 49.1592 20.8133C49.2797 20.6075 49.4763 20.4573 49.7064 20.395C49.9366 20.3326 50.1821 20.3632 50.39 20.48C52.2 21.53 54.01 22.59 56.1 23.88V20.88C56.0293 20.4868 55.8199 20.132 55.51 19.88C54.62 19.38 53.73 18.88 52.84 18.29C51.95 17.7 51.25 17.29 50.54 16.92C50.085 16.6516 49.707 16.2703 49.4425 15.8131C49.178 15.3559 49.0359 14.8382 49.03 14.31V11.12C49.0198 10.8153 49.0902 10.5133 49.2342 10.2447C49.3782 9.97599 49.5906 9.75013 49.85 9.58996C50.1177 9.46469 50.4152 9.41703 50.7086 9.45239C51.0021 9.48774 51.2797 9.60469 51.51 9.78996C53.06 10.79 54.84 11.93 56.97 13.15C57.173 13.2728 57.3207 13.4694 57.3822 13.6986C57.4437 13.9278 57.4143 14.172 57.3 14.38C57.1751 14.5863 56.9749 14.7361 56.7417 14.7977C56.5085 14.8593 56.2605 14.8278 56.05 14.71C54.05 13.57 52.35 12.52 50.87 11.52V14.27C50.8765 14.4716 50.9328 14.6685 51.034 14.843C51.1353 15.0175 51.2782 15.1642 51.45 15.27C52.19 15.68 52.98 16.17 53.8 16.68C54.62 17.19 55.56 17.74 56.42 18.24C56.8744 18.5202 57.2549 18.9052 57.5299 19.3628C57.8048 19.8204 57.966 20.3372 58 20.87V24.25C58.0262 24.546 57.9689 24.8435 57.8345 25.1086C57.7002 25.3738 57.4942 25.596 57.24 25.75C57.0062 25.8826 56.7379 25.9418 56.47 25.92Z" fill="#0087CA"/>
<path fill-rule="evenodd" clip-rule="evenodd" d="M53.31 26.77C53.1906 26.7701 53.0723 26.7461 52.9623 26.6995C52.8524 26.6529 52.7529 26.5847 52.6698 26.4988C52.5868 26.413 52.5219 26.3113 52.4789 26.1998C52.436 26.0883 52.416 25.9694 52.42 25.85C52.42 24 52.42 22.17 52.42 20.34C52.42 16.71 52.49 13.12 52.42 9.47001C52.4173 9.35098 52.4383 9.23261 52.4818 9.12176C52.5252 9.0109 52.5901 8.90976 52.6729 8.82419C52.7557 8.73862 52.8546 8.67033 52.964 8.62327C53.0733 8.5762 53.191 8.5513 53.31 8.55001C53.4312 8.53816 53.5535 8.5528 53.6684 8.5929C53.7834 8.63301 53.8883 8.69763 53.9758 8.78229C54.0633 8.86694 54.1314 8.96961 54.1752 9.08318C54.2191 9.19675 54.2378 9.3185 54.23 9.44001C54.28 13.11 54.23 16.72 54.23 20.37C54.23 22.19 54.23 24.02 54.23 25.86C54.2224 26.1007 54.1227 26.3292 53.9515 26.4985C53.7803 26.6678 53.5507 26.765 53.31 26.77Z" fill="#0087CA"/>
</g>
<defs>
<clipPath id="clip0">
<rect width="111.48" height="114.15" fill="white"/>
</clipPath>
</defs>
</svg>
