<svg xmlns="http://www.w3.org/2000/svg" viewBox="0 0 113.48 113.48"><defs><style>.cls-1{fill:#0065f4;}</style></defs><title>04_Solução 360</title><g id="Layer_2" data-name="Layer 2"><g id="Layer_1-2" data-name="Layer 1"><path class="cls-1" d="M113.48,56.74A56.74,56.74,0,1,1,56.74,0,56.74,56.74,0,0,1,113.48,56.74Zm-21.66-24a3.43,3.43,0,0,0-5.63-2.47L81.3,34.36A33.17,33.17,0,0,0,23.54,54.25,33.18,33.18,0,0,0,77.76,82.09a6.37,6.37,0,0,0-.25-10,6.28,6.28,0,0,0-7.78.12,20.46,20.46,0,1,1,1.82-29.7l-4.8,4a3.43,3.43,0,0,0,1.43,6l20.89,4.8a3.1,3.1,0,0,0,3.79-3.18Z"/></g></g></svg>