<svg xmlns="http://www.w3.org/2000/svg" viewBox="0 0 130.2 130.2"><defs><style>.cls-1{fill:#0065f4;}</style></defs><title>Asset 1</title><g id="Layer_2" data-name="Layer 2"><g id="Layer_1-2" data-name="Layer 1"><path class="cls-1" d="M84.57,40.38,35.16,52.46a15.72,15.72,0,0,1-8.51,14l3.92,15.91a15.73,15.73,0,0,1,14,8.5L93.94,78.71a15.76,15.76,0,0,1,8.56-14L98.59,48.84A15.74,15.74,0,0,1,84.57,40.38ZM40.22,75a3.37,3.37,0,1,1,2.47-4.07A3.36,3.36,0,0,1,40.22,75Zm28.24,6.45a16.34,16.34,0,1,1,12-19.75A16.32,16.32,0,0,1,68.46,81.44ZM90.53,62.69A3.37,3.37,0,1,1,93,58.62,3.37,3.37,0,0,1,90.53,62.69Z"/><path class="cls-1" d="M65.28,63.07c-2.6-.4-2.88-.78-3-1.33-.18-.71.34-1.29,1.38-1.55a5.23,5.23,0,0,1,2.9.08l1.24.35.5-4.08-.89-.26A7.78,7.78,0,0,0,64.34,56l-.64-2.59L60,54.33l.69,2.83a5.28,5.28,0,0,0-2.67,6c.76,3.11,3.6,3.9,6.27,4.26,2.27.34,2.61,1,2.75,1.53.22.88-.43,1.64-1.64,1.94A6,6,0,0,1,62,70.68l-1.33-.48-.44,4.13.78.31a8.34,8.34,0,0,0,3.81.4l.66,2.69,3.78-.93-.71-2.91a5.59,5.59,0,0,0,2.79-6.24C70.52,64.27,67.67,63.43,65.28,63.07Z"/><path class="cls-1" d="M65.1,0a65.1,65.1,0,1,0,65.1,65.1A65.1,65.1,0,0,0,65.1,0Zm45.24,78.7a4.71,4.71,0,0,1-2.91,2.14l-3.73.91-8.35,2L45.63,96l-8.3,2-3.72.91a4.76,4.76,0,0,1-1.12.13,4.7,4.7,0,0,1-4.58-3.59L27,91.83h0l0-.11-2-8.29-.25-1L21.46,69.06h0l-.25-1-2-8.29-.05-.22L18.27,56a4.71,4.71,0,0,1,3.46-5.69l3.72-.91,8.3-2L83.47,35.21l8.35-2,.07,0,3.66-.89a4.68,4.68,0,0,1,5.69,3.45l.91,3.72v0h0l2,8.26L108,63.13l2,8.16h0l0,.13.91,3.72A4.72,4.72,0,0,1,110.34,78.7Z"/></g></g></svg>