<svg xmlns="http://www.w3.org/2000/svg" viewBox="0 0 130.2 130.2"><defs><style>.cls-1{fill:#0065f4;}</style></defs><title>Asset 5</title><g id="Layer_2" data-name="Layer 2"><g id="Layer_1-2" data-name="Layer 1"><path class="cls-1" d="M65.1,0a65.1,65.1,0,1,0,65.1,65.1A65.1,65.1,0,0,0,65.1,0ZM47.8,90.87H18.1v-6.5H47.8Zm0-9.39H18.1V75H47.8Zm0-9.38H18.1V65.6H47.8ZM18.1,63l24-22.35h30L48.08,63ZM88,40.65h27.16L90.37,63H64Zm27.16,28.2-24.75,22H64v-6.5H90.37L115.12,62Zm0-9.39-24.75,22H64V75H90.37L115.12,52.6ZM90.37,72.1H64V65.6H90.37l24.75-22.39v6.87Z"/></g></g></svg>