<svg xmlns="http://www.w3.org/2000/svg" viewBox="0 0 130.2 130.2"><defs><style>.cls-1{fill:#0065f4;}</style></defs><title>Asset 4</title><g id="Layer_2" data-name="Layer 2"><g id="Layer_1-2" data-name="Layer 1"><path class="cls-1" d="M65.1,0a65.1,65.1,0,1,0,65.1,65.1A65.1,65.1,0,0,0,65.1,0Zm35.08,88.41a6.43,6.43,0,0,1-6.42,6.42H38.9a6.42,6.42,0,0,1-6.41-6.42V42.25a6.41,6.41,0,0,1,6.41-6.41H89.24A6.39,6.39,0,0,1,95.5,41H40.76a2,2,0,0,0-2,1.69,1.88,1.88,0,0,0,1.86,2h53a6.51,6.51,0,0,1,6.52,6.51V61.4h-13A5.2,5.2,0,0,0,82,66.6v5.18a5.2,5.2,0,0,0,5.2,5.2h13Zm2.62-14.16H87.15a2.48,2.48,0,0,1-2.47-2.47V66.6a2.48,2.48,0,0,1,2.47-2.47H102.8Z"/></g></g></svg>