<svg width="499" height="83" viewBox="0 0 499 83" fill="none" xmlns="http://www.w3.org/2000/svg">
<g clip-path="url(#clip0)">
<path d="M416.466 34.3903C417.374 34.3823 418.272 34.5723 419.099 34.9471L419.759 32.2981C418.688 31.808 417.515 31.5815 416.339 31.6378H415.798C411.589 31.6378 408.216 34.438 408.216 39.5054C408.216 43.7534 410.69 46.9355 415.487 46.9355H416.028C417.242 46.9718 418.451 46.7551 419.576 46.2991L419.123 43.65C418.282 43.9788 417.385 44.1435 416.482 44.1353C413.705 44.1353 412.059 42.2579 412.059 39.2827C412.059 35.9733 413.992 34.3585 416.466 34.3585" fill="#182547"/>
<path d="M449.663 35.8218H445.995V46.7282H449.663V35.8218Z" fill="#182547"/>
<path d="M446.003 35.8218V46.7282H446.544V46.7362H449.663V35.8297H449.122V35.8218H446.003Z" fill="#182547"/>
<path d="M489.215 44.0874C489.06 44.1538 488.901 44.2096 488.738 44.2544C488.255 44.3614 487.761 44.4148 487.266 44.4135C485.747 44.4135 484.506 43.3555 484.506 41.3985C484.506 39.6325 485.556 38.3756 487.211 38.3756C487.876 38.3637 488.538 38.4687 489.168 38.6859L489.653 36.2357C488.888 35.9554 488.08 35.8126 487.266 35.8141H486.725C485.958 35.7655 485.189 35.8803 484.47 36.151C483.75 36.4216 483.096 36.8419 482.551 37.384C482.006 37.9261 481.582 38.5778 481.307 39.2959C481.033 40.014 480.914 40.7822 480.958 41.5497C480.958 44.9227 483.042 47.0626 486.288 47.0626H486.622H486.837C487.796 47.0939 488.75 46.9204 489.637 46.5535L489.263 44.0794H489.223" fill="#182547"/>
<path fill-rule="evenodd" clip-rule="evenodd" d="M456.894 41.8994V40.4914C456.9 40.2838 456.886 40.076 456.854 39.8709C456.787 39.4282 456.568 39.0228 456.234 38.7249C455.9 38.4271 455.472 38.2555 455.024 38.2401C453.584 38.2401 452.86 39.6084 452.86 41.3028C452.86 43.1404 453.704 44.286 455 44.286C455.444 44.2783 455.87 44.1146 456.205 43.8236C456.54 43.5326 456.761 43.133 456.83 42.6949C456.878 42.4326 456.899 42.1661 456.894 41.8994ZM460.633 46.76H458.564C458.269 46.7801 457.975 46.6977 457.733 46.5267C457.491 46.3558 457.316 46.1066 457.236 45.8213C457.122 45.9639 456.991 46.0921 456.846 46.2031C456.643 46.3717 456.422 46.5159 456.186 46.6327C455.368 47.0295 454.445 47.1522 453.553 46.9827C451.365 46.7441 449.67 44.5962 449.67 41.4698C449.67 38.3435 451.142 36.4263 453.051 35.9013C453.147 35.9013 453.25 35.8456 453.354 35.8297C454.173 35.6395 455.026 35.6586 455.836 35.8854C456.212 35.9908 456.566 36.1662 456.878 36.4025V30.7305H460.553C460.562 30.8523 460.562 30.9746 460.553 31.0964V43.5382C460.553 44.7473 460.553 46.0281 460.633 46.76ZM457.228 45.8292C457.108 45.9592 456.981 46.0814 456.846 46.1952C456.985 46.0858 457.113 45.9633 457.228 45.8292ZM456.846 46.1952C456.641 46.3608 456.42 46.5048 456.186 46.6248C456.422 46.5079 456.643 46.3637 456.846 46.1952Z" fill="#182547"/>
<path d="M429.783 35.8537H432.36C432.47 35.8534 432.579 35.8758 432.68 35.9197C432.781 35.9636 432.872 36.028 432.946 36.1087C433.021 36.1895 433.078 36.2849 433.114 36.3888C433.15 36.4928 433.164 36.6032 433.156 36.7129V36.864C433.457 36.5402 433.812 36.2711 434.206 36.0685L434.492 35.9492C434.676 35.8793 434.865 35.8235 435.057 35.7821C435.809 35.6011 436.595 35.6148 437.34 35.8219C437.565 35.8825 437.784 35.9651 437.992 36.0685C439.202 36.6969 439.989 38.0891 439.989 40.3563V46.7204H437.404C437.193 46.7204 436.99 46.6366 436.841 46.4874C436.692 46.3382 436.608 46.1358 436.608 45.9249V40.754C436.608 39.3619 436.155 38.4152 435.017 38.4152C434.654 38.4325 434.305 38.563 434.02 38.7884C433.735 39.0138 433.527 39.3228 433.426 39.6722C433.348 39.9433 433.313 40.2253 433.323 40.5074V46.7283H429.91V39.3858C429.91 38.0414 429.87 36.8242 429.83 35.8537" fill="#182547"/>
<path d="M470.736 35.8537H473.321C473.431 35.8534 473.54 35.8759 473.641 35.9198C473.742 35.9637 473.832 36.028 473.907 36.1088C473.982 36.1895 474.039 36.2849 474.075 36.3889C474.111 36.4929 474.125 36.6032 474.116 36.7129V36.864C474.416 36.5384 474.772 36.269 475.167 36.0685L475.445 35.9492C475.631 35.8792 475.823 35.8234 476.018 35.7821C476.767 35.6011 477.55 35.6148 478.293 35.8219C478.52 35.8825 478.742 35.9651 478.953 36.0685C480.162 36.697 480.942 38.0891 480.942 40.3563V46.7204H478.364C478.153 46.7204 477.951 46.6366 477.802 46.4874C477.653 46.3382 477.569 46.1359 477.569 45.9249V40.7541C477.569 39.3619 477.116 38.4153 475.978 38.4153C475.614 38.4314 475.265 38.5614 474.98 38.787C474.694 39.0126 474.487 39.3222 474.387 39.6722C474.308 39.9434 474.274 40.2253 474.284 40.5075V46.7283H470.823V39.3858C470.823 38.0414 470.783 36.8242 470.736 35.8537Z" fill="#182547"/>
<path fill-rule="evenodd" clip-rule="evenodd" d="M418.781 41.3669V41.3192C418.781 41.1839 418.781 41.0805 418.781 40.9771C418.765 40.0426 418.995 39.1203 419.448 38.3024C419.9 37.4844 420.559 36.7993 421.358 36.3154C421.689 36.1309 422.038 35.9815 422.4 35.8699C423.904 35.384 425.534 35.4748 426.975 36.1245C427.854 36.5676 428.59 37.2515 429.095 38.0966C429.601 38.9417 429.856 39.9131 429.83 40.8976C429.839 41.0274 429.839 41.1576 429.83 41.2874V41.3351C429.83 41.4624 429.83 41.5737 429.83 41.6692C429.848 42.5945 429.625 43.5086 429.183 44.3217C428.741 45.1348 428.095 45.8189 427.309 46.307C426.976 46.4961 426.624 46.6481 426.259 46.7605C424.754 47.2439 423.124 47.1503 421.684 46.498C420.805 46.0549 420.069 45.3709 419.564 44.5259C419.058 43.6808 418.803 42.7094 418.829 41.7249C418.829 41.5976 418.829 41.4624 418.829 41.3351L418.781 41.3669ZM424.397 44.5171C423.053 44.5171 422.337 43.125 422.337 41.2715C422.337 39.6804 422.909 38.0258 424.397 38.0258C425.885 38.0258 426.394 39.6645 426.394 41.2476C426.394 43.2125 425.598 44.5171 424.397 44.5171Z" fill="#182547"/>
<path d="M465.986 38.0174C464.658 38.0174 464.117 39.3061 464.029 40.1971H467.776C467.776 39.4016 467.442 37.9935 465.986 37.9776V38.0174ZM468.898 44.286L469.359 46.6169L469.113 46.6884L468.93 46.7282C467.363 47.1177 465.724 47.1177 464.157 46.7282C463.289 46.5012 462.5 46.0419 461.874 45.3997L461.73 45.2406C461.674 45.1788 461.624 45.1122 461.579 45.0417C460.826 43.9687 460.448 42.6765 460.505 41.3665C460.505 39.1868 461.508 36.84 463.687 35.965C463.813 35.9075 463.944 35.8596 464.077 35.8218C464.204 35.8218 464.332 35.7502 464.467 35.7263C465.413 35.4975 466.4 35.4975 467.347 35.7263L467.705 35.8297L468.015 35.9491L468.134 35.9968C470.004 36.8639 470.759 38.9879 470.759 41.0881C470.759 41.5355 470.724 41.9823 470.656 42.4245L464.053 42.3529C464.141 43.761 465.756 44.4451 467.235 44.461C467.803 44.4805 468.37 44.4216 468.922 44.286" fill="#182547"/>
<path d="M494.251 38.0098C492.922 38.0098 492.381 39.3224 492.294 40.2213H496.041C496.041 39.4258 495.707 38.0098 494.251 38.0098ZM497.162 44.2943L497.624 46.6172L497.377 46.6888L497.194 46.7365C495.631 47.1411 493.993 47.1602 492.421 46.7922C491.558 46.5793 490.772 46.1271 490.154 45.4876L490.011 45.3285C489.957 45.2676 489.906 45.2039 489.86 45.1375C489.088 44.0655 488.699 42.7658 488.754 41.4464C488.754 39.2667 489.756 36.912 491.936 36.013C492.058 35.9467 492.19 35.8985 492.326 35.8699L492.715 35.7585C493.662 35.5356 494.648 35.5356 495.595 35.7585L495.953 35.8619C496.059 35.8929 496.162 35.9301 496.263 35.9733L496.383 36.013C498.252 36.8642 499.008 38.9803 499.008 41.0804C499.007 41.5279 498.973 41.9747 498.905 42.4169H492.302C492.389 43.8249 494.004 44.4932 495.484 44.4932C496.052 44.5043 496.619 44.4401 497.17 44.3023" fill="#182547"/>
<path d="M440.832 38.328H440.252C440.034 38.3157 439.829 38.2192 439.68 38.059C439.532 37.8987 439.452 37.6872 439.456 37.4688V35.8778H440.832V35.8221V35.6949C440.816 34.6029 441.127 33.531 441.723 32.6162C442.305 31.8799 443.127 31.3728 444.046 31.1843C444.261 31.1345 444.479 31.1 444.699 31.0809C445.019 31.0531 445.341 31.0531 445.661 31.0809C446.3 31.1532 446.943 31.1904 447.586 31.1923H449.71V33.1094C449.706 33.1465 449.706 33.1838 449.71 33.2208C449.71 33.714 449.503 33.8811 449.344 33.9447C448.973 34.0351 448.586 34.0351 448.215 33.9447C447.303 33.7156 446.352 33.6911 445.43 33.8731C445.106 34.0419 444.842 34.3067 444.674 34.6314C444.506 34.956 444.442 35.3247 444.492 35.6869V35.8778H446.671L446.186 38.3837H444.508V46.7524H440.832V38.328Z" fill="#182547"/>
<path d="M479.454 53.6969C479.055 53.858 478.628 53.9365 478.197 53.9276C477.932 53.9461 477.665 53.9065 477.416 53.8116C477.167 53.7167 476.941 53.5688 476.755 53.378C476.569 53.1873 476.426 52.9584 476.338 52.7071C476.249 52.4559 476.216 52.1883 476.24 51.9229C476.232 51.4832 476.32 51.047 476.497 50.6445C476.674 50.242 476.937 49.8829 477.267 49.5921C477.779 49.1643 478.429 48.9355 479.096 48.9477C479.458 48.9282 479.819 49.008 480.138 49.1784L479.948 49.6557C479.65 49.5131 479.323 49.4448 478.993 49.4568C478.482 49.458 477.989 49.6478 477.609 49.9898C477.369 50.2331 477.181 50.5216 477.054 50.8384C476.927 51.1552 476.864 51.4941 476.869 51.8354C476.839 52.0411 476.855 52.2509 476.917 52.4494C476.978 52.648 477.083 52.8302 477.224 52.9828C477.366 53.1354 477.539 53.2544 477.732 53.3312C477.925 53.408 478.133 53.4405 478.341 53.4264C478.697 53.4349 479.051 53.3614 479.375 53.2116L479.454 53.6969Z" fill="#182547"/>
<path d="M482.199 53.8563C482.208 53.5554 482.234 53.2552 482.278 52.9574C482.173 53.2338 481.988 53.4731 481.748 53.6456C481.507 53.8181 481.222 53.9163 480.926 53.9279C480.783 53.9245 480.643 53.8913 480.514 53.8305C480.385 53.7696 480.269 53.6825 480.176 53.5747C480.082 53.4669 480.012 53.3408 479.97 53.2043C479.928 53.0679 479.915 52.9242 479.932 52.7824C479.919 52.4611 479.971 52.1404 480.085 51.8398C480.199 51.5391 480.373 51.2646 480.596 51.0328C480.819 50.801 481.086 50.6166 481.382 50.4908C481.678 50.3649 481.997 50.3001 482.318 50.3004C482.633 50.3015 482.946 50.3443 483.249 50.4277L482.891 52.2494C482.79 52.7736 482.742 53.3066 482.748 53.8404L482.199 53.8563ZM482.581 50.8254C482.447 50.7862 482.307 50.7701 482.167 50.7777C481.704 50.8296 481.279 51.0543 480.975 51.4069C480.671 51.7594 480.511 52.2138 480.528 52.679C480.528 53.0608 480.671 53.4745 481.125 53.4745C481.578 53.4745 482.207 52.8301 482.382 51.8835L482.581 50.8254ZM482.477 48.9321L482.97 49.9583H482.525L482.199 49.3219L481.69 49.9742H481.212L482.048 48.948L482.477 48.9321Z" fill="#182547"/>
<path d="M483.472 53.8563L483.933 51.3902C484.013 51.0084 484.06 50.6663 484.092 50.3799H484.585L484.49 51.0323C484.615 50.818 484.792 50.6386 485.005 50.5107C485.218 50.3829 485.459 50.3105 485.707 50.3004C485.918 50.3004 486.12 50.3842 486.27 50.5334C486.419 50.6826 486.503 50.8849 486.503 51.0959C486.625 50.8624 486.808 50.6656 487.031 50.5258C487.255 50.3861 487.512 50.3082 487.775 50.3004C487.895 50.2918 488.014 50.3102 488.125 50.3543C488.237 50.3983 488.336 50.4668 488.417 50.5547C488.498 50.6426 488.559 50.7476 488.593 50.862C488.628 50.9763 488.637 51.0971 488.619 51.2152C488.618 51.4127 488.599 51.6098 488.563 51.8039L488.173 53.8563H487.592L487.966 51.8516C488.001 51.7029 488.02 51.5509 488.022 51.3982C488.022 51.0323 487.879 50.7936 487.497 50.7936C487.115 50.7936 486.55 51.3027 486.407 52.0744L486.176 53.8563H485.604L485.993 51.8119C486.004 51.6715 486.004 51.5306 485.993 51.3902C485.993 51.0959 485.914 50.7936 485.476 50.7936C485.039 50.7936 484.506 51.3743 484.363 52.1062L484.044 53.8563H483.472Z" fill="#182547"/>
<path d="M490.655 48.7568L490.202 51.0161C490.329 50.8032 490.508 50.6259 490.722 50.5007C490.936 50.3755 491.179 50.3065 491.427 50.3001C492.182 50.3001 492.469 50.9365 492.469 51.5491C492.495 52.1503 492.283 52.7376 491.88 53.1842C491.477 53.6307 490.914 53.9006 490.313 53.9356C489.701 53.9356 489.247 53.689 489.247 53.0526C489.264 52.8661 489.301 52.6819 489.358 52.5037L490.098 48.7648L490.655 48.7568ZM489.907 52.5037C489.868 52.6487 489.852 52.7991 489.86 52.9492C489.86 53.2753 490.058 53.4583 490.424 53.4583C491.315 53.4583 491.864 52.3923 491.864 51.6127C491.864 51.1831 491.673 50.8172 491.204 50.8172C490.735 50.8172 490.154 51.3502 489.987 52.1696L489.907 52.5037Z" fill="#182547"/>
<path d="M492.747 53.8562L493.416 50.3799H494.004L493.336 53.8562H492.747ZM493.853 49.7912C493.806 49.7915 493.759 49.7817 493.715 49.7625C493.672 49.7433 493.633 49.7151 493.602 49.6797C493.57 49.6443 493.546 49.6026 493.532 49.5574C493.518 49.5121 493.513 49.4644 493.519 49.4173C493.521 49.3124 493.564 49.2124 493.638 49.1383C493.712 49.0641 493.812 49.0216 493.917 49.0195C493.965 49.0194 494.012 49.0292 494.056 49.0483C494.1 49.0673 494.14 49.0953 494.173 49.1303C494.206 49.1654 494.231 49.2069 494.247 49.2521C494.263 49.2974 494.27 49.3455 494.267 49.3934C494.267 49.4463 494.256 49.4987 494.236 49.5475C494.215 49.5963 494.185 49.6405 494.147 49.6775C494.11 49.7146 494.065 49.7437 494.016 49.7632C493.966 49.7827 493.914 49.7922 493.861 49.7912H493.853Z" fill="#182547"/>
<path d="M495.651 53.9278C495.465 53.9327 495.281 53.8987 495.11 53.8281C494.938 53.7574 494.783 53.6516 494.655 53.5174C494.527 53.3833 494.428 53.2238 494.365 53.0492C494.303 52.8746 494.277 52.6888 494.291 52.5038C494.256 51.9568 494.438 51.4181 494.799 51.0053C495.16 50.5925 495.669 50.339 496.216 50.3002C496.4 50.2955 496.583 50.3291 496.753 50.3988C496.923 50.4685 497.078 50.5729 497.205 50.7052C497.333 50.8376 497.432 50.9952 497.496 51.1678C497.56 51.3405 497.587 51.5246 497.576 51.7083C497.607 52.2514 497.423 52.7849 497.065 53.194C496.706 53.6031 496.201 53.8551 495.659 53.8959L495.651 53.9278ZM495.73 53.4584C496.431 53.4584 496.964 52.5515 496.964 51.7401C496.978 51.6241 496.968 51.5064 496.936 51.3942C496.903 51.2819 496.848 51.1776 496.773 51.0875C496.699 50.9974 496.607 50.9234 496.503 50.8701C496.398 50.8168 496.285 50.7853 496.168 50.7776C495.404 50.7776 494.927 51.7083 494.927 52.5038C494.927 53.0766 495.245 53.4823 495.723 53.4823L495.73 53.4584Z" fill="#182547"/>
<path d="M379.785 59.7986H255.996C255.615 59.7997 255.237 59.7255 254.885 59.5805C254.533 59.4354 254.213 59.2223 253.943 58.9533C253.673 58.6843 253.459 58.3648 253.313 58.0129C253.167 57.6611 253.092 57.2839 253.092 56.903V25.178C253.091 24.7964 253.165 24.4184 253.311 24.0656C253.456 23.7129 253.67 23.3924 253.94 23.1225C254.21 22.8527 254.531 22.6389 254.883 22.4933C255.236 22.3478 255.614 22.2734 255.996 22.2744H379.785C380.167 22.2734 380.545 22.3478 380.897 22.4933C381.25 22.6389 381.571 22.8527 381.84 23.1225C382.11 23.3924 382.324 23.7129 382.47 24.0656C382.615 24.4184 382.69 24.7964 382.689 25.178V56.903C382.689 57.2839 382.613 57.6611 382.467 58.0129C382.321 58.3648 382.107 58.6843 381.838 58.9533C381.568 59.2223 381.248 59.4354 380.895 59.5805C380.543 59.7255 380.166 59.7997 379.785 59.7986Z" fill="white"/>
<path d="M343.947 58.0726H256.027C255.715 58.0726 255.416 57.9485 255.195 57.7277C254.974 57.5069 254.85 57.2075 254.85 56.8952V25.2101C254.85 24.8978 254.974 24.5984 255.195 24.3776C255.416 24.1568 255.715 24.0327 256.027 24.0327H343.947C344.259 24.0327 344.559 24.1568 344.78 24.3776C345.001 24.5984 345.125 24.8978 345.125 25.2101V56.8714C345.128 57.028 345.1 57.1836 345.042 57.3292C344.984 57.4749 344.898 57.6075 344.788 57.7193C344.679 57.8312 344.548 57.9201 344.403 57.9807C344.259 58.0414 344.104 58.0726 343.947 58.0726Z" fill="#182547"/>
<path d="M379.761 58.0726H348.1C347.79 58.0622 347.497 57.9303 347.284 57.7054C347.072 57.4806 346.956 57.1809 346.962 56.8714V25.2101C346.962 24.8978 347.086 24.5984 347.307 24.3776C347.528 24.1568 347.827 24.0327 348.14 24.0327H379.801C380.113 24.0327 380.413 24.1568 380.633 24.3776C380.854 24.5984 380.978 24.8978 380.978 25.2101V56.8714C380.982 57.0314 380.952 57.1904 380.892 57.3387C380.832 57.487 380.742 57.6215 380.628 57.7339C380.514 57.8463 380.379 57.9343 380.229 57.9926C380.08 58.0508 379.921 58.078 379.761 58.0726Z" fill="#DD343A"/>
<path d="M293.91 44.1508V53.2833H292.08V44.1508H288.93V42.52H297.068V44.1508H293.91Z" fill="white"/>
<path d="M311.355 53.2832H309.605L306.622 45.71H308.499L310.504 51.2626L312.509 45.71H314.322L311.355 53.2832Z" fill="white"/>
<path d="M324.227 42.4644H322.468V53.2833H324.227V42.4644Z" fill="white"/>
<path d="M338.339 53.2832L336.446 50.5467L334.536 53.2832H332.548L335.435 49.4329L332.659 45.71H334.727L336.509 48.2874L338.323 45.71H340.328L337.519 49.417L340.407 53.2832H338.339Z" fill="white"/>
<path d="M299.311 45.6622C298.637 45.6669 297.989 45.9253 297.497 46.3861V45.702H295.978V53.2991H297.736V49.9898C297.691 49.3275 297.747 48.6622 297.903 48.0169C298.086 47.5237 298.357 47.1418 299.733 47.0305L299.908 45.6304C299.908 45.6304 299.725 45.6304 299.311 45.6304" fill="white"/>
<path d="M302.62 51.963C301.427 51.963 301.149 51.605 301.149 50.9527C301.149 50.1572 301.491 49.9583 302.557 49.9583H304.593C304.593 51.2789 304.426 51.963 302.62 51.963ZM303.058 45.5989C302.37 45.5749 301.681 45.6069 300.998 45.6944L300.823 47.0229C301.857 46.9672 302.891 47.0229 302.955 47.0229C304.466 47.0865 304.498 47.6195 304.546 48.5503H302.62C301.029 48.5503 299.391 48.7969 299.391 51.0004C299.391 52.846 300.544 53.387 302.342 53.387C303.202 53.4356 304.05 53.1698 304.729 52.6392V53.2995H306.32V48.3434C306.32 46.3865 305.134 45.6546 303.138 45.583" fill="white"/>
<path d="M317.918 47.0229C319.549 47.0229 319.644 47.6513 319.644 48.7332H316.232C316.232 47.7229 316.383 47.0229 317.918 47.0229ZM317.918 51.9869C316.725 51.9471 316.327 51.5175 316.24 50.7618C316.24 50.7618 316.24 50.6981 316.24 50.6584V50.6027C316.231 50.4569 316.231 50.3109 316.24 50.1651H321.418C321.418 47.5241 321.267 45.583 317.958 45.583C314.919 45.583 314.482 47.3252 314.482 49.5606C314.435 50.378 314.58 51.195 314.903 51.9471C315.357 52.9256 316.383 53.3551 317.855 53.3631H318.014C319.08 53.3631 320.265 53.2835 320.869 53.2119L321.068 51.8118C320.034 51.8675 319.127 51.9789 317.95 51.9391" fill="white"/>
<path d="M328.761 47.0229C330.352 47.0229 330.487 47.6513 330.487 48.7332H327.074C327.074 47.7229 327.226 47.0229 328.761 47.0229ZM328.761 51.9869C327.568 51.9471 327.17 51.5175 327.082 50.7618C327.082 50.7618 327.082 50.6981 327.082 50.6584V50.6027C327.074 50.4569 327.074 50.3109 327.082 50.1651H332.261C332.261 47.5241 332.11 45.583 328.801 45.583C325.762 45.583 325.324 47.3252 325.324 49.5606C325.278 50.378 325.422 51.195 325.746 51.9471C326.199 52.9256 327.226 53.3551 328.697 53.3631H328.856C329.922 53.3631 331.108 53.2835 331.712 53.2119L331.848 51.8596C330.813 51.9153 329.906 52.0266 328.729 51.9869" fill="white"/>
</g>
<g clip-path="url(#clip1)">
<path d="M86.2672 82.375H1.1719C0.892921 82.375 0.625364 82.2642 0.428092 82.0669C0.230821 81.8697 0.119995 81.6021 0.119995 81.3231L0.119995 1.05191C0.119995 0.772926 0.230821 0.505368 0.428092 0.308097C0.625364 0.110826 0.892921 0 1.1719 0L86.2672 0C86.5462 0 86.8137 0.110826 87.011 0.308097C87.2083 0.505368 87.3191 0.772926 87.3191 1.05191V81.3231C87.3191 81.6021 87.2083 81.8697 87.011 82.0669C86.8137 82.2642 86.5462 82.375 86.2672 82.375ZM2.22381 80.2712H85.2153V2.10382H2.22381V80.2712Z" fill="url(#paint0_linear)"/>
<path d="M10.6791 51.1586V31.1871H19.5698C23.0432 31.1871 25.1702 33.2909 25.1702 36.2783C25.1702 38.7924 23.4871 40.4691 21.6673 40.8583C23.7922 41.1886 25.5594 43.3829 25.5594 45.7686C25.5594 48.9728 23.4324 51.1586 19.7802 51.1586H10.6791ZM22.5951 36.6423C22.5951 34.8477 21.3959 33.4087 19.1512 33.4087H13.1637V39.8464H19.1512C21.3959 39.8401 22.5951 38.4642 22.5951 36.636V36.6423ZM22.9843 45.5057C22.9843 43.6796 21.722 42.0617 19.3005 42.0617H13.1637V48.9496H19.3005C21.6063 48.9433 22.9843 47.6263 22.9843 45.4994V45.5057ZM29.9269 51.1649V31.1871H32.4115V48.9433H41.6936V51.1586L29.9269 51.1649ZM44.9566 43.4103V31.1871H47.4812V43.3387C47.4812 46.9931 49.4272 49.2967 53.1089 49.2967C56.7906 49.2967 58.7682 46.9825 58.7682 43.3387V31.1871H61.2927V43.3745C61.2927 48.3437 58.5367 51.5184 53.1173 51.5184C47.7168 51.5184 44.9608 48.3143 44.9608 43.404L44.9566 43.4103ZM66.6954 51.1649V31.1871H79.779V33.4024H69.1842V39.8401H79.5728V42.0554H69.1842V48.9433H79.7832V51.1586L66.6954 51.1649ZM91.7855 51.1649V31.1871H100.683C104.156 31.1871 106.281 33.2909 106.281 36.2783C106.281 38.7924 104.598 40.4691 102.778 40.8583C104.903 41.1886 106.67 43.3829 106.67 45.7686C106.67 48.9728 104.545 51.1586 100.891 51.1586L91.7855 51.1649ZM103.702 36.6486C103.702 34.854 102.504 33.415 100.26 33.415H94.2743V39.8527H100.262C102.509 39.8401 103.706 38.4642 103.706 36.636L103.702 36.6486ZM104.091 45.512C104.091 43.6859 102.828 42.068 100.409 42.068H94.2743V48.9559H100.413C102.719 48.9433 104.095 47.6263 104.095 45.4994L104.091 45.512ZM110.57 41.1886C110.57 35.2979 114.585 30.8589 120.482 30.8589C126.379 30.8589 130.422 35.2895 130.422 41.1886C130.422 47.0877 126.381 51.5184 120.482 51.5184C114.582 51.5184 110.57 47.0856 110.57 41.1886ZM127.847 41.1886C127.847 36.5182 124.944 33.0742 120.484 33.0742C116.024 33.0742 113.148 36.5182 113.148 41.1886C113.148 45.8591 115.992 49.301 120.484 49.301C124.975 49.301 127.839 45.8297 127.839 41.1886H127.847ZM147.939 51.1586L141.562 42.655L135.185 51.1586H132.151L139.936 40.9193L132.6 31.1871H135.625L141.553 39.1521L147.444 31.1871H150.499L143.18 40.8878L150.964 51.1586H147.939Z" fill="url(#paint1_linear)"/>
</g>
<line opacity="0.3" x1="202.679" y1="21.479" x2="202.679" y2="61.2545" stroke="#272626"/>
<defs>
<linearGradient id="paint0_linear" x1="0.119995" y1="41.1886" x2="87.3191" y2="41.1886" gradientUnits="userSpaceOnUse">
<stop stop-color="#2B2D6E"/>
<stop offset="0.5" stop-color="#3D61AC"/>
<stop offset="1" stop-color="#1751A0"/>
</linearGradient>
<linearGradient id="paint1_linear" x1="10.6791" y1="41.1886" x2="150.955" y2="41.1886" gradientUnits="userSpaceOnUse">
<stop stop-color="#3D75BA"/>
<stop offset="1" stop-color="#2A3376"/>
</linearGradient>
<clipPath id="clip0">
<rect width="245.908" height="37.5242" fill="white" transform="translate(253.092 22.2744)"/>
</clipPath>
<clipPath id="clip1">
<rect width="150.835" height="82.375" fill="white" transform="translate(0.119995)"/>
</clipPath>
</defs>
</svg>
