<svg width="310" height="48" viewBox="0 0 310 48" fill="none" xmlns="http://www.w3.org/2000/svg">
<path d="M205.37 15.23C206.511 15.22 207.641 15.4588 208.68 15.93L209.51 12.6C208.164 11.9839 206.689 11.6992 205.21 11.77H204.53C199.24 11.77 195 15.29 195 21.66C195 27 198.11 31 204.14 31H204.82C206.346 31.0457 207.865 30.7733 209.28 30.2L208.71 26.87C207.652 27.2832 206.525 27.4903 205.39 27.48C201.9 27.48 199.83 25.12 199.83 21.38C199.83 17.22 202.26 15.19 205.37 15.19" fill="white"/>
<path d="M247.1 17.03H242.49V30.74H247.1V17.03Z" fill="white"/>
<path d="M242.5 17.03V30.74H243.18V30.75H247.1V17.04H246.42V17.03H242.5Z" fill="white"/>
<path d="M296.82 27.42C296.625 27.5035 296.425 27.5737 296.22 27.63C295.613 27.7645 294.992 27.8315 294.37 27.83C292.46 27.83 290.9 26.5 290.9 24.04C290.9 21.82 292.22 20.24 294.3 20.24C295.136 20.2251 295.969 20.3571 296.76 20.63L297.37 17.55C296.409 17.1976 295.393 17.0182 294.37 17.02H293.69C292.725 16.9589 291.759 17.1033 290.854 17.4435C289.95 17.7837 289.128 18.312 288.442 18.9935C287.757 19.675 287.224 20.4941 286.879 21.3968C286.534 22.2995 286.384 23.2651 286.44 24.23C286.44 28.47 289.06 31.16 293.14 31.16H293.56H293.83C295.035 31.1994 296.236 30.9812 297.35 30.52L296.88 27.41H296.83" fill="white"/>
<path fill-rule="evenodd" clip-rule="evenodd" d="M256.19 24.67V22.9C256.197 22.639 256.181 22.3779 256.14 22.12C256.056 21.5635 255.78 21.0539 255.36 20.6795C254.94 20.305 254.402 20.0894 253.84 20.07C252.03 20.07 251.12 21.79 251.12 23.92C251.12 26.23 252.18 27.67 253.81 27.67C254.367 27.6604 254.903 27.4546 255.324 27.0888C255.745 26.723 256.023 26.2206 256.11 25.67C256.17 25.3402 256.197 25.0052 256.19 24.67ZM260.89 30.78H258.29C257.918 30.8053 257.549 30.7017 257.245 30.4868C256.941 30.2719 256.72 29.9587 256.62 29.6C256.477 29.7792 256.312 29.9404 256.13 30.08C255.875 30.2919 255.597 30.4731 255.3 30.62C254.273 31.1188 253.112 31.2731 251.99 31.06C249.24 30.76 247.11 28.06 247.11 24.13C247.11 20.2 248.96 17.79 251.36 17.13C251.48 17.13 251.61 17.06 251.74 17.04C252.769 16.8009 253.842 16.8249 254.86 17.11C255.334 17.2426 255.778 17.4631 256.17 17.76V10.63H260.79C260.801 10.7831 260.801 10.9369 260.79 11.09V26.73C260.79 28.25 260.79 29.86 260.89 30.78ZM256.61 29.61C256.46 29.7734 256.3 29.927 256.13 30.07C256.304 29.9325 256.465 29.7785 256.61 29.61ZM256.13 30.07C255.873 30.2783 255.595 30.4592 255.3 30.61C255.597 30.4631 255.875 30.2819 256.13 30.07Z" fill="white"/>
<path d="M222.11 17.07H225.35C225.488 17.0695 225.625 17.0978 225.752 17.153C225.879 17.2082 225.993 17.2891 226.087 17.3906C226.181 17.4921 226.253 17.612 226.298 17.7427C226.343 17.8734 226.361 18.0121 226.35 18.15V18.34C226.729 17.933 227.176 17.5947 227.67 17.34L228.03 17.19C228.261 17.1022 228.498 17.032 228.74 16.98C229.685 16.7524 230.673 16.7697 231.61 17.03C231.893 17.1062 232.167 17.21 232.43 17.34C233.95 18.13 234.94 19.88 234.94 22.73V30.73H231.69C231.425 30.73 231.17 30.6246 230.983 30.4371C230.795 30.2496 230.69 29.9952 230.69 29.73V23.23C230.69 21.48 230.12 20.29 228.69 20.29C228.233 20.3117 227.795 20.4757 227.436 20.7591C227.078 21.0424 226.817 21.4309 226.69 21.87C226.591 22.2109 226.547 22.5653 226.56 22.92V30.74H222.27V21.51C222.27 19.82 222.22 18.29 222.17 17.07" fill="white"/>
<path d="M273.59 17.07H276.84C276.978 17.0696 277.115 17.0978 277.242 17.153C277.369 17.2082 277.483 17.2891 277.577 17.3906C277.671 17.4921 277.743 17.612 277.788 17.7427C277.833 17.8734 277.851 18.0121 277.84 18.15V18.34C278.217 17.9307 278.664 17.5921 279.16 17.34L279.51 17.19C279.744 17.1021 279.985 17.0319 280.23 16.98C281.172 16.7524 282.157 16.7696 283.09 17.03C283.376 17.1062 283.654 17.21 283.92 17.34C285.44 18.13 286.42 19.88 286.42 22.73V30.73H283.18C282.915 30.73 282.66 30.6247 282.473 30.4371C282.285 30.2496 282.18 29.9952 282.18 29.73V23.23C282.18 21.48 281.61 20.29 280.18 20.29C279.723 20.3103 279.284 20.4737 278.925 20.7573C278.566 21.0408 278.305 21.4301 278.18 21.87C278.081 22.2109 278.037 22.5653 278.05 22.92V30.74H273.7V21.51C273.7 19.82 273.65 18.29 273.59 17.07Z" fill="white"/>
<path fill-rule="evenodd" clip-rule="evenodd" d="M208.28 24V23.94C208.28 23.77 208.28 23.64 208.28 23.51C208.261 22.3352 208.55 21.1759 209.118 20.1477C209.687 19.1195 210.515 18.2583 211.52 17.65C211.936 17.418 212.375 17.2303 212.83 17.09C214.72 16.4792 216.769 16.5932 218.58 17.41C219.686 17.9669 220.61 18.8267 221.246 19.889C221.881 20.9513 222.202 22.1724 222.17 23.41C222.18 23.5731 222.18 23.7368 222.17 23.9V23.96C222.17 24.12 222.17 24.26 222.17 24.38C222.192 25.5432 221.912 26.6922 221.356 27.7143C220.8 28.7364 219.988 29.5964 219 30.21C218.582 30.4476 218.139 30.6388 217.68 30.78C215.789 31.3877 213.739 31.27 211.93 30.45C210.824 29.893 209.9 29.0333 209.264 27.971C208.629 26.9086 208.308 25.6875 208.34 24.45C208.34 24.29 208.34 24.12 208.34 23.96L208.28 24ZM215.34 27.96C213.65 27.96 212.75 26.21 212.75 23.88C212.75 21.88 213.47 19.8 215.34 19.8C217.21 19.8 217.85 21.86 217.85 23.85C217.85 26.32 216.85 27.96 215.34 27.96Z" fill="white"/>
<path d="M267.62 19.79C265.95 19.79 265.27 21.41 265.16 22.53H269.87C269.87 21.53 269.45 19.76 267.62 19.74V19.79ZM271.28 27.67L271.86 30.6L271.55 30.69L271.32 30.74C269.35 31.2295 267.29 31.2295 265.32 30.74C264.229 30.4546 263.237 29.8772 262.45 29.07L262.27 28.87C262.2 28.7922 262.136 28.7086 262.08 28.62C261.133 27.2711 260.658 25.6467 260.73 24C260.73 21.26 261.99 18.31 264.73 17.21C264.889 17.1377 265.052 17.0775 265.22 17.03C265.38 17.03 265.54 16.94 265.71 16.91C266.9 16.6223 268.14 16.6223 269.33 16.91L269.78 17.04L270.17 17.19L270.32 17.25C272.67 18.34 273.62 21.01 273.62 23.65C273.619 24.2125 273.576 24.7741 273.49 25.33L265.19 25.24C265.3 27.01 267.33 27.87 269.19 27.89C269.903 27.9145 270.617 27.8405 271.31 27.67" fill="white"/>
<path d="M303.15 19.78C301.48 19.78 300.8 21.43 300.69 22.56H305.4C305.4 21.56 304.98 19.78 303.15 19.78ZM306.81 27.68L307.39 30.6L307.08 30.69L306.85 30.75C304.885 31.2586 302.826 31.2826 300.85 30.82C299.765 30.5524 298.777 29.984 298 29.18L297.82 28.98C297.752 28.9035 297.689 28.8234 297.63 28.74C296.661 27.3924 296.171 25.7586 296.24 24.1C296.24 21.36 297.5 18.4 300.24 17.27C300.394 17.1866 300.559 17.126 300.73 17.09L301.22 16.95C302.41 16.6698 303.65 16.6698 304.84 16.95L305.29 17.08C305.423 17.119 305.553 17.1658 305.68 17.22L305.83 17.27C308.18 18.34 309.13 21 309.13 23.64C309.129 24.2025 309.086 24.7641 309 25.32H300.7C300.81 27.09 302.84 27.93 304.7 27.93C305.414 27.944 306.127 27.8633 306.82 27.69" fill="white"/>
<path d="M236 20.18H235.27C234.996 20.1645 234.738 20.0433 234.552 19.8419C234.365 19.6404 234.264 19.3745 234.27 19.1V17.1H236V17.03V16.87C235.98 15.4973 236.37 14.1499 237.12 13C237.851 12.0745 238.885 11.4369 240.04 11.2C240.31 11.1374 240.584 11.094 240.86 11.07C241.263 11.0351 241.667 11.0351 242.07 11.07C242.873 11.1609 243.681 11.2076 244.49 11.21H247.16V13.62C247.155 13.6666 247.155 13.7135 247.16 13.76C247.16 14.38 246.9 14.59 246.7 14.67C246.233 14.7837 245.747 14.7837 245.28 14.67C244.134 14.382 242.939 14.3512 241.78 14.58C241.372 14.7922 241.04 15.1251 240.829 15.5332C240.618 15.9413 240.538 16.4047 240.6 16.86V17.1H243.34L242.73 20.25H240.62V30.77H236V20.18Z" fill="white"/>
<path d="M284.55 39.5C284.048 39.7025 283.511 39.8012 282.97 39.79C282.636 39.8132 282.301 39.7634 281.987 39.6442C281.674 39.5249 281.391 39.3389 281.157 39.0992C280.923 38.8594 280.744 38.5716 280.632 38.2558C280.52 37.9399 280.479 37.6036 280.51 37.27C280.5 36.7173 280.61 36.1689 280.832 35.6629C281.055 35.157 281.385 34.7055 281.8 34.34C282.444 33.8022 283.261 33.5147 284.1 33.53C284.555 33.5055 285.008 33.6058 285.41 33.82L285.17 34.42C284.796 34.2407 284.384 34.1549 283.97 34.17C283.327 34.1715 282.708 34.41 282.23 34.84C281.929 35.1459 281.692 35.5084 281.532 35.9067C281.373 36.305 281.294 36.731 281.3 37.16C281.262 37.4185 281.283 37.6822 281.36 37.9318C281.437 38.1814 281.569 38.4105 281.747 38.6023C281.924 38.7941 282.142 38.9438 282.385 39.0403C282.628 39.1368 282.889 39.1777 283.15 39.16C283.598 39.1707 284.043 39.0783 284.45 38.89L284.55 39.5Z" fill="white"/>
<path d="M288 39.7C288.011 39.3217 288.045 38.9444 288.1 38.57C287.967 38.9174 287.735 39.2182 287.433 39.4351C287.131 39.652 286.772 39.7754 286.4 39.79C286.221 39.7857 286.044 39.7439 285.882 39.6675C285.719 39.591 285.575 39.4816 285.457 39.346C285.339 39.2105 285.251 39.0519 285.198 38.8804C285.146 38.7089 285.129 38.5283 285.15 38.35C285.134 37.9461 285.199 37.543 285.343 37.1651C285.486 36.7871 285.705 36.4421 285.985 36.1507C286.265 35.8593 286.602 35.6275 286.974 35.4693C287.346 35.3111 287.746 35.2297 288.15 35.23C288.545 35.2314 288.939 35.2852 289.32 35.39L288.87 37.68C288.743 38.339 288.683 39.009 288.69 39.68L288 39.7ZM288.48 35.89C288.311 35.8407 288.135 35.8204 287.96 35.83C287.379 35.8952 286.843 36.1777 286.461 36.6209C286.079 37.0641 285.879 37.6353 285.9 38.22C285.9 38.7 286.08 39.22 286.65 39.22C287.22 39.22 288.01 38.41 288.23 37.22L288.48 35.89ZM288.35 33.51L288.97 34.8H288.41L288 34L287.36 34.82H286.76L287.81 33.53L288.35 33.51Z" fill="white"/>
<path d="M289.6 39.7L290.18 36.6C290.28 36.12 290.34 35.69 290.38 35.33H291L290.88 36.15C291.037 35.8806 291.26 35.6552 291.527 35.4944C291.795 35.3337 292.098 35.2427 292.41 35.23C292.675 35.23 292.93 35.3353 293.117 35.5229C293.305 35.7104 293.41 35.9648 293.41 36.23C293.564 35.9364 293.793 35.6891 294.075 35.5134C294.356 35.3377 294.679 35.2399 295.01 35.23C295.16 35.2192 295.31 35.2424 295.45 35.2977C295.59 35.3531 295.715 35.4392 295.817 35.5497C295.919 35.6602 295.994 35.7922 296.038 35.9359C296.082 36.0797 296.093 36.2315 296.07 36.38C296.069 36.6283 296.046 36.876 296 37.12L295.51 39.7H294.78L295.25 37.18C295.294 36.993 295.317 36.8019 295.32 36.61C295.32 36.15 295.14 35.85 294.66 35.85C294.18 35.85 293.47 36.49 293.29 37.46L293 39.7H292.28L292.77 37.13C292.784 36.9536 292.784 36.7764 292.77 36.6C292.77 36.23 292.67 35.85 292.12 35.85C291.57 35.85 290.9 36.58 290.72 37.5L290.32 39.7H289.6Z" fill="white"/>
<path d="M298.63 33.29L298.06 36.13C298.22 35.8624 298.445 35.6395 298.714 35.4822C298.984 35.3248 299.288 35.2381 299.6 35.23C300.55 35.23 300.91 36.03 300.91 36.8C300.943 37.5558 300.677 38.2941 300.17 38.8555C299.663 39.4168 298.955 39.7561 298.2 39.8C297.43 39.8 296.86 39.49 296.86 38.69C296.881 38.4556 296.928 38.2241 297 38L297.93 33.3L298.63 33.29ZM297.69 38C297.64 38.1823 297.62 38.3714 297.63 38.56C297.63 38.97 297.88 39.2 298.34 39.2C299.46 39.2 300.15 37.86 300.15 36.88C300.15 36.34 299.91 35.88 299.32 35.88C298.73 35.88 298 36.55 297.79 37.58L297.69 38Z" fill="white"/>
<path d="M301.26 39.7L302.1 35.33H302.84L302 39.7H301.26ZM302.65 34.59C302.59 34.5904 302.531 34.5781 302.477 34.554C302.422 34.5298 302.374 34.4943 302.334 34.4499C302.294 34.4054 302.264 34.353 302.246 34.2961C302.228 34.2392 302.223 34.1792 302.23 34.12C302.233 33.9882 302.286 33.8625 302.379 33.7693C302.472 33.6761 302.598 33.6226 302.73 33.62C302.79 33.6199 302.85 33.6321 302.906 33.6561C302.961 33.6801 303.011 33.7152 303.052 33.7593C303.094 33.8034 303.125 33.8555 303.146 33.9124C303.166 33.9693 303.174 34.0297 303.17 34.09C303.17 34.1565 303.157 34.2224 303.131 34.2837C303.105 34.345 303.068 34.4006 303.02 34.4471C302.973 34.4937 302.916 34.5303 302.854 34.5548C302.793 34.5794 302.727 34.5913 302.66 34.59H302.65Z" fill="white"/>
<path d="M304.91 39.79C304.677 39.7962 304.445 39.7535 304.229 39.6647C304.014 39.5759 303.819 39.4428 303.658 39.2742C303.497 39.1056 303.373 38.9051 303.294 38.6856C303.215 38.4662 303.183 38.2326 303.2 38C303.156 37.3124 303.386 36.6352 303.839 36.1163C304.293 35.5974 304.933 35.2788 305.62 35.23C305.851 35.2241 306.081 35.2663 306.296 35.3539C306.51 35.4415 306.703 35.5727 306.864 35.7392C307.025 35.9056 307.149 36.1036 307.23 36.3207C307.31 36.5377 307.344 36.7691 307.33 37C307.369 37.6828 307.138 38.3534 306.687 38.8676C306.236 39.3819 305.602 39.6987 304.92 39.75L304.91 39.79ZM305.01 39.2C305.89 39.2 306.56 38.06 306.56 37.04C306.578 36.8942 306.566 36.7462 306.525 36.6052C306.484 36.4641 306.414 36.3329 306.321 36.2196C306.227 36.1064 306.111 36.0134 305.981 35.9464C305.85 35.8794 305.707 35.8398 305.56 35.83C304.6 35.83 304 37 304 38C304 38.72 304.4 39.23 305 39.23L305.01 39.2Z" fill="white"/>
<path d="M159.26 47.17H3.65001C3.17116 47.1713 2.69675 47.0782 2.25397 46.8958C1.81119 46.7135 1.40874 46.4456 1.06968 46.1074C0.730613 45.7693 0.461598 45.3676 0.278046 44.9253C0.0944937 44.483 1.19683e-05 44.0089 1.37754e-05 43.53V3.65001C-0.00130589 3.17032 0.0922034 2.69509 0.275166 2.25166C0.458128 1.80823 0.726934 1.40533 1.06613 1.06613C1.40533 0.726934 1.80823 0.458128 2.25166 0.275166C2.69509 0.0922034 3.17032 -0.00130589 3.65001 1.37754e-05H159.26C159.74 -0.00130589 160.215 0.0922034 160.658 0.275166C161.102 0.458128 161.505 0.726934 161.844 1.06613C162.183 1.40533 162.452 1.80823 162.635 2.25166C162.818 2.69509 162.911 3.17032 162.91 3.65001V43.53C162.91 44.0089 162.816 44.483 162.632 44.9253C162.448 45.3676 162.179 45.7693 161.84 46.1074C161.501 46.4456 161.099 46.7135 160.656 46.8958C160.213 47.0782 159.739 47.1713 159.26 47.17Z" fill="white"/>
<path d="M114.21 45H3.69002C3.2975 45 2.92106 44.844 2.6435 44.5665C2.36595 44.2889 2.21002 43.9125 2.21002 43.52V3.68996C2.21002 3.29744 2.36595 2.921 2.6435 2.64344C2.92106 2.36589 3.2975 2.20996 3.69002 2.20996H114.21C114.603 2.20996 114.979 2.36589 115.257 2.64344C115.534 2.921 115.69 3.29744 115.69 3.68996V43.49C115.694 43.6868 115.659 43.8825 115.586 44.0656C115.514 44.2486 115.405 44.4153 115.267 44.5559C115.129 44.6966 114.965 44.8083 114.783 44.8845C114.602 44.9607 114.407 45 114.21 45Z" fill="#182547"/>
<path d="M159.23 45H119.43C119.041 44.9869 118.673 44.8211 118.405 44.5385C118.137 44.2558 117.992 43.8791 118 43.49V3.68996C118 3.29744 118.156 2.921 118.433 2.64344C118.711 2.36589 119.087 2.20996 119.48 2.20996H159.28C159.673 2.20996 160.049 2.36589 160.327 2.64344C160.604 2.921 160.76 3.29744 160.76 3.68996V43.49C160.764 43.6911 160.727 43.891 160.652 44.0774C160.576 44.2638 160.463 44.4329 160.32 44.5742C160.177 44.7155 160.006 44.8262 159.819 44.8994C159.631 44.9726 159.431 45.0068 159.23 45Z" fill="#DD343A"/>
<path d="M51.31 27.5V38.9799H49.01V27.5H45.05V25.45H55.28V27.5H51.31Z" fill="white"/>
<path d="M73.24 38.98H71.04L67.29 29.46H69.65L72.17 36.44L74.69 29.46H76.97L73.24 38.98Z" fill="white"/>
<path d="M89.42 25.38H87.21V38.98H89.42V25.38Z" fill="white"/>
<path d="M107.16 38.98L104.78 35.54L102.38 38.98H99.88L103.51 34.14L100.02 29.46H102.62L104.86 32.7L107.14 29.46H109.66L106.13 34.12L109.76 38.98H107.16Z" fill="white"/>
<path d="M58.1 29.4C57.2526 29.4059 56.4385 29.7308 55.82 30.31V29.45H53.91V39H56.12V34.84C56.0634 34.0074 56.1342 33.1712 56.33 32.36C56.56 31.74 56.9 31.26 58.63 31.12L58.85 29.36C58.85 29.36 58.62 29.36 58.1 29.36" fill="white"/>
<path d="M62.26 37.32C60.76 37.32 60.41 36.87 60.41 36.05C60.41 35.05 60.84 34.8 62.18 34.8H64.74C64.74 36.46 64.53 37.32 62.26 37.32ZM62.81 29.32C61.9449 29.2899 61.0787 29.33 60.22 29.4401L60 31.1101C61.3 31.0401 62.6 31.1101 62.68 31.1101C64.58 31.1901 64.62 31.86 64.68 33.03H62.26C60.26 33.03 58.2 33.3401 58.2 36.1101C58.2 38.43 59.65 39.1101 61.91 39.1101C62.991 39.1712 64.0573 38.8371 64.91 38.17V39H66.91V32.7701C66.91 30.3101 65.42 29.39 62.91 29.3" fill="white"/>
<path d="M81.49 31.1101C83.54 31.1101 83.66 31.9 83.66 33.26H79.37C79.37 31.99 79.56 31.1101 81.49 31.1101ZM81.49 37.35C79.99 37.3 79.49 36.7601 79.38 35.8101C79.38 35.8101 79.38 35.7301 79.38 35.68V35.6101C79.3696 35.4269 79.3696 35.2432 79.38 35.0601H85.89C85.89 31.7401 85.7 29.3 81.54 29.3C77.72 29.3 77.17 31.49 77.17 34.3C77.1118 35.3276 77.2932 36.3546 77.7 37.3C78.27 38.53 79.56 39.0701 81.41 39.0801H81.61C82.95 39.0801 84.44 38.98 85.2 38.89L85.45 37.1301C84.15 37.2001 83.01 37.3401 81.53 37.2901" fill="white"/>
<path d="M95.12 31.1101C97.12 31.1101 97.29 31.9 97.29 33.26H93C93 31.99 93.19 31.1101 95.12 31.1101ZM95.12 37.35C93.62 37.3 93.12 36.7601 93.01 35.8101C93.01 35.8101 93.01 35.7301 93.01 35.68V35.6101C92.9996 35.4269 92.9996 35.2432 93.01 35.0601H99.52C99.52 31.7401 99.33 29.3 95.17 29.3C91.35 29.3 90.8 31.49 90.8 34.3C90.7418 35.3276 90.9232 36.3546 91.33 37.3C91.9 38.53 93.19 39.0701 95.04 39.0801H95.24C96.58 39.0801 98.07 38.98 98.83 38.89L99 37.19C97.7 37.26 96.56 37.4 95.08 37.35" fill="white"/>
</svg>
