<svg width="98" height="97" viewBox="0 0 98 97" fill="none" xmlns="http://www.w3.org/2000/svg">
<path d="M96.5433 85.6594L78.8133 67.8994L97.3233 57.0994V57.0094L34.9033 33.8994L58.0633 96.2594H58.1533L68.9833 77.7594L86.7133 95.4894C86.861 95.6373 87.0364 95.7546 87.2294 95.8346C87.4224 95.9146 87.6293 95.9558 87.8383 95.9558C88.0473 95.9558 88.2542 95.9146 88.4472 95.8346C88.6403 95.7546 88.8156 95.6373 88.9633 95.4894L96.5433 87.8994C96.8389 87.6016 97.0047 87.199 97.0047 86.7794C97.0047 86.3598 96.8389 85.9572 96.5433 85.6594Z" fill="#217FF9"/>
<path d="M60.2833 38.5493C60.3957 37.6101 60.4524 36.6651 60.4533 35.7193C60.4533 30.8281 59.0029 26.0468 56.2855 21.98C53.5682 17.9132 49.7059 14.7435 45.1871 12.8717C40.6682 11 35.6959 10.5102 30.8987 11.4644C26.1016 12.4187 21.6951 14.774 18.2365 18.2325C14.778 21.6911 12.4227 26.0975 11.4685 30.8947C10.5143 35.6918 11.004 40.6642 12.8758 45.183C14.7475 49.7018 17.9172 53.5641 21.984 56.2815C26.0509 58.9989 30.8322 60.4493 35.7233 60.4493C37.1314 60.4479 38.5367 60.3241 39.9233 60.0793L38.3533 55.8993C37.4811 56.0116 36.6027 56.0684 35.7233 56.0693C31.7083 56.0693 27.7835 54.8787 24.4452 52.6481C21.1069 50.4175 18.505 47.2471 16.9685 43.5377C15.4321 39.8284 15.0301 35.7467 15.8134 31.8089C16.5966 27.8711 18.53 24.254 21.369 21.415C24.208 18.576 27.8251 16.6426 31.763 15.8593C35.7008 15.076 39.7824 15.4781 43.4918 17.0145C47.2011 18.551 50.3715 21.1529 52.6021 24.4912C54.8327 27.8295 56.0233 31.7543 56.0233 35.7693C56.0233 36.1893 56.0233 36.5993 56.0233 37.0093L60.2833 38.5493Z" fill="url(#paint0_linear)"/>
<path d="M35.7233 27.3295C37.3453 27.3343 38.9311 27.8091 40.2888 28.6965C41.6465 29.5839 42.7179 30.8458 43.3733 32.3295L48.4433 34.2095C48.1432 31.762 47.1436 29.453 45.5645 27.5593C43.9853 25.6655 41.8935 24.2674 39.5398 23.5324C37.186 22.7975 34.6703 22.7569 32.2941 23.4155C29.9179 24.0742 27.7821 25.4041 26.1427 27.246C24.5032 29.0878 23.4297 31.3633 23.0508 33.7998C22.6719 36.2363 23.0037 38.7304 24.0065 40.9831C25.0092 43.2358 26.6403 45.1515 28.7043 46.5006C30.7683 47.8497 33.1775 48.575 35.6433 48.5895L33.9033 43.8995C31.8775 43.4609 30.0857 42.288 28.8734 40.6068C27.661 38.9256 27.1139 36.8551 27.3375 34.7945C27.561 32.7338 28.5395 30.8289 30.0842 29.4468C31.6289 28.0647 33.6305 27.3034 35.7033 27.3095L35.7233 27.3295Z" fill="#3D8FFA"/>
<path d="M35.7233 67.1194C29.5129 67.1194 23.4421 65.2778 18.2784 61.8275C13.1147 58.3773 9.09004 53.4733 6.71345 47.7357C4.33686 41.9981 3.71503 35.6846 4.92661 29.5936C6.13818 23.5026 9.12874 17.9076 13.5201 13.5162C17.9115 9.12487 23.5064 6.13431 29.5974 4.92274C35.6884 3.71116 42.0019 4.33299 47.7395 6.70958C53.4771 9.08617 58.3811 13.1108 61.8314 18.2745C65.2817 23.4382 67.1233 29.5091 67.1233 35.7194C67.1206 37.4549 66.9768 39.1872 66.6933 40.8994L70.9033 42.4894C72.3516 34.9166 71.3143 27.0785 67.946 20.1431C64.5777 13.2077 59.0586 7.54625 52.2112 4.00243C45.3638 0.458603 37.5547 -0.777918 29.9474 0.477125C22.3402 1.73217 15.3421 5.41159 9.99588 10.9671C4.64971 16.5226 1.24167 23.6568 0.279607 31.3067C-0.682456 38.9565 0.852959 46.7124 4.65705 53.4187C8.46115 60.125 14.3303 65.4226 21.3899 68.5222C28.4495 71.6218 36.3216 72.3574 43.8333 70.6194L42.2733 66.4294C40.1202 66.8886 37.9248 67.1199 35.7233 67.1194Z" fill="url(#paint1_linear)"/>
<defs>
<linearGradient id="paint0_linear" x1="10.9933" y1="35.7193" x2="60.4533" y2="35.7193" gradientUnits="userSpaceOnUse">
<stop stop-color="white"/>
<stop offset="1" stop-color="#217FF9"/>
</linearGradient>
<linearGradient id="paint1_linear" x1="0" y1="2562.57" x2="5125.13" y2="2562.57" gradientUnits="userSpaceOnUse">
<stop stop-color="white"/>
<stop offset="0.0364583" stop-color="#64A6FB"/>
<stop offset="0.463542" stop-color="#217FF9"/>
</linearGradient>
</defs>
</svg>
