<svg width="97" height="93" viewBox="0 0 97 93" fill="none" xmlns="http://www.w3.org/2000/svg">
<g clip-path="url(#clip0)">
<path fill-rule="evenodd" clip-rule="evenodd" d="M38.45 42.4701C38.4664 42.771 38.5538 43.0638 38.705 43.3245C38.8562 43.5852 39.0669 43.8064 39.32 43.9701L24.39 52.5601C24.1373 52.3937 23.927 52.1704 23.7759 51.9082C23.6248 51.6461 23.5372 51.3522 23.52 51.0501V42.2701L38.45 33.6801V42.4701ZM23.66 68.2501L38.59 59.6601C38.5034 59.8056 38.4553 59.9708 38.45 60.1401V69.0001L23.52 77.5401V68.7201C23.5142 68.5523 23.5634 68.3873 23.66 68.2501Z" fill="#CAE9F4"/>
<path fill-rule="evenodd" clip-rule="evenodd" d="M38.13 43.8099L24.48 51.6599C24.3433 51.462 24.2637 51.2302 24.25 50.9899V42.6899L37.72 34.9999V42.5699C37.7633 43.0211 37.9031 43.4576 38.13 43.8499V43.8099ZM24.39 53.2899C24.5232 53.29 24.6541 53.2556 24.77 53.1899L39.7 44.6099C39.8032 44.5422 39.8899 44.4522 39.9539 44.3467C40.0179 44.2412 40.0576 44.1227 40.07 43.9999C40.0706 43.876 40.0408 43.7538 39.9832 43.644C39.9257 43.5341 39.8422 43.4401 39.74 43.3699C39.5816 43.27 39.4498 43.1333 39.3557 42.9713C39.2617 42.8093 39.2083 42.627 39.2 42.4399V33.6799C39.1992 33.5505 39.1634 33.4236 39.0966 33.3127C39.0297 33.2019 38.9341 33.1111 38.82 33.0499C38.7109 32.9857 38.5866 32.9519 38.46 32.9519C38.3334 32.9519 38.2091 32.9857 38.1 33.0499L23.1 41.6299C22.9888 41.6953 22.8969 41.789 22.8337 41.9014C22.7704 42.0138 22.7381 42.141 22.74 42.2699V51.0499C22.7615 51.4779 22.8876 51.894 23.1073 52.2618C23.3269 52.6297 23.6335 52.9381 24 53.1599C24.1213 53.2418 24.2637 53.287 24.41 53.2899H24.39ZM37.72 68.5299L24.25 76.2599V68.7599L37.72 60.9999V68.5299ZM23.52 78.2699C23.6532 78.27 23.7841 78.2356 23.9 78.1699L38.82 69.5799C38.9276 69.5238 39.0191 69.441 39.0856 69.3395C39.1522 69.2379 39.1915 69.121 39.2 68.9999V60.1399C39.3071 59.9901 39.3569 59.8067 39.3404 59.6233C39.3239 59.4398 39.2422 59.2683 39.11 59.1399C39.0045 59.0188 38.861 58.937 38.703 58.9079C38.5449 58.8788 38.3817 58.9042 38.24 58.9799L23.31 67.6099C23.2105 67.6712 23.1253 67.753 23.06 67.8499C22.8883 68.0741 22.7936 68.3476 22.79 68.6299V77.5399C22.7878 77.6676 22.8201 77.7935 22.8834 77.9044C22.9468 78.0153 23.0389 78.107 23.15 78.1699C23.2624 78.2352 23.39 78.2697 23.52 78.2699Z" fill="#0087CA"/>
<path fill-rule="evenodd" clip-rule="evenodd" d="M0.730011 46.8101L15.66 38.2301L38.45 33.6801L23.52 42.2701L0.730011 46.8101Z" fill="#CAE9F4"/>
<path fill-rule="evenodd" clip-rule="evenodd" d="M23.25 41.5701L5.00001 45.21L16 38.92L34.28 35.28L23.25 41.5701ZM0.730007 47.5701H0.880007L23.66 43.0001C23.7431 42.9789 23.8235 42.9487 23.9 42.9101L38.82 34.3301C38.9724 34.2455 39.0901 34.1099 39.1523 33.947C39.2145 33.7842 39.2172 33.6047 39.16 33.44C39.0899 33.2784 38.9658 33.1461 38.8089 33.0658C38.652 32.9856 38.4721 32.9623 38.3 33.0001L15.52 37.51C15.4452 37.5217 15.3736 37.549 15.31 37.5901L0.360007 46.17C0.224091 46.2537 0.118858 46.379 0.0600077 46.5274C0.00115737 46.6757 -0.00815701 46.8391 0.0334541 46.9932C0.0750651 47.1473 0.165372 47.2838 0.290902 47.3823C0.416433 47.4809 0.57046 47.5362 0.730007 47.5401" fill="#0087CA"/>
<path fill-rule="evenodd" clip-rule="evenodd" d="M24.39 52.56L39.32 44L79.89 67.29C80.9177 67.9324 81.7671 68.823 82.36 69.88L67.43 78.46C66.8483 77.4078 66.013 76.5175 65 75.87L24.39 52.56Z" fill="#CAE9F4"/>
<path fill-rule="evenodd" clip-rule="evenodd" d="M81.32 69.63L67.66 77.48C67.0603 76.5784 66.2722 75.8176 65.35 75.25L25.87 52.56L39.32 44.82L79.53 67.92C80.2413 68.3565 80.8514 68.9395 81.32 69.63ZM67.43 79.2C67.5536 79.1991 67.6746 79.1645 67.78 79.1L82.78 70.51C82.8648 70.4627 82.9388 70.3982 82.9973 70.3208C83.0559 70.2433 83.0976 70.1545 83.12 70.06C83.1477 69.9642 83.154 69.8635 83.1385 69.765C83.1229 69.6665 83.0859 69.5726 83.03 69.49C82.3767 68.3415 81.4491 67.3726 80.33 66.67L39.7 43.34C39.5897 43.2739 39.4636 43.239 39.335 43.239C39.2064 43.239 39.0803 43.2739 38.97 43.34L24 51.92C23.8877 51.9837 23.7943 52.076 23.7293 52.1876C23.6643 52.2991 23.6301 52.4259 23.6301 52.555C23.6301 52.6841 23.6643 52.8109 23.7293 52.9225C23.7943 53.034 23.8877 53.1263 24 53.19L64.58 76.51C65.5126 77.0785 66.2757 77.8865 66.79 78.85C66.8594 78.9567 66.9542 79.0445 67.0659 79.1056C67.1776 79.1667 67.3027 79.1991 67.43 79.2Z" fill="#0087CA"/>
<path fill-rule="evenodd" clip-rule="evenodd" d="M67.43 78.46L82.36 69.87C82.977 70.9072 83.3211 72.0838 83.36 73.29V80.93C83.3868 81.31 83.3319 81.6913 83.1991 82.0483C83.0663 82.4054 82.8586 82.7299 82.59 83L67.59 91.59C67.8701 91.3224 68.0879 90.9964 68.2278 90.6352C68.3678 90.274 68.4266 89.8865 68.4 89.5V81.89C68.3531 80.6851 68.0096 79.5104 67.4 78.47L67.43 78.46Z" fill="#CAE9F4"/>
<path fill-rule="evenodd" clip-rule="evenodd" d="M82.05 70.9C82.4257 71.6562 82.6305 72.4858 82.65 73.33V80.94C82.6774 81.2284 82.6395 81.5193 82.5391 81.7911C82.4386 82.0629 82.2783 82.3086 82.07 82.51L69.16 89.91C69.1697 89.7968 69.1697 89.6831 69.16 89.57V81.89C69.1361 80.7972 68.866 79.7239 68.37 78.75L82.05 70.9ZM67.64 92.35C67.7736 92.3536 67.9055 92.3189 68.02 92.25L82.94 83.67C83.3207 83.3383 83.6244 82.9275 83.8299 82.4664C84.0354 82.0052 84.1378 81.5048 84.13 81V73.3C84.067 71.9699 83.679 70.6755 83 69.53C82.9063 69.3569 82.7482 69.2276 82.56 69.17C82.4631 69.1419 82.3614 69.1346 82.2615 69.1484C82.1616 69.1621 82.0657 69.1968 81.98 69.25L67.06 77.82C66.9067 77.9083 66.7901 78.0487 66.7314 78.2157C66.6726 78.3826 66.6757 78.5651 66.74 78.73C67.3519 79.6814 67.6973 80.7796 67.74 81.91V89.52C67.7721 89.8055 67.7383 90.0946 67.6412 90.365C67.5441 90.6354 67.3864 90.88 67.18 91.08C67.0392 91.2035 66.9521 91.377 66.9372 91.5637C66.9222 91.7505 66.9807 91.9356 67.1 92.08C67.1678 92.1697 67.2554 92.2426 67.356 92.2929C67.4567 92.3432 67.5675 92.3696 67.68 92.37" fill="#0087CA"/>
<path fill-rule="evenodd" clip-rule="evenodd" d="M31.49 1.20004L72.05 24.52C72.36 24.65 72.53 24.71 72.77 24.52L57.84 33.08C57.58 33.29 57.41 33.23 57.12 33.08L16.56 9.79004C16.177 9.50084 15.7139 9.33698 15.2342 9.32087C14.7546 9.30476 14.2816 9.43719 13.88 9.70004L29 1.00004C29.3948 0.822 29.8292 0.74959 30.2604 0.789909C30.6916 0.830229 31.105 0.981894 31.46 1.23004" fill="#CAE9F4"/>
<path fill-rule="evenodd" clip-rule="evenodd" d="M70.92 24.7199L57.47 32.4399L16.93 9.14995L16.58 8.99995L29.4 1.59995C29.88 1.36995 30.3 1.41995 31.13 1.84995L70.92 24.7199ZM57.51 34C57.8034 34.0021 58.0864 33.8911 58.3 33.6899L72.88 25.34C73.0148 25.2776 73.1423 25.2005 73.26 25.11C73.4053 24.9906 73.4981 24.8192 73.5186 24.6323C73.5392 24.4455 73.4858 24.258 73.37 24.11C73.3211 24.0273 73.2558 23.9555 73.178 23.8992C73.1002 23.8429 73.0116 23.8032 72.9178 23.7825C72.824 23.7619 72.727 23.7608 72.6327 23.7793C72.5385 23.7977 72.4491 23.8354 72.37 23.8899L31.86 0.569951C31.4021 0.263184 30.8739 0.0775147 30.3248 0.0302969C29.7757 -0.0169209 29.2235 0.0758542 28.72 0.299951L13.5 9.05995C13.3331 9.15816 13.2113 9.31788 13.1609 9.50484C13.1104 9.69179 13.1352 9.89109 13.23 10.06C13.33 10.2249 13.4897 10.345 13.6759 10.3953C13.8621 10.4456 14.0606 10.4222 14.23 10.33C14.96 9.90995 15.29 9.96995 16.23 10.44L56.77 33.74C56.9968 33.8669 57.2503 33.9389 57.51 33.95" fill="#0087CA"/>
<path fill-rule="evenodd" clip-rule="evenodd" d="M57.99 23.81L72.92 15.23L95.71 45.96L80.78 54.55L57.99 23.81Z" fill="#CAE9F4"/>
<path fill-rule="evenodd" clip-rule="evenodd" d="M94.63 45.7401L81 53.59L59.07 24L72.73 16.15L94.63 45.7401ZM80.78 55.28C80.9102 55.2813 81.0382 55.2467 81.15 55.18L96.08 46.6C96.1706 46.5501 96.2495 46.4815 96.3116 46.3987C96.3737 46.316 96.4174 46.221 96.44 46.12C96.4592 46.018 96.4576 45.9132 96.4353 45.8118C96.4129 45.7104 96.3703 45.6145 96.31 45.53L73.52 14.8C73.4124 14.6428 73.2476 14.5338 73.0607 14.4965C72.8739 14.4591 72.6798 14.4963 72.52 14.6L57.62 23.18C57.4416 23.2912 57.3128 23.4666 57.26 23.67C57.2447 23.7734 57.2501 23.8788 57.2759 23.9801C57.3016 24.0814 57.3472 24.1765 57.41 24.26L80.2 55C80.2644 55.0941 80.3511 55.1707 80.4523 55.223C80.5535 55.2754 80.6661 55.3018 80.78 55.3" fill="#0087CA"/>
<path fill-rule="evenodd" clip-rule="evenodd" d="M57.12 48.77L16.56 25.45C15.5324 24.8043 14.6805 23.9146 14.08 22.86C13.4626 21.823 13.1185 20.6462 13.08 19.44V11.79C13.08 9.57998 14.66 8.67998 16.57 9.78998L57.12 33.1C57.2044 33.1707 57.3084 33.214 57.4181 33.224C57.5278 33.2339 57.6379 33.2101 57.7337 33.1557C57.8295 33.1013 57.9063 33.0189 57.9539 32.9195C58.0015 32.8202 58.0176 32.7087 58 32.6V23.81L80.78 54.55L58 59.08V50.27C57.9757 49.9698 57.8839 49.6791 57.7316 49.4193C57.5792 49.1596 57.3701 48.9376 57.12 48.77Z" fill="white"/>
<path fill-rule="evenodd" clip-rule="evenodd" d="M79.49 54.05L58.74 58.18V50.27C58.7218 49.8384 58.5985 49.4178 58.3806 49.0448C58.1627 48.6719 57.857 48.3578 57.49 48.13L16.93 24.82C16.0101 24.2435 15.2528 23.4414 14.73 22.49C14.1667 21.5654 13.8499 20.5119 13.81 19.43V11.79C13.7709 11.4884 13.8102 11.1818 13.924 10.8998C14.0379 10.6178 14.2225 10.3699 14.46 10.18C14.7435 10.0707 15.0502 10.0354 15.3511 10.0774C15.652 10.1194 15.9372 10.2373 16.18 10.42L56.77 33.74C56.9652 33.889 57.1999 33.9772 57.4449 33.9937C57.6899 34.0101 57.9343 33.9541 58.1476 33.8325C58.361 33.7109 58.5337 33.5291 58.6444 33.3099C58.7551 33.0908 58.7988 32.8438 58.77 32.6V26.05L79.49 54.05ZM58 59.82H58.14L80.93 55.29C81.0514 55.2677 81.1646 55.2133 81.2579 55.1324C81.3511 55.0515 81.4209 54.947 81.46 54.83C81.5069 54.7177 81.5242 54.5953 81.5101 54.4745C81.4961 54.3537 81.4513 54.2385 81.38 54.14L58.6 23.38C58.5024 23.2572 58.37 23.1667 58.2201 23.1203C58.0703 23.0739 57.9099 23.0738 57.76 23.12C57.6157 23.1694 57.4902 23.2623 57.4007 23.3858C57.3112 23.5093 57.2621 23.6575 57.26 23.81V32.33L16.93 9.14997C16.4647 8.82799 15.9219 8.636 15.3576 8.59381C14.7933 8.55162 14.228 8.66076 13.72 8.90997C13.2516 9.22149 12.8754 9.65313 12.6309 10.1598C12.3864 10.6664 12.2825 11.2294 12.33 11.79V19.43C12.3712 20.77 12.7606 22.0762 13.46 23.22C14.1047 24.3921 15.0417 25.3774 16.18 26.08L56.77 49.4C56.9098 49.5008 57.0261 49.6309 57.1107 49.7811C57.1953 49.9313 57.2462 50.0981 57.26 50.27V59.08C57.2651 59.2746 57.3447 59.4599 57.4823 59.5976C57.62 59.7353 57.8053 59.8149 58 59.82Z" fill="#0087CA"/>
<path fill-rule="evenodd" clip-rule="evenodd" d="M65 91.54L24.39 68.22C23.91 67.94 23.52 68.22 23.52 68.72V77.54L0.730011 46.81L23.52 42.27V51.05C23.5364 51.3523 23.6237 51.6465 23.7749 51.9088C23.926 52.1711 24.1367 52.3942 24.39 52.56L65 75.87C66.0244 76.5163 66.873 77.4061 67.47 78.46C68.0866 79.4974 68.4306 80.6739 68.47 81.88V89.52C68.5513 89.9545 68.4953 90.4036 68.3099 90.8048C68.1245 91.2061 67.8189 91.5398 67.4353 91.7596C67.0518 91.9794 66.6094 92.0744 66.1695 92.0315C65.7295 91.9885 65.3138 91.8098 64.98 91.52" fill="#0065F4"/>
<path fill-rule="evenodd" clip-rule="evenodd" d="M22.79 43.17V51.05C22.8021 51.4783 22.9187 51.8971 23.1296 52.2701C23.3405 52.643 23.6393 52.9588 24 53.19L64.58 76.51C65.4882 77.0964 66.2445 77.8897 66.7868 78.8249C67.3292 79.76 67.6421 80.8105 67.7 81.89V89.53C67.7876 89.8326 67.7712 90.1559 67.6536 90.4481C67.5361 90.7404 67.324 90.9849 67.0512 91.1426C66.7784 91.3002 66.4607 91.362 66.1488 91.318C65.8368 91.2741 65.5486 91.1269 65.33 90.9L24.77 67.59C24.5714 67.4597 24.3417 67.3846 24.1045 67.3723C23.8673 67.36 23.631 67.4109 23.42 67.52C23.2132 67.641 23.0445 67.8176 22.9331 68.0298C22.8218 68.2419 22.7722 68.481 22.79 68.72V75.3L2 47.3L22.79 43.17ZM66.56 92.74C67.0022 92.7462 67.4377 92.6321 67.82 92.41C68.2942 92.1036 68.6754 91.6732 68.9222 91.1655C69.169 90.6578 69.272 90.0921 69.22 89.53V81.89C69.1788 80.55 68.7894 79.2438 68.09 78.1C67.4513 76.9209 66.5131 75.931 65.37 75.23L24.77 51.92C24.6226 51.8243 24.4991 51.6962 24.409 51.5454C24.3188 51.3945 24.2645 51.2251 24.25 51.05V42.27C24.2544 42.1622 24.2341 42.0549 24.1908 41.9561C24.1475 41.8574 24.0822 41.7698 24 41.7C23.9171 41.6326 23.8203 41.5842 23.7167 41.5583C23.613 41.5324 23.5049 41.5295 23.4 41.55L0.590004 46.09C0.46793 46.1097 0.353404 46.1619 0.258406 46.2411C0.163408 46.3202 0.0914311 46.4235 0.0500044 46.54C0.00406102 46.6552 -0.0108824 46.7805 0.00666306 46.9033C0.0242085 47.0261 0.0736303 47.1422 0.150004 47.24L22.92 78C23.0142 78.1242 23.1447 78.216 23.2935 78.2626C23.4422 78.3092 23.6018 78.3083 23.75 78.26C23.8959 78.2132 24.0231 78.121 24.113 77.9969C24.203 77.8728 24.2509 77.7232 24.25 77.57V69L64.58 92.17C65.1672 92.523 65.8352 92.7193 66.52 92.74" fill="#0087CA"/>
</g>
<defs>
<clipPath id="clip0">
<rect width="96.45" height="92.74" fill="white"/>
</clipPath>
</defs>
</svg>
