<svg width="105" height="108" viewBox="0 0 105 108" fill="none" xmlns="http://www.w3.org/2000/svg">
<path d="M62.1963 107.48C85.7402 107.48 104.826 88.3941 104.826 64.8502C104.826 41.3063 85.7402 22.2202 62.1963 22.2202C38.6524 22.2202 19.5663 41.3063 19.5663 64.8502C19.5663 88.3941 38.6524 107.48 62.1963 107.48Z" fill="url(#paint0_linear)"/>
<path d="M74.0362 19.6899L68.8862 25.1299L69.3062 25.5299L74.6362 20.2699L74.0362 19.6899Z" fill="#217FF9"/>
<path d="M69.7562 16L65.3462 22.06L65.5762 22.22L70.1862 16.32L69.7562 16Z" fill="#217FF9"/>
<path d="M72.3763 28.9199L78.3163 24.3599C78.0463 24.0099 77.7563 23.6599 77.4763 23.3599L71.6763 28.0999L72.3763 28.9599" fill="#217FF9"/>
<path d="M80.0363 47.0698L87.4763 46.2098C87.3663 45.3298 87.2263 44.4498 87.0663 43.5698L79.6963 44.8798C79.8363 45.6098 79.9463 46.3398 80.0363 47.0698Z" fill="#217FF9"/>
<path d="M79.3562 43.3L86.6562 41.67C86.4862 40.94 86.3062 40.23 86.1062 39.52L78.8862 41.52C79.0562 42.11 79.2162 42.71 79.3562 43.31" fill="#217FF9"/>
<path d="M63.6863 82.12C58.9122 85.2082 53.4808 87.1345 47.8278 87.7442C42.1748 88.354 36.4575 87.6302 31.1348 85.631C25.812 83.6318 21.032 80.4128 17.1782 76.2323C13.3243 72.0518 10.504 67.0262 8.94351 61.5587C7.38301 56.0912 7.12576 50.3341 8.1924 44.7492C9.25905 39.1644 11.6199 33.9072 15.0855 29.3997C18.5511 24.8921 23.025 21.2597 28.1482 18.7937C33.2715 16.3277 38.9014 15.0969 44.5863 15.2L42.9163 23L55.5763 17.08L60.5763 14.73L55.9463 9.39L47.8463 0L46.1863 7.77C42.6671 7.58172 39.1381 7.82012 35.6763 8.48C34.5263 8.7 33.3863 8.97 32.2663 9.28C24.7799 11.3361 17.9729 15.3411 12.5396 20.8866C7.10632 26.4321 3.24119 33.3195 1.33851 40.8463C-0.564178 48.3731 -0.436326 56.2699 1.70902 63.7312C3.85436 71.1924 7.94043 77.9511 13.5504 83.3178C19.1603 88.6845 26.0934 92.4671 33.6424 94.2797C41.1914 96.0924 49.0861 95.8702 56.5212 93.6359C63.9563 91.4016 70.6657 87.2352 75.965 81.5615C81.2643 75.8879 84.9639 68.9101 86.6863 61.34L79.3763 59.67C77.2994 68.9243 71.663 76.9891 63.6863 82.12Z" fill="#217FF9"/>
<path d="M74.4562 31.81L74.8162 32.39L81.2462 28.54L80.7462 27.74L80.3862 27.21L74.1062 31.28C74.2162 31.46 74.3362 31.64 74.4562 31.81Z" fill="#217FF9"/>
<path d="M77.7562 38.1998C77.9462 38.6798 78.1262 39.1998 78.2962 39.6498L85.3962 37.2898C85.1962 36.6998 84.9762 36.1098 84.7462 35.5298L77.7562 38.1998Z" fill="#217FF9"/>
<path d="M76.7863 35.9999L83.5963 32.8899C83.3696 32.4033 83.1296 31.9133 82.8763 31.4199L76.1763 34.7899C76.3863 35.1899 76.5863 35.5999 76.7863 35.9999Z" fill="#217FF9"/>
<path d="M80.1262 55.0799L87.5862 55.8199C87.7062 54.5599 87.7762 53.2999 87.7962 52.0299L80.2962 51.9199C80.2962 52.9199 80.2262 54.0199 80.1262 55.0799Z" fill="#217FF9"/>
<path d="M80.2963 50.9999L87.7963 50.9199C87.7963 49.8499 87.7263 48.7699 87.6263 47.6899L80.1663 48.3099C80.2363 49.1999 80.2863 50.0999 80.2963 50.9999Z" fill="#217FF9"/>
<path d="M79.4863 59.2002V59.3302L86.8063 60.9302C86.8063 60.8702 86.8063 60.8202 86.8063 60.7702C87.1063 59.3602 87.3363 57.9402 87.4963 56.5302L80.0363 55.6602C79.8963 56.8402 79.7063 58.0202 79.4563 59.2002" fill="#217FF9"/>
<defs>
<linearGradient id="paint0_linear" x1="40.8863" y1="27.9302" x2="83.5163" y2="101.77" gradientUnits="userSpaceOnUse">
<stop stop-color="white"/>
<stop offset="1" stop-color="#217FF9"/>
</linearGradient>
</defs>
</svg>
