<svg width="90" height="93" viewBox="0 0 90 93" fill="none" xmlns="http://www.w3.org/2000/svg">
<g clip-path="url(#clip0)">
<path fill-rule="evenodd" clip-rule="evenodd" d="M3.25999 40.6101V74.3701C3.25999 77.2401 5.25999 78.3701 7.73999 76.9701C25.1333 66.9701 42.5033 56.9434 59.85 46.8901C61.1578 46.0324 62.2461 44.8799 63.0277 43.5253C63.8092 42.1706 64.2621 40.6516 64.35 39.0901V5.3301C64.35 2.4701 62.35 1.3301 59.85 2.7301L7.73999 32.8101C6.43594 33.67 5.35146 34.8234 4.57348 36.1779C3.7955 37.5325 3.34565 39.0504 3.25999 40.6101Z" fill="#CBEAF5"/>
<path fill-rule="evenodd" clip-rule="evenodd" d="M61.85 2.82008C61.2623 2.8462 60.691 3.02173 60.19 3.33008L8.10001 33.4201C6.89946 34.2169 5.89933 35.2805 5.17771 36.5277C4.45608 37.775 4.03249 39.1721 3.94001 40.6101V74.3701C3.89261 74.8087 3.95983 75.2522 4.13511 75.6571C4.31039 76.062 4.58773 76.4145 4.94001 76.6801C5.34834 76.8499 5.79404 76.9097 6.23269 76.8536C6.67134 76.7974 7.08761 76.6273 7.44001 76.3601L59.49 46.2901C60.691 45.4905 61.6919 44.4252 62.415 43.1766C63.1381 41.928 63.5641 40.5298 63.66 39.0901V5.33008C63.7128 4.89243 63.6479 4.44862 63.4722 4.04436C63.2964 3.64009 63.0161 3.28998 62.66 3.03008C62.4129 2.88174 62.128 2.80876 61.84 2.82008H61.85ZM5.74001 78.2801C5.20771 78.2872 4.6831 78.1526 4.22001 77.8901C3.65142 77.5072 3.19635 76.9783 2.90252 76.359C2.60869 75.7397 2.48693 75.0527 2.55001 74.3701V40.6101C2.64235 38.9264 3.13058 37.2882 3.97504 35.8286C4.8195 34.3691 5.99636 33.1293 7.41001 32.2101L59.49 2.13008C60.0518 1.73165 60.7108 1.49249 61.3973 1.43792C62.0838 1.38334 62.7724 1.51539 63.39 1.82008C63.9452 2.21009 64.3869 2.7406 64.6698 3.35732C64.9526 3.97405 65.0666 4.65485 65 5.33008V39.0901C64.9119 40.775 64.4266 42.4152 63.5837 43.8768C62.7408 45.3384 61.5642 46.5799 60.15 47.5001L8.10001 77.5701C7.38912 78.0094 6.57529 78.2542 5.74001 78.2801Z" fill="#0087CA"/>
<path fill-rule="evenodd" clip-rule="evenodd" d="M3.25999 44.6001V55.0601L64.35 19.7701V9.32007L3.25999 44.6001Z" fill="#0065F5"/>
<path fill-rule="evenodd" clip-rule="evenodd" d="M3.94 45V53.85L63.66 19.38V10.53L3.94 45ZM3.26 55.75C3.13404 55.7535 3.00953 55.7223 2.9 55.66C2.79516 55.5984 2.70791 55.5108 2.64662 55.4058C2.58533 55.3007 2.55206 55.1817 2.55 55.06V44.6C2.55109 44.4782 2.58395 44.3588 2.64533 44.2536C2.70671 44.1483 2.7945 44.0609 2.9 44L64 8.72004C64.1057 8.65657 64.2267 8.62305 64.35 8.62305C64.4733 8.62305 64.5943 8.65657 64.7 8.72004C64.8057 8.77983 64.8932 8.86725 64.9531 8.97293C65.013 9.07862 65.043 9.1986 65.04 9.32004V19.78C65.042 19.9013 65.0115 20.0208 64.9517 20.1263C64.8919 20.2318 64.805 20.3194 64.7 20.38L3.59 55.66C3.49041 55.7199 3.3762 55.751 3.26 55.75Z" fill="#0087CA"/>
<path fill-rule="evenodd" clip-rule="evenodd" d="M29.41 91.6301L26.92 90.1901C26.4562 89.868 26.0879 89.4267 25.8539 88.9128C25.6198 88.3989 25.5287 87.8314 25.59 87.2701C25.5 76.0101 25.59 64.7401 25.59 53.4701C25.679 51.9078 26.1335 50.3881 26.9168 49.0334C27.7001 47.6787 28.7904 46.5267 30.1 45.6701C47.4333 35.6701 64.8 25.6434 82.2 15.5901C83.48 15.0001 84.02 14.7701 85.37 15.2801C85.81 15.5301 87.46 16.4801 87.87 16.7301C86.51 16.2201 85.98 16.4401 84.7 17.0301L32.6 47.1101C31.287 47.9647 30.1949 49.1177 29.4128 50.4751C28.6307 51.8325 28.1809 53.3556 28.1 54.9201V88.7201C28.23 90.1301 28.29 90.7101 29.41 91.6301Z" fill="#00CEF0"/>
<path fill-rule="evenodd" clip-rule="evenodd" d="M84.11 15.68C83.539 15.7407 82.9888 15.9286 82.5 16.23L30.5 46.23C29.29 47.0327 28.2846 48.1073 27.564 49.3679C26.8434 50.6284 26.4277 52.0401 26.35 53.49C26.35 57.19 26.35 60.95 26.35 64.7C26.35 72.09 26.35 79.7 26.35 87.23C26.2762 87.6868 26.3372 88.1553 26.5254 88.5779C26.7137 89.0006 27.0211 89.3593 27.41 89.61L27.54 89.69C27.54 89.41 27.47 89.09 27.44 88.69V54.92C27.5283 53.2438 28.0097 51.6119 28.8452 50.1562C29.6808 48.7004 30.8472 47.4617 32.25 46.54L84.35 16.43C84.6494 16.2806 84.9565 16.1471 85.27 16.03L85 15.88C84.7035 15.7615 84.389 15.6939 84.07 15.68H84.11ZM29.41 92.33C29.2865 92.3286 29.1656 92.2941 29.06 92.23L26.58 90.79C26.0083 90.4126 25.5506 89.8862 25.2563 89.2676C24.9619 88.649 24.8422 87.9617 24.91 87.28C24.83 79.76 24.85 72.13 24.91 64.74C24.91 60.98 24.91 57.23 24.91 53.47C24.9956 51.7957 25.4748 50.1652 26.3088 48.7109C27.1428 47.2565 28.3081 46.0194 29.71 45.1L81.85 15C83.3 14.33 84.03 14 85.63 14.64L88.23 16.13C88.3804 16.2182 88.4918 16.36 88.5419 16.527C88.592 16.6939 88.577 16.8736 88.5 17.03C88.4295 17.1883 88.3012 17.3137 88.1414 17.3806C87.9816 17.4475 87.8022 17.4509 87.64 17.39C86.53 16.97 86.2 17.12 84.98 17.68L32.98 47.68C31.7508 48.4801 30.7297 49.5612 30.0011 50.8341C29.2725 52.1069 28.8573 53.5349 28.79 55V88.72C28.92 89.98 28.94 90.34 29.87 91.09C29.9767 91.1851 30.0522 91.3101 30.0867 91.4487C30.1212 91.5873 30.113 91.7331 30.0634 91.8671C30.0137 92.001 29.9247 92.1168 29.8082 92.1994C29.6916 92.282 29.5528 92.3275 29.41 92.33Z" fill="#0087CA"/>
<path fill-rule="evenodd" clip-rule="evenodd" d="M32.6 47.1101L84.7 17.0001C87.18 15.5701 89.21 16.7401 89.21 19.6101V53.4101C89.121 54.9724 88.6666 56.4921 87.8832 57.8468C87.0999 59.2015 86.0096 60.3535 84.7 61.2101L32.6 91.3201C30.12 92.7501 28.1 91.5801 28.1 88.7201V54.9201C28.1864 53.3569 28.6386 51.8358 29.4202 50.4793C30.2018 49.1228 31.2909 47.9688 32.6 47.1101Z" fill="white"/>
<path fill-rule="evenodd" clip-rule="evenodd" d="M33 47.7201C31.7958 48.5163 30.7925 49.5808 30.069 50.8301C29.3454 52.0793 28.9213 53.4793 28.83 54.9201V88.7201C28.7793 89.1576 28.8451 89.6007 29.0207 90.0045C29.1963 90.4084 29.4755 90.7588 29.83 91.0201C30.2332 91.193 30.6748 91.2563 31.1103 91.2036C31.5458 91.1509 31.9597 90.9841 32.31 90.7201L84.41 60.6401C85.6089 59.84 86.6071 58.7741 87.3269 57.5253C88.0466 56.2766 88.4686 54.8785 88.56 53.4401V19.6401C88.6054 19.2016 88.5373 18.7588 88.3622 18.3543C88.187 17.9497 87.9108 17.597 87.56 17.3301C87.1525 17.1589 86.7073 17.0974 86.2687 17.1518C85.83 17.2062 85.4133 17.3745 85.06 17.6401L33 47.7201ZM30.6 92.6301C30.06 92.6378 29.528 92.4996 29.06 92.2301C28.4964 91.8453 28.0455 91.3173 27.7537 90.7003C27.4619 90.0834 27.3398 89.3999 27.4 88.7201V54.9201C27.4913 53.2359 27.9779 51.5969 28.8205 50.1358C29.6631 48.6747 30.838 47.4326 32.25 46.5101L84.35 16.4301C84.91 16.0364 85.5653 15.8 86.2477 15.7454C86.93 15.6909 87.6146 15.8203 88.23 16.1201C88.7994 16.5022 89.255 17.0309 89.549 17.6505C89.8429 18.27 89.9642 18.9574 89.9 19.6401V53.4401C89.8 55.128 89.3044 56.7686 88.4532 58.2296C87.602 59.6905 86.4191 60.9308 85 61.8501L33 91.9201C32.2757 92.3622 31.4483 92.607 30.6 92.6301Z" fill="#0087CA"/>
<path fill-rule="evenodd" clip-rule="evenodd" d="M83.6 32.81V25.92C83.6 25.48 83.29 25.3 82.91 25.52L69.57 33.23C69.3701 33.3608 69.2036 33.5365 69.0837 33.7431C68.9639 33.9498 68.8941 34.1816 68.88 34.42V41.31C68.88 41.75 69.2 41.93 69.57 41.71L82.91 34C83.1094 33.8687 83.2755 33.6929 83.3953 33.4864C83.515 33.2798 83.5851 33.0483 83.6 32.81Z" fill="#CBEAF5"/>
<path fill-rule="evenodd" clip-rule="evenodd" d="M82.89 26.3301L69.89 33.8201C69.7931 33.8903 69.712 33.9799 69.6517 34.0832C69.5915 34.1865 69.5534 34.3012 69.54 34.4201V40.9001L82.54 33.4101C82.6319 33.3368 82.7084 33.2461 82.765 33.1431C82.8217 33.0401 82.8573 32.9269 82.87 32.8101V26.3301H82.89ZM69.25 42.5001C69.0709 42.4973 68.8954 42.4491 68.74 42.3601C68.5692 42.2557 68.4287 42.1085 68.3322 41.9331C68.2357 41.7577 68.1867 41.5602 68.19 41.3601V34.4201C68.1982 34.0601 68.2934 33.7074 68.4675 33.3922C68.6417 33.077 68.8896 32.8086 69.19 32.6101L82.52 24.9201C82.6917 24.7988 82.8946 24.7292 83.1047 24.7196C83.3148 24.7101 83.5231 24.7609 83.7052 24.8662C83.8872 24.9714 84.0353 25.1266 84.1319 25.3134C84.2284 25.5002 84.2694 25.7107 84.25 25.9201V32.8101C84.2365 33.1733 84.1336 33.5276 83.9505 33.8416C83.7673 34.1556 83.5095 34.4195 83.2 34.6101L69.88 42.3101C69.69 42.4268 69.4729 42.4923 69.25 42.5001Z" fill="#0087CA"/>
<path fill-rule="evenodd" clip-rule="evenodd" d="M34.88 60.12C34.909 59.6524 35.0471 59.1981 35.2833 58.7935C35.5195 58.3889 35.8471 58.0452 36.24 57.79L44.61 53C45.34 52.58 45.95 52.93 45.95 53.78V61.16C45.9232 61.6258 45.7882 62.079 45.5555 62.4835C45.3229 62.8879 44.9992 63.2326 44.61 63.49L36.24 68.32C35.5 68.74 34.88 68.39 34.88 67.55V60.12Z" fill="#A6EDF8"/>
<path fill-rule="evenodd" clip-rule="evenodd" d="M45.2 53.47C45.1078 53.4868 45.0197 53.5207 44.94 53.57L36.58 58.4C36.2972 58.5956 36.0609 58.8511 35.8881 59.1484C35.7153 59.4457 35.6101 59.7774 35.58 60.12V67.51C35.5687 67.5963 35.5687 67.6837 35.58 67.77C35.6721 67.7589 35.7607 67.7282 35.84 67.68L44.2 62.84C44.4869 62.6486 44.7261 62.3941 44.8995 62.096C45.0728 61.7978 45.1756 61.464 45.2 61.12V53.74C45.2 53.56 45.2 53.48 45.14 53.47H45.2ZM35.63 69.16C35.388 69.1634 35.1495 69.1012 34.94 68.98C34.6988 68.8212 34.5035 68.6018 34.3736 68.3439C34.2438 68.0859 34.1839 67.7984 34.2 67.51V60.12C34.2277 59.5323 34.3955 58.9597 34.6895 58.45C34.9835 57.9403 35.3951 57.5083 35.89 57.19L44.25 52.36C44.4942 52.2007 44.7757 52.1077 45.0668 52.0902C45.3578 52.0727 45.6484 52.1312 45.91 52.26C46.1538 52.4192 46.3515 52.6398 46.4832 52.8996C46.6148 53.1594 46.6758 53.4492 46.66 53.74V61.12C46.6307 61.7109 46.459 62.2859 46.1595 62.796C45.86 63.3062 45.4416 63.7364 44.94 64.05L36.58 68.88C36.2951 69.0589 35.9664 69.1558 35.63 69.16Z" fill="#0087CA"/>
<path fill-rule="evenodd" clip-rule="evenodd" d="M36 80.28C35.8767 80.2797 35.7556 80.2472 35.6486 80.1859C35.5417 80.1245 35.4525 80.0363 35.39 79.93C35.3371 79.8485 35.3017 79.7568 35.2862 79.6609C35.2706 79.5649 35.2752 79.4668 35.2997 79.3727C35.3241 79.2787 35.3679 79.1907 35.4282 79.1145C35.4885 79.0383 35.5641 78.9754 35.65 78.93L44 74.12C44.0786 74.0734 44.1657 74.0429 44.2562 74.0303C44.3468 74.0177 44.4389 74.0231 44.5273 74.0464C44.6156 74.0697 44.6985 74.1102 44.7711 74.1658C44.8437 74.2214 44.9045 74.2908 44.95 74.37C45.0014 74.452 45.0356 74.5436 45.0503 74.6392C45.0651 74.7348 45.0601 74.8325 45.0358 74.9261C45.0114 75.0198 44.9682 75.1075 44.9087 75.1838C44.8493 75.2601 44.7748 75.3235 44.69 75.37L36.27 80.22C36.1849 80.2578 36.0931 80.2782 36 80.28Z" fill="#0087CA"/>
<path fill-rule="evenodd" clip-rule="evenodd" d="M48.67 72.9301C48.548 72.9301 48.4282 72.8976 48.3227 72.8361C48.2173 72.7746 48.1301 72.6863 48.07 72.5801C48.0171 72.4986 47.9817 72.4069 47.9662 72.311C47.9506 72.215 47.9552 72.1169 47.9797 72.0228C48.0041 71.9288 48.0479 71.8408 48.1082 71.7646C48.1685 71.6884 48.2441 71.6256 48.33 71.5801L56.74 66.7201C56.8213 66.6683 56.9124 66.6336 57.0076 66.6181C57.1028 66.6026 57.2002 66.6067 57.2938 66.6301C57.3873 66.6535 57.4752 66.6957 57.5519 66.7542C57.6286 66.8126 57.6926 66.8861 57.74 66.9701C57.7929 67.0517 57.8283 67.1433 57.8438 67.2393C57.8594 67.3352 57.8548 67.4333 57.8303 67.5274C57.8059 67.6215 57.7621 67.7094 57.7018 67.7857C57.6415 67.8619 57.5659 67.9247 57.48 67.9701L49 72.8301C48.9002 72.8909 48.7867 72.9253 48.67 72.9301Z" fill="#0087CA"/>
<path fill-rule="evenodd" clip-rule="evenodd" d="M61.4 65.5801C61.2769 65.5788 61.1562 65.5459 61.0494 65.4847C60.9426 65.4234 60.8533 65.3357 60.79 65.2301C60.7382 65.1488 60.7034 65.0577 60.688 64.9625C60.6725 64.8673 60.6766 64.7699 60.7 64.6764C60.7234 64.5828 60.7656 64.4949 60.824 64.4182C60.8825 64.3415 60.956 64.2775 61.04 64.2301L69.47 59.3701C69.5479 59.3238 69.6342 59.2934 69.724 59.2809C69.8137 59.2684 69.905 59.274 69.9926 59.2973C70.0802 59.3205 70.1622 59.3611 70.2339 59.4166C70.3056 59.472 70.3655 59.5412 70.41 59.6201C70.4566 59.6987 70.4871 59.7858 70.4997 59.8764C70.5123 59.9669 70.5069 60.059 70.4836 60.1474C70.4604 60.2358 70.4198 60.3187 70.3642 60.3912C70.3087 60.4638 70.2393 60.5246 70.16 60.5701L61.75 65.4301C61.6513 65.5145 61.5292 65.5668 61.4 65.5801Z" fill="#0087CA"/>
<path fill-rule="evenodd" clip-rule="evenodd" d="M74.13 58.2301C74.0063 58.2318 73.8844 58.2002 73.7771 58.1386C73.6697 58.077 73.5809 57.9877 73.52 57.8801C73.4639 57.7995 73.4258 57.7078 73.4086 57.6111C73.3913 57.5145 73.3951 57.4152 73.4198 57.3202C73.4445 57.2252 73.4895 57.1366 73.5517 57.0607C73.6138 56.9847 73.6917 56.9231 73.78 56.8801L82.2 52.0201C82.2813 51.9682 82.3724 51.9335 82.4676 51.918C82.5628 51.9025 82.6602 51.9066 82.7538 51.93C82.8473 51.9534 82.9352 51.9956 83.0119 52.0541C83.0886 52.1126 83.1526 52.186 83.2 52.2701C83.2545 52.3511 83.2911 52.4428 83.3075 52.5391C83.3239 52.6354 83.3197 52.7341 83.2951 52.8286C83.2705 52.9231 83.2262 53.0114 83.165 53.0875C83.1037 53.1636 83.0271 53.2258 82.94 53.2701L74.52 58.1301C74.4033 58.2026 74.2672 58.2375 74.13 58.2301Z" fill="#0087CA"/>
<path fill-rule="evenodd" clip-rule="evenodd" d="M4.57 77.32C4.14 77.08 2.49 76.13 2.08 75.88C1.61315 75.571 1.24211 75.1374 1.00883 74.6285C0.775558 74.1195 0.689363 73.5554 0.759998 73C0.639998 61.73 0.759998 50.47 0.759998 39.2C0.845658 37.6403 1.29551 36.1224 2.07349 34.7679C2.85147 33.4133 3.93594 32.2599 5.24 31.4L57.35 1.29002C58.64 0.69002 59.17 0.47002 60.53 1.00002L63 2.42002C61.64 1.91002 61.11 2.14002 59.82 2.73002L7.74 32.81C6.43207 33.6658 5.34464 34.8183 4.56616 36.1737C3.78769 37.529 3.34017 39.049 3.26 40.61V74.42C3.38 75.83 3.45 76.41 4.57 77.32Z" fill="#00CEF0"/>
<path fill-rule="evenodd" clip-rule="evenodd" d="M59.28 1.38006C58.7011 1.4413 58.142 1.62541 57.64 1.92006L5.6 32.0001C4.38893 32.8016 3.38265 33.8759 2.66193 35.1367C1.94121 36.3975 1.52613 37.8098 1.45 39.2601C1.45 42.9601 1.45 46.7101 1.45 50.4701C1.45 57.8501 1.38 65.4701 1.45 72.9901C1.37876 73.4467 1.4409 73.9142 1.62893 74.3364C1.81697 74.7586 2.12291 75.1175 2.51 75.3701L2.67 75.4601C2.67 75.1801 2.59 74.8601 2.55 74.4601V40.6101C2.63558 38.9344 3.11477 37.3025 3.94871 35.8465C4.78266 34.3906 5.9479 33.1516 7.35 32.2301L59.49 2.13006C59.85 1.97006 60.14 1.83006 60.43 1.72006L60.18 1.58006C59.8929 1.46482 59.5889 1.39726 59.28 1.38006ZM4.57 78.0001C4.44795 77.9975 4.32815 77.9667 4.22 77.9101L1.72 76.4701C1.16002 76.0907 0.7105 75.5697 0.417168 74.9602C0.123836 74.3507 -0.00284778 73.6744 0.05 73.0001C0 65.4601 0 57.8201 0 50.4401C0 46.6801 0 42.9301 0 39.1701C0.0855827 37.4944 0.564765 35.8625 1.39871 34.4065C2.23266 32.9506 3.3979 31.7116 4.8 30.7901L57 0.690059C58.45 0.0100586 59.2 -0.309941 60.78 0.330059L63.4 1.82006C63.5449 1.91252 63.6506 2.05504 63.6972 2.22046C63.7438 2.38589 63.7278 2.56266 63.6525 2.71711C63.5771 2.87155 63.4476 2.99287 63.2885 3.05796C63.1295 3.12305 62.952 3.12736 62.79 3.07006C61.68 2.66006 61.35 2.81006 60.15 3.37006L8.1 33.4201C6.8817 34.2124 5.86918 35.283 5.1459 36.5435C4.42261 37.804 4.00929 39.2184 3.94 40.6701V74.4201C4.06 75.6801 4.11 76.0001 5 76.7901C5.13504 76.9001 5.22349 77.057 5.24761 77.2295C5.27172 77.402 5.22971 77.5773 5.13 77.7201C5.06651 77.8088 4.98231 77.8807 4.88472 77.9295C4.78712 77.9783 4.67909 78.0025 4.57 78.0001Z" fill="#0087CA"/>
</g>
<defs>
<clipPath id="clip0">
<rect width="89.9" height="92.63" fill="white"/>
</clipPath>
</defs>
</svg>
