<svg width="47" height="105" viewBox="0 0 47 105" fill="none" xmlns="http://www.w3.org/2000/svg">
<g clip-path="url(#clip0)">
<path fill-rule="evenodd" clip-rule="evenodd" d="M43.71 4.07006L38.17 0.870061C37.7202 0.745843 37.2489 0.719953 36.7881 0.794152C36.3274 0.868351 35.8881 1.0409 35.5 1.30006L5.22 18.8101C3.70679 19.781 2.50823 21.1707 1.77 22.8101C1.11861 24.112 0.769925 25.5444 0.749998 27.0001V96.7601C0.695418 97.7814 1.00751 98.7886 1.63 99.6001L1.77 99.7301L1.92 99.8601L7.45 103.05L7.31 102.93C6.94817 102.524 6.67289 102.049 6.50095 101.533C6.32901 101.017 6.26404 100.472 6.31 99.9301V30.1901C6.31535 28.7361 6.65403 27.3027 7.3 26.0001C8.03427 24.3582 9.23372 22.9675 10.75 22.0001L41.05 4.50006C41.4349 4.23803 41.8726 4.0637 42.3322 3.9894C42.7918 3.9151 43.2622 3.94263 43.71 4.07006Z" fill="#A6EDF8"/>
<path fill-rule="evenodd" clip-rule="evenodd" d="M37.38 1.46005C36.8334 1.51156 36.3079 1.69703 35.85 2.00005L5.57 19.4501C4.18883 20.3666 3.09644 21.6567 2.42 23.1701C1.8329 24.3635 1.51217 25.6704 1.48 27.0001V96.7501C1.4237 97.5983 1.67981 98.4377 2.2 99.1101L2.4 99.2801L5.64 101.15C5.57817 100.76 5.54474 100.365 5.54 99.9701V30.1801C5.57297 28.6348 5.94508 27.1156 6.63 25.7301C7.42323 23.9451 8.71939 22.43 10.36 21.3701L40.68 3.86005C40.8872 3.74146 41.1008 3.63463 41.32 3.54005L37.82 1.54005C37.6754 1.50863 37.528 1.49188 37.38 1.49005V1.46005ZM7.47 103.79C7.34071 103.785 7.21424 103.751 7.1 103.69L1.1 100.12C0.341013 99.1766 -0.0498447 97.9899 -6.37956e-07 96.7801V27.0001C0.0267575 25.4519 0.395564 23.9289 1.08 22.5401C1.87507 20.7559 3.17525 19.2437 4.82 18.1901L35.14 0.660055C35.6174 0.351427 36.155 0.148091 36.7172 0.063598C37.2793 -0.0208945 37.853 0.0153973 38.4 0.170055L44.08 3.43005C44.2379 3.51896 44.357 3.6634 44.4143 3.83528C44.4716 4.00716 44.463 4.19421 44.39 4.36005C44.3208 4.52811 44.1906 4.66377 44.0255 4.73981C43.8604 4.81586 43.6727 4.82666 43.5 4.77005C43.1459 4.67393 42.7749 4.65725 42.4136 4.72121C42.0523 4.78518 41.7096 4.9282 41.41 5.14005L11.1 22.6501C9.73507 23.5713 8.66 24.8614 8 26.3701C7.39421 27.5596 7.05306 28.8662 7 30.2001V100C6.9414 100.893 7.2359 101.773 7.82 102.45L7.92 102.53C8.034 102.629 8.11523 102.759 8.15284 102.905C8.19045 103.051 8.18264 103.205 8.13047 103.346C8.07829 103.488 7.98422 103.61 7.86084 103.696C7.73746 103.783 7.59064 103.829 7.44 103.83L7.47 103.79Z" fill="#0087CA"/>
<path fill-rule="evenodd" clip-rule="evenodd" d="M10.77 103L41.08 85.46C42.4105 84.5395 43.5069 83.3201 44.2814 81.8997C45.0559 80.4792 45.4869 78.897 45.54 77.28V7.51C45.54 4.43 43.54 3.07 41.07 4.51L10.75 22C9.41836 22.9194 8.3211 24.1385 7.54647 25.5592C6.77184 26.9799 6.34148 28.5626 6.28999 30.18V100C6.29999 103.05 8.29999 104.4 10.77 103Z" fill="#A6EDF8"/>
<path fill-rule="evenodd" clip-rule="evenodd" d="M42.91 4.67001C42.3771 4.69057 41.8593 4.85281 41.41 5.14001L11.1 22.65C9.88342 23.5075 8.88072 24.6337 8.1697 25.9413C7.45867 27.2489 7.05842 28.7027 7 30.19V100C6.9404 100.497 7.00933 101 7.20019 101.462C7.39105 101.925 7.69745 102.33 8.09 102.64C8.45758 102.801 8.86133 102.862 9.2601 102.816C9.65887 102.771 10.0384 102.62 10.36 102.38L40.7 84.82C42.93 83.54 44.79 80.09 44.79 77.28V7.51001C44.8456 7.01661 44.7778 6.51714 44.5928 6.05637C44.4078 5.59561 44.1114 5.18797 43.73 4.87001C43.4861 4.73279 43.2098 4.66371 42.93 4.67001H42.91ZM8.91 104.28C8.37032 104.285 7.8389 104.147 7.37 103.88C6.75569 103.448 6.26534 102.862 5.94777 102.181C5.63021 101.501 5.49652 100.748 5.56 100V30.23C5.56 26.91 7.73 22.95 10.4 21.41L40.68 3.86001C41.2213 3.47799 41.8566 3.25095 42.5174 3.20337C43.1783 3.15579 43.8396 3.28947 44.43 3.59001C45.0501 4.02676 45.5446 4.61875 45.8641 5.3067C46.1835 5.99466 46.3166 6.75445 46.25 7.51001V77.28C46.25 80.61 44.08 84.56 41.43 86.1L11.13 103.61C10.4614 104.024 9.6959 104.255 8.91 104.28Z" fill="#0087CA"/>
<path fill-rule="evenodd" clip-rule="evenodd" d="M45.54 76.44V7.51C45.54 4.43 43.54 3.07 41.07 4.51L10.75 22C9.41836 22.9194 8.3211 24.1385 7.54647 25.5592C6.77184 26.9799 6.34148 28.5626 6.28999 30.18V99.11L45.54 76.44Z" fill="white"/>
<path fill-rule="evenodd" clip-rule="evenodd" d="M42.91 4.67001C42.3776 4.69339 41.8605 4.8554 41.41 5.14001L11.1 22.65C9.88232 23.5064 8.87881 24.6324 8.16766 25.9402C7.4565 27.2481 7.05691 28.7024 7 30.19V97.83L44.79 76V7.50001C44.8456 7.00661 44.7778 6.50714 44.5928 6.04637C44.4078 5.58561 44.1113 5.17797 43.73 4.86001C43.4842 4.72752 43.2092 4.65875 42.93 4.66001L42.91 4.67001ZM6.3 99.85C6.10374 99.85 5.91552 99.772 5.77674 99.6333C5.63796 99.4945 5.56 99.3063 5.56 99.11V30.19C5.56 26.87 7.73 22.91 10.4 21.37L40.68 3.86001C41.2213 3.47799 41.8566 3.25095 42.5174 3.20337C43.1783 3.15579 43.8395 3.28947 44.43 3.59001C45.0501 4.02676 45.5446 4.61875 45.864 5.3067C46.1835 5.99466 46.3165 6.75445 46.25 7.51001V76.44C46.255 76.5684 46.2251 76.6957 46.1635 76.8084C46.1018 76.9211 46.0108 77.015 45.9 77.08L6.66 99.75C6.55237 99.8179 6.4272 99.8526 6.3 99.85Z" fill="#0087CA"/>
<path fill-rule="evenodd" clip-rule="evenodd" d="M1.79 22.78V22.85C1.13751 24.1382 0.782123 25.5564 0.749998 27V96.76C0.695418 97.7813 1.00751 98.7885 1.63 99.6L1.77 99.73L1.92 99.86L7.45 103.05L7.31 102.93C6.94817 102.524 6.67289 102.049 6.50095 101.533C6.32901 101.017 6.26404 100.472 6.31 99.93V30.19C6.31535 28.736 6.65403 27.3026 7.3 26V25.93L1.79 22.78Z" fill="#00CEF0"/>
<path fill-rule="evenodd" clip-rule="evenodd" d="M2.15 23.83C1.72783 24.8347 1.50047 25.9105 1.48 27V96.75C1.42242 97.5953 1.6788 98.4321 2.2 99.1L2.4 99.28L5.64 101.15C5.57816 100.76 5.54474 100.365 5.54 99.97V30.18C5.56609 28.8328 5.85836 27.5039 6.4 26.27L2.15 23.83ZM7.47 103.83C7.34071 103.825 7.21424 103.791 7.1 103.73L1.1 100.16C0.331716 99.2061 -0.0597039 98.0034 -3.80492e-06 96.78V27C0.0328986 25.4527 0.401388 23.931 1.08 22.54C1.18022 22.3355 1.35587 22.1778 1.57 22.1C1.66505 22.0604 1.76702 22.04 1.87 22.04C1.97298 22.04 2.07494 22.0604 2.17 22.1L7.7 25.33C7.86653 25.4285 7.98925 25.5868 8.04314 25.7726C8.09703 25.9584 8.07802 26.1578 7.99 26.33C7.38054 27.532 7.04258 28.8531 7 30.2V100C6.9397 100.89 7.23457 101.767 7.82 102.44L7.92 102.53C8.034 102.629 8.11523 102.759 8.15284 102.905C8.19045 103.051 8.18264 103.205 8.13046 103.346C8.07828 103.488 7.98422 103.61 7.86084 103.696C7.73746 103.783 7.59064 103.829 7.44 103.83H7.47Z" fill="#0087CA"/>
<path fill-rule="evenodd" clip-rule="evenodd" d="M3.60999 53.5501C3.41547 53.5474 3.2298 53.4683 3.09318 53.3298C2.95656 53.1913 2.87997 53.0046 2.87999 52.8101V45.8101C2.87999 45.7129 2.89913 45.6167 2.93632 45.5269C2.97351 45.4371 3.02802 45.3555 3.09673 45.2868C3.16545 45.2181 3.24702 45.1636 3.3368 45.1264C3.42658 45.0892 3.52281 45.0701 3.61999 45.0701C3.71717 45.0701 3.81339 45.0892 3.90318 45.1264C3.99296 45.1636 4.07453 45.2181 4.14325 45.2868C4.21196 45.3555 4.26647 45.4371 4.30366 45.5269C4.34085 45.6167 4.35999 45.7129 4.35999 45.8101V52.8101C4.36 52.9081 4.34053 53.0051 4.30272 53.0956C4.26491 53.186 4.2095 53.268 4.13973 53.3369C4.06995 53.4057 3.98719 53.46 3.89625 53.4966C3.80531 53.5332 3.70801 53.5514 3.60999 53.5501Z" fill="#0087CA"/>
<path fill-rule="evenodd" clip-rule="evenodd" d="M3.60999 41.9301C3.41547 41.9274 3.2298 41.8483 3.09318 41.7098C2.95656 41.5713 2.87997 41.3846 2.87999 41.1901V34.1901C2.87999 34.0929 2.89913 33.9967 2.93632 33.9069C2.97351 33.8171 3.02802 33.7355 3.09673 33.6668C3.16545 33.5981 3.24702 33.5436 3.3368 33.5064C3.42658 33.4692 3.52281 33.4501 3.61999 33.4501C3.71717 33.4501 3.81339 33.4692 3.90318 33.5064C3.99296 33.5436 4.07453 33.5981 4.14325 33.6668C4.21196 33.7355 4.26647 33.8171 4.30366 33.9069C4.34085 33.9967 4.35999 34.0929 4.35999 34.1901V41.1901C4.35736 41.3872 4.27718 41.5755 4.13682 41.714C3.99645 41.8524 3.80718 41.9301 3.60999 41.9301Z" fill="#0087CA"/>
<path fill-rule="evenodd" clip-rule="evenodd" d="M23.86 93.0001C23.7309 93.0036 23.6034 92.9708 23.492 92.9053C23.3806 92.8399 23.2899 92.7446 23.23 92.6301C23.1352 92.4612 23.1104 92.262 23.1609 92.075C23.2113 91.888 23.3331 91.7283 23.5 91.6301L29.57 88.1301C29.7389 88.0353 29.9382 88.0105 30.1251 88.061C30.3121 88.1115 30.4718 88.2332 30.57 88.4001C30.6179 88.484 30.6486 88.5766 30.6604 88.6725C30.6722 88.7683 30.6649 88.8656 30.6388 88.9586C30.6128 89.0516 30.5686 89.1385 30.5087 89.2143C30.4488 89.2901 30.3745 89.3533 30.29 89.4001L24.22 92.9101C24.1096 92.9702 23.9857 93.0012 23.86 93.0001Z" fill="#0087CA"/>
<path fill-rule="evenodd" clip-rule="evenodd" d="M39.72 8.51002C39.4824 8.6745 39.2864 8.89209 39.1475 9.14551C39.0087 9.39894 38.9308 9.68124 38.92 9.97002C38.92 10.52 39.28 10.76 39.72 10.51C39.9563 10.345 40.1508 10.1271 40.288 9.8736C40.4251 9.62012 40.5011 9.33809 40.51 9.05002C40.51 8.50002 40.16 8.26002 39.72 8.51002Z" fill="#A6EDF8"/>
<path fill-rule="evenodd" clip-rule="evenodd" d="M39.72 8.5101L40.09 9.1501L39.7 8.5101H39.72ZM39.38 11.3501C39.1832 11.3516 38.9897 11.2997 38.82 11.2001C38.6134 11.0775 38.4438 10.9011 38.3294 10.6898C38.2149 10.4785 38.1598 10.2402 38.17 10.0001C38.1808 9.58157 38.2928 9.17188 38.4966 8.80614C38.7004 8.4404 38.9898 8.12951 39.34 7.9001C39.5354 7.78489 39.7581 7.72412 39.985 7.72412C40.2119 7.72412 40.4346 7.78489 40.63 7.9001C40.8346 8.0309 41.0008 8.21372 41.1115 8.42985C41.2222 8.64598 41.2734 8.88765 41.26 9.1301C41.2518 9.54917 41.1408 9.95982 40.9368 10.326C40.7328 10.6921 40.442 11.0026 40.09 11.2301C39.8673 11.3296 39.623 11.3709 39.38 11.3501Z" fill="#0087CA"/>
<path fill-rule="evenodd" clip-rule="evenodd" d="M17.34 75.8601C17.2106 75.858 17.084 75.8229 16.972 75.7581C16.86 75.6934 16.7664 75.6011 16.7 75.4901C16.6095 75.3183 16.5891 75.1181 16.6432 74.9316C16.6973 74.745 16.8216 74.5868 16.99 74.4901L26.34 69.1001C26.5079 69.0241 26.6981 69.0136 26.8734 69.0705C27.0487 69.1273 27.1965 69.2476 27.2878 69.4077C27.3791 69.5678 27.4074 69.7562 27.3671 69.936C27.3268 70.1159 27.2209 70.2742 27.07 70.3801L17.72 75.7701C17.6035 75.8331 17.4724 75.8642 17.34 75.8601Z" fill="#0087CA"/>
<path fill-rule="evenodd" clip-rule="evenodd" d="M17.34 84.5601C17.2106 84.558 17.084 84.5229 16.972 84.4582C16.86 84.3934 16.7664 84.3012 16.7 84.1901C16.6095 84.0183 16.5891 83.8181 16.6432 83.6316C16.6973 83.4451 16.8216 83.2868 16.99 83.1901L26.34 77.8001C26.4229 77.7505 26.515 77.7181 26.6108 77.7048C26.7065 77.6915 26.804 77.6977 26.8973 77.7229C26.9906 77.7481 27.0779 77.7918 27.154 77.8515C27.23 77.9111 27.2933 77.9855 27.34 78.0701C27.4348 78.239 27.4596 78.4383 27.4091 78.6252C27.3586 78.8122 27.2369 78.9719 27.07 79.0701L17.72 84.4601C17.6045 84.5266 17.4733 84.5611 17.34 84.5601Z" fill="#0087CA"/>
<path fill-rule="evenodd" clip-rule="evenodd" d="M11.33 28.3801C11.2038 28.3815 11.0795 28.3488 10.9704 28.2854C10.8613 28.2221 10.7713 28.1304 10.71 28.0201C10.6578 27.9351 10.6239 27.8403 10.6103 27.7415C10.5967 27.6427 10.6037 27.5422 10.631 27.4464C10.6582 27.3505 10.7051 27.2613 10.7686 27.1845C10.8322 27.1076 10.9109 27.0448 11 27.0001L12.75 26.0001C12.8339 25.9522 12.9265 25.9215 13.0223 25.9097C13.1182 25.8978 13.2155 25.9052 13.3085 25.9312C13.4015 25.9573 13.4884 26.0015 13.5642 26.0614C13.64 26.1213 13.7031 26.1956 13.75 26.2801C13.7996 26.363 13.832 26.4551 13.8453 26.5508C13.8586 26.6466 13.8524 26.744 13.8272 26.8374C13.802 26.9307 13.7583 27.018 13.6986 27.094C13.639 27.1701 13.5646 27.2333 13.48 27.2801L11.73 28.2801C11.6065 28.3446 11.4694 28.3789 11.33 28.3801Z" fill="#0087CA"/>
<path fill-rule="evenodd" clip-rule="evenodd" d="M14.84 26.37C14.7103 26.3688 14.5829 26.3352 14.4694 26.2724C14.3559 26.2095 14.2598 26.1193 14.19 26.01C14.1002 25.8401 14.0782 25.6424 14.1282 25.4569C14.1783 25.2713 14.2969 25.1117 14.46 25.01L16.21 24.01C16.3799 23.9202 16.5776 23.8982 16.7631 23.9483C16.9487 23.9984 17.1083 24.1169 17.21 24.28C17.3048 24.4489 17.3296 24.6482 17.2791 24.8351C17.2286 25.0221 17.1069 25.1818 16.94 25.28L15.18 26.28C15.0762 26.3385 14.9591 26.3694 14.84 26.37Z" fill="#0087CA"/>
<path fill-rule="evenodd" clip-rule="evenodd" d="M18.35 24.36C18.2197 24.3617 18.0913 24.3293 17.9773 24.2662C17.8633 24.2031 17.7677 24.1113 17.7 24C17.6077 23.8276 17.5874 23.6255 17.6436 23.4381C17.6998 23.2507 17.828 23.0932 18 23L19.75 22C19.8326 21.949 19.9247 21.9154 20.0208 21.9014C20.1168 21.8873 20.2148 21.8932 20.3085 21.9185C20.4022 21.9438 20.4897 21.988 20.5657 22.0485C20.6416 22.109 20.7044 22.1844 20.75 22.27C20.7983 22.3533 20.8296 22.4454 20.8421 22.5408C20.8546 22.6363 20.8482 22.7333 20.8231 22.8262C20.798 22.9192 20.7548 23.0062 20.6959 23.0824C20.637 23.1586 20.5636 23.2223 20.48 23.27L18.73 24.27C18.6144 24.3355 18.4826 24.3667 18.35 24.36Z" fill="#0087CA"/>
<path fill-rule="evenodd" clip-rule="evenodd" d="M39.36 36.43C39.36 32.33 37.92 29.43 35.58 28.1C33.24 26.77 30.05 27 26.49 29C22.6885 31.3801 19.5538 34.6869 17.38 38.61C15.0762 42.4472 13.7858 46.8071 13.63 51.28C13.63 55.39 15.07 58.28 17.38 59.61C19.69 60.94 22.94 60.76 26.49 58.71C30.2897 56.3383 33.419 53.0334 35.58 49.11C37.9045 45.2765 39.206 40.9105 39.36 36.43ZM11.46 52.54C11.46 42.95 18.18 31.28 26.46 26.54C34.74 21.8 41.46 25.63 41.46 35.22C41.46 44.81 34.72 56.48 26.46 61.28C18.2 66.08 11.46 62.18 11.46 52.59V52.54Z" fill="#A6EDF8"/>
<path fill-rule="evenodd" clip-rule="evenodd" d="M32.24 28C30.333 28.0773 28.479 28.6494 26.86 29.66C23.1544 31.9619 20.1033 35.1783 18 39C15.7446 42.7186 14.481 46.9536 14.33 51.3C14.33 55 15.54 57.73 17.73 58.99C19.92 60.25 22.89 59.99 26.1 58.09C29.8181 55.7865 32.8825 52.5671 35 48.74C37.25 45.0167 38.5068 40.7781 38.65 36.43C38.65 32.74 37.46 30.01 35.27 28.74C34.3537 28.2287 33.3192 27.9667 32.27 27.98L32.24 28ZM20.74 61.22C19.4358 61.2269 18.154 60.8814 17.03 60.22C14.36 58.68 12.88 55.5 12.9 51.22C13.05 46.6273 14.3793 42.1504 16.76 38.22C18.9836 34.1771 22.2104 30.7746 26.13 28.34C29.8 26.22 33.29 25.9 35.96 27.44C38.63 28.98 40.09 32.16 40.09 36.44C39.9337 41.0318 38.6049 45.5071 36.23 49.44C34.0032 53.478 30.7768 56.8765 26.86 59.31C25.0184 60.4572 22.9083 61.102 20.74 61.18V61.22ZM33.2 25.22C30.949 25.3259 28.7643 26.0152 26.86 27.22C18.77 31.8 12.19 43.2 12.19 52.54C12.19 56.91 13.63 60.14 16.19 61.64C18.75 63.14 22.31 62.77 26.11 60.58C34.21 55.91 40.8 44.51 40.8 35.17C40.8 30.81 39.36 27.58 36.8 26.07C35.7175 25.4603 34.4922 25.1497 33.25 25.17L33.2 25.22ZM19.76 64C18.2612 64.0181 16.7844 63.6385 15.48 62.9C12.39 61.12 10.71 57.44 10.71 52.52C10.71 42.71 17.62 30.74 26.13 25.83C30.37 23.39 34.41 23 37.5 24.8C40.59 26.6 42.28 30.26 42.28 35.17C42.28 44.99 35.36 56.96 26.86 61.87C24.7194 63.1866 22.2718 63.9209 19.76 64Z" fill="#0087CA"/>
<path fill-rule="evenodd" clip-rule="evenodd" d="M21.75 55.0801C21.6242 55.0784 21.5008 55.0456 21.3909 54.9845C21.2809 54.9234 21.1878 54.836 21.12 54.7301C21.0687 54.6495 21.0339 54.5596 21.0177 54.4655C21.0015 54.3713 21.0042 54.275 21.0256 54.1819C21.047 54.0888 21.0867 54.001 21.1424 53.9234C21.1981 53.8458 21.2687 53.7801 21.35 53.7301C23.79 52.1701 26.57 50.5901 29.24 49.0701C29.5748 48.874 29.8611 48.6049 30.0775 48.2829C30.2939 47.9608 30.4349 47.5941 30.49 47.2101V42.4801C30.4113 42.4334 30.3215 42.4088 30.23 42.4088C30.1385 42.4088 30.0487 42.4334 29.97 42.4801C27.45 43.9301 25.33 45.1901 23.5 46.3401C23.2596 46.5259 22.9718 46.6404 22.6694 46.6705C22.367 46.7005 22.0623 46.6449 21.79 46.5101C21.5203 46.3474 21.3021 46.1119 21.1605 45.8305C21.019 45.5492 20.9599 45.2335 20.99 44.9201V40.2101C21.034 39.6132 21.2114 39.0338 21.5091 38.5146C21.8067 37.9954 22.2171 37.5496 22.71 37.2101C24.77 35.9301 27.11 34.5401 30.05 32.8601C30.2216 32.7735 30.4193 32.7543 30.6043 32.8061C30.7893 32.8579 30.9483 32.977 31.05 33.1401C31.1448 33.3089 31.1696 33.5082 31.1191 33.6952C31.0687 33.8821 30.9469 34.0418 30.78 34.1401C27.83 35.8201 25.52 37.1401 23.47 38.4601C22.9322 38.8872 22.5751 39.5013 22.47 40.1801V44.8901C22.4534 44.986 22.4534 45.0841 22.47 45.1801C22.5262 45.1298 22.5905 45.0892 22.66 45.0601C24.52 43.8901 26.66 42.6201 29.19 41.1701C29.4801 40.9911 29.8125 40.8923 30.1533 40.8835C30.494 40.8747 30.831 40.9563 31.13 41.1201C31.3874 41.2431 31.6053 41.4356 31.759 41.676C31.9127 41.9163 31.9962 42.1948 32 42.4801V47.1901C31.9462 47.8364 31.736 48.4599 31.3876 49.0069C31.0392 49.5539 30.5629 50.008 30 50.3301C27.35 51.8501 24.6 53.4201 22.18 54.9601C22.051 55.04 21.9018 55.0817 21.75 55.0801Z" fill="#0087CA"/>
<path fill-rule="evenodd" clip-rule="evenodd" d="M26.36 56.05C26.262 56.0514 26.1647 56.0332 26.0737 55.9966C25.9828 55.96 25.9 55.9057 25.8303 55.8369C25.7605 55.768 25.7051 55.686 25.6673 55.5956C25.6295 55.5051 25.61 55.4081 25.61 55.31V32.4C25.61 32.2038 25.688 32.0156 25.8267 31.8768C25.9655 31.738 26.1537 31.66 26.35 31.66C26.5463 31.66 26.7345 31.738 26.8733 31.8768C27.012 32.0156 27.09 32.2038 27.09 32.4V55.31C27.09 55.5046 27.0134 55.6913 26.8768 55.8298C26.7402 55.9683 26.5545 56.0474 26.36 56.05Z" fill="#0087CA"/>
<path fill-rule="evenodd" clip-rule="evenodd" d="M34.38 77.13H34.23L31.16 76.52C31.04 76.4886 30.9285 76.4312 30.8334 76.3516C30.7384 76.2721 30.662 76.1725 30.61 76.06C30.5754 75.9408 30.5673 75.8155 30.5863 75.6928C30.6053 75.5701 30.6509 75.4531 30.72 75.35L33.79 71.2C33.9051 71.0512 34.0726 70.9519 34.2583 70.9221C34.4441 70.8924 34.6342 70.9346 34.79 71.04C34.9331 71.1592 35.0281 71.3261 35.0575 71.51C35.0869 71.6938 35.0487 71.8821 34.95 72.04L32.6 75.28L34.52 75.66C34.7052 75.6903 34.8719 75.7898 34.9865 75.9384C35.1011 76.087 35.1549 76.2736 35.1371 76.4604C35.1193 76.6472 35.0312 76.8203 34.8907 76.9446C34.7501 77.0689 34.5676 77.1352 34.38 77.13Z" fill="#0087CA"/>
<path fill-rule="evenodd" clip-rule="evenodd" d="M35.29 67.9C35.1309 67.8993 34.9764 67.8467 34.85 67.75C34.7012 67.6349 34.6019 67.4675 34.5721 67.2817C34.5424 67.0959 34.5846 66.9058 34.69 66.75L37.07 63.53L35.14 63.15C35.0448 63.1304 34.9544 63.0921 34.874 63.0375C34.7935 62.9828 34.7247 62.9129 34.6713 62.8316C34.6179 62.7504 34.581 62.6594 34.5628 62.5639C34.5445 62.4684 34.5453 62.3703 34.565 62.275C34.5847 62.1798 34.6229 62.0894 34.6776 62.009C34.7322 61.9286 34.8022 61.8597 34.8834 61.8063C34.9647 61.7529 35.0556 61.7161 35.1511 61.6978C35.2466 61.6796 35.3448 61.6803 35.44 61.7L38.51 62.31C38.6311 62.3352 38.7438 62.3907 38.8375 62.4713C38.9313 62.552 39.003 62.6551 39.046 62.7711C39.089 62.887 39.1018 63.012 39.0833 63.1342C39.0647 63.2565 39.0154 63.3721 38.94 63.47L35.88 67.6C35.814 67.6948 35.7256 67.7718 35.6227 67.8242C35.5197 67.8765 35.4055 67.9026 35.29 67.9Z" fill="#0087CA"/>
<path fill-rule="evenodd" clip-rule="evenodd" d="M31.3 67.8C31.1728 67.8005 31.0479 67.7663 30.9386 67.7011C30.8294 67.6359 30.74 67.5422 30.68 67.43C30.6317 67.3467 30.6004 67.2547 30.5879 67.1592C30.5754 67.0638 30.5818 66.9668 30.6069 66.8738C30.632 66.7809 30.6752 66.6938 30.7341 66.6176C30.793 66.5415 30.8664 66.4777 30.95 66.43L37.95 62.38C38.1189 62.2852 38.3182 62.2604 38.5051 62.3109C38.6921 62.3613 38.8518 62.4831 38.95 62.65C39.0389 62.8211 39.0594 63.0196 39.0074 63.2053C38.9554 63.391 38.8348 63.5499 38.67 63.65L31.67 67.7C31.5584 67.7671 31.4302 67.8017 31.3 67.8Z" fill="#0087CA"/>
<path fill-rule="evenodd" clip-rule="evenodd" d="M31.3 76.5101C31.1728 76.5106 31.0479 76.4764 30.9386 76.4112C30.8294 76.346 30.74 76.2523 30.68 76.1401C30.6317 76.0568 30.6004 75.9648 30.5879 75.8693C30.5754 75.7739 30.5818 75.6769 30.6069 75.5839C30.632 75.491 30.6752 75.4039 30.7341 75.3277C30.793 75.2516 30.8664 75.1878 30.95 75.1401L37.95 71.1401C38.0335 71.0773 38.1294 71.0329 38.2313 71.0099C38.3331 70.9868 38.4388 70.9855 38.5412 71.0062C38.6436 71.0269 38.7405 71.069 38.8254 71.1298C38.9104 71.1906 38.9815 71.2688 39.0341 71.359C39.0867 71.4493 39.1196 71.5497 39.1306 71.6536C39.1416 71.7575 39.1305 71.8625 39.098 71.9618C39.0655 72.0611 39.0123 72.1524 38.942 72.2296C38.8717 72.3069 38.7858 72.3684 38.69 72.4101L31.69 76.4701C31.5665 76.5203 31.4312 76.5342 31.3 76.5101Z" fill="#0087CA"/>
</g>
<defs>
<clipPath id="clip0">
<rect width="46.27" height="104.28" fill="white"/>
</clipPath>
</defs>
</svg>
