<svg width="98" height="101" viewBox="0 0 98 101" fill="none" xmlns="http://www.w3.org/2000/svg">
<g clip-path="url(#clip0)">
<path fill-rule="evenodd" clip-rule="evenodd" d="M6.18002 74.6699L59.68 43.7799C61.1566 43.0306 62.7892 42.6401 64.445 42.6401C66.1009 42.6401 67.7334 43.0306 69.21 43.7799L95 58.6299C97.63 60.1499 97.63 62.6299 95 64.1399L41.44 94.9999C39.962 95.7446 38.33 96.1325 36.675 96.1325C35.02 96.1325 33.388 95.7446 31.91 94.9999L6.18002 80.1799C3.55002 78.6599 3.55002 76.1899 6.18002 74.6699Z" fill="white"/>
<path fill-rule="evenodd" clip-rule="evenodd" d="M6.54 75.32C6.07707 75.4446 5.66815 75.7184 5.37654 76.099C5.08493 76.4795 4.9269 76.9456 4.9269 77.425C4.9269 77.9044 5.08493 78.3704 5.37654 78.751C5.66815 79.1315 6.07707 79.4053 6.54 79.53L32.27 94.38C33.6364 95.0561 35.1404 95.4079 36.665 95.4079C38.1896 95.4079 39.6936 95.0561 41.06 94.38L94.56 63.49C94.9875 63.3112 95.3605 63.023 95.6414 62.6543C95.9222 62.2857 96.1011 61.8496 96.16 61.39C96.1021 60.93 95.9236 60.4935 95.6426 60.1247C95.3616 59.7559 94.9881 59.4679 94.56 59.29L68.83 44.43C67.4636 43.7538 65.9596 43.4021 64.435 43.4021C62.9104 43.4021 61.4064 43.7538 60.04 44.43L6.54 75.32ZM36.67 96.91C34.88 96.9436 33.1109 96.5203 31.53 95.68L5.79 80.83C5.1025 80.5645 4.51146 80.0972 4.09463 79.4894C3.6778 78.8816 3.45471 78.1619 3.45471 77.425C3.45471 76.688 3.6778 75.9683 4.09463 75.3605C4.51146 74.7528 5.1025 74.2854 5.79 74.02L59.29 43.13C60.8864 42.3216 62.6506 41.9004 64.44 41.9004C66.2294 41.9004 67.9936 42.3216 69.59 43.13L95.32 58C96.0075 58.2654 96.5985 58.7328 97.0154 59.3405C97.4322 59.9483 97.6553 60.668 97.6553 61.405C97.6553 62.1419 97.4322 62.8616 97.0154 63.4694C96.5985 64.0772 96.0075 64.5445 95.32 64.81L41.82 95.68C40.236 96.5215 38.4634 96.9449 36.67 96.91Z" fill="#0087CA"/>
<path fill-rule="evenodd" clip-rule="evenodd" d="M69 74.1399C70.25 70.5999 67.76 66.2399 62 62.8999C56.068 59.5944 49.2685 58.178 42.51 58.8399L41.58 58.2999L63.4 45.6699C63.9252 45.4195 64.5016 45.2954 65.0833 45.3076C65.665 45.3197 66.2358 45.4678 66.75 45.7399L91.65 60.1199C92.65 60.6699 92.65 61.5399 91.8 62.0599C84.4667 66.2599 77.17 70.4699 69.91 74.6899L69 74.1399Z" fill="#CBEAF5"/>
<path fill-rule="evenodd" clip-rule="evenodd" d="M69.85 73.7899H69.91L91.42 61.3999C91.61 61.2899 91.65 61.1899 91.65 61.1699C91.65 61.1499 91.57 60.9399 91.27 60.7799L66.37 46.3999C65.9712 46.1907 65.5304 46.074 65.0803 46.0584C64.6302 46.0428 64.1823 46.1288 63.77 46.3099L43.56 57.9999C50.0893 57.5908 56.5984 59.0697 62.31 62.2599C67.98 65.5299 70.83 69.8999 69.85 73.7999V73.7899ZM69.91 75.4399C69.7767 75.4409 69.6455 75.4064 69.53 75.3399L68.59 74.7899C68.4368 74.7036 68.3188 74.5661 68.2567 74.4016C68.1945 74.2371 68.1922 74.056 68.25 73.8899C69.41 70.6199 66.79 66.5599 61.57 63.5499C55.7952 60.3038 49.1634 58.9076 42.57 59.5499C42.408 59.5639 42.2453 59.5327 42.1 59.4599L41.14 58.9999C41.0258 58.9341 40.9309 58.8394 40.8649 58.7253C40.7989 58.6112 40.7642 58.4817 40.7642 58.3499C40.7642 58.2181 40.7989 58.0886 40.8649 57.9745C40.9309 57.8604 41.0258 57.7657 41.14 57.6999L63 44.9999C63.641 44.6866 64.3476 44.5313 65.0609 44.547C65.7742 44.5626 66.4734 44.7488 67.1 45.0899L92 59.4699C92.3236 59.6257 92.5994 59.8658 92.7982 60.1649C92.9971 60.464 93.1117 60.8112 93.13 61.1699C93.1172 61.4915 93.0175 61.8036 92.8414 62.0731C92.6653 62.3425 92.4194 62.5591 92.13 62.6999L70.29 75.3399C70.1745 75.4064 70.0433 75.4409 69.91 75.4399Z" fill="#0087CA"/>
<path fill-rule="evenodd" clip-rule="evenodd" d="M58.76 80C52.0108 80.6819 45.2144 79.2863 39.28 76C33.5 72.65 31.02 68.3 32.28 64.76L31.28 64.21C24.02 68.41 16.7367 72.6133 9.43003 76.82C8.55003 77.33 8.62003 78.2 9.58003 78.75L34.48 93.13C34.9935 93.4037 35.5639 93.5534 36.1455 93.5673C36.7272 93.5812 37.3041 93.4588 37.83 93.21L59.7 80.58L58.76 80Z" fill="#CBEAF5"/>
<path fill-rule="evenodd" clip-rule="evenodd" d="M31.31 65.06L9.81 77.47C9.61 77.58 9.58 77.68 9.58 77.71C9.58 77.74 9.66 77.93 9.96 78.1L34.86 92.48C35.2583 92.686 35.6977 92.8002 36.1459 92.814C36.5941 92.8279 37.0398 92.7411 37.45 92.56L57.66 80.89C51.1336 81.3017 44.627 79.8226 38.92 76.63C33.25 73.36 30.4 69 31.38 65.09H31.31V65.06ZM36.31 94.32C35.5476 94.3251 34.7957 94.1431 34.12 93.79L9.19 79.41C8.86634 79.2542 8.59062 79.0141 8.39178 78.715C8.19295 78.4159 8.07834 78.0687 8.06 77.71C8.07521 77.3877 8.17583 77.0752 8.35155 76.8046C8.52727 76.534 8.77177 76.315 9.06 76.17L30.93 63.54C31.0483 63.4761 31.1806 63.4426 31.315 63.4426C31.4494 63.4426 31.5817 63.4761 31.7 63.54L32.63 64.09C32.7938 64.1684 32.9225 64.3052 32.991 64.4734C33.0594 64.6417 33.0626 64.8294 33 65C31.86 68.27 34.47 72.33 39.69 75.33C45.4637 78.5792 52.0964 79.9755 58.69 79.33C58.8466 79.3178 59.0033 79.3526 59.14 79.43L60.09 79.98C60.2069 80.0436 60.3045 80.1375 60.3724 80.2519C60.4404 80.3663 60.4763 80.4969 60.4763 80.63C60.4763 80.763 60.4404 80.8936 60.3724 81.008C60.3045 81.1224 60.2069 81.2164 60.09 81.28L38.19 93.86C37.6042 94.1768 36.9458 94.3353 36.28 94.32H36.31Z" fill="#0087CA"/>
<path fill-rule="evenodd" clip-rule="evenodd" d="M76.21 57.5999C77.71 56.7499 77.72 55.3799 76.29 54.5399C75.4652 54.1233 74.5541 53.9062 73.63 53.9062C72.7059 53.9062 71.7948 54.1233 70.97 54.5399C69.51 55.3899 69.49 56.7599 70.97 57.5899C71.7818 58.0011 72.6788 58.2162 73.5888 58.218C74.4989 58.2197 75.3966 58.008 76.21 57.5999Z" fill="white"/>
<path fill-rule="evenodd" clip-rule="evenodd" d="M73.69 54.68C72.879 54.66 72.0765 54.8494 71.36 55.23C70.89 55.5 70.62 55.84 70.62 56.13C70.62 56.42 70.86 56.73 71.31 56.98C72.0173 57.3299 72.7959 57.512 73.585 57.512C74.3742 57.512 75.1527 57.3299 75.86 56.98C76.32 56.7 76.6 56.37 76.6 56.07C76.6 55.77 76.34 55.48 75.9 55.23C75.2205 54.8689 74.4592 54.6897 73.69 54.71V54.68ZM73.52 59C72.4756 59.0254 71.4422 58.7809 70.52 58.29C70.1086 58.0918 69.7579 57.7869 69.5046 57.4069C69.2513 57.027 69.1046 56.5859 69.08 56.13C69.1109 55.6602 69.2672 55.2072 69.5328 54.8185C69.7985 54.4298 70.1635 54.1194 70.59 53.92C71.519 53.4459 72.5471 53.1987 73.59 53.1987C74.6329 53.1987 75.661 53.4459 76.59 53.92C77.0046 54.1014 77.3637 54.3894 77.6307 54.7548C77.8977 55.1202 78.0631 55.5498 78.11 56C78.0751 56.4686 77.9171 56.9198 77.6519 57.3078C77.3868 57.6959 77.0239 58.0071 76.6 58.21C75.6583 58.7336 74.5975 59.0056 73.52 59Z" fill="#0065F5"/>
<path fill-rule="evenodd" clip-rule="evenodd" d="M30.11 84.2199C29.2905 84.6362 28.3842 84.8532 27.465 84.8532C26.5458 84.8532 25.6395 84.6362 24.82 84.2199C23.37 83.3799 23.4 82.0099 24.82 81.1599C25.643 80.7434 26.5526 80.5264 27.475 80.5264C28.3974 80.5264 29.3069 80.7434 30.13 81.1599C31.61 81.9999 31.59 83.3699 30.11 84.2199Z" fill="white"/>
<path fill-rule="evenodd" clip-rule="evenodd" d="M27.58 81.2999C26.7664 81.2861 25.9622 81.4751 25.24 81.8499C24.77 82.1199 24.5 82.4599 24.5 82.7599C24.5 83.0599 24.76 83.3499 25.18 83.5999C25.8847 83.9528 26.6619 84.1365 27.45 84.1365C28.2381 84.1365 29.0153 83.9528 29.72 83.5999C30.21 83.3299 30.49 82.9899 30.49 82.6899C30.49 82.3899 30.23 82.0999 29.79 81.8499C29.1097 81.491 28.349 81.312 27.58 81.3299V81.2999ZM27.4 85.6299C26.3543 85.6555 25.3201 85.4073 24.4 84.9099C23.9955 84.7098 23.6522 84.4046 23.4059 84.0264C23.1596 83.6482 23.0194 83.2108 23 82.7599C23.0309 82.2914 23.1862 81.8397 23.4499 81.4512C23.7136 81.0628 24.076 80.7516 24.5 80.5499C25.4359 80.0691 26.4729 79.8184 27.525 79.8184C28.5771 79.8184 29.6141 80.0691 30.55 80.5499C30.9544 80.745 31.3009 81.0423 31.5552 81.4124C31.8095 81.7824 31.9628 82.2124 32 82.6599C31.9667 83.129 31.8106 83.5811 31.5473 83.9708C31.284 84.3605 30.9228 84.674 30.5 84.8799C29.5475 85.39 28.4804 85.6482 27.4 85.6299Z" fill="#0065F5"/>
<path fill-rule="evenodd" clip-rule="evenodd" d="M96.92 61.39V65.73C96.7911 66.242 96.5527 66.7199 96.2213 67.1308C95.8898 67.5417 95.4731 67.8758 95 68.11L41.44 99C39.9634 99.7493 38.3309 100.14 36.675 100.14C35.0192 100.14 33.3866 99.7493 31.91 99L5.71001 83.85C5.28266 83.5875 4.92322 83.228 4.66086 82.8006C4.3985 82.3732 4.24061 81.8899 4.20001 81.39V77.39C4.26196 77.9851 4.47938 78.5534 4.83044 79.0378C5.18149 79.5223 5.65383 79.9059 6.20001 80.15L31.91 95C33.3866 95.7493 35.0192 96.1398 36.675 96.1398C38.3309 96.1398 39.9634 95.7493 41.44 95L95 64.14C95.5275 63.8828 95.9807 63.4952 96.3167 63.014C96.6526 62.5328 96.8603 61.9739 96.92 61.39Z" fill="#A6EDF8"/>
<path fill-rule="evenodd" clip-rule="evenodd" d="M5.00002 80.2499V81.3899C5.03325 81.7717 5.15897 82.1397 5.3663 82.462C5.57364 82.7844 5.85636 83.0513 6.19002 83.2399L32.29 98.3499C33.6551 99.0305 35.1597 99.3848 36.685 99.3848C38.2104 99.3848 39.7149 99.0305 41.08 98.3499L94.56 67.4599C94.9406 67.2843 95.2782 67.0279 95.5494 66.7083C95.8205 66.3888 96.0187 66.0139 96.13 65.6099V64.2299C95.84 64.4299 95.57 64.6199 95.29 64.7799L41.79 95.6799C40.1971 96.4936 38.4338 96.9179 36.645 96.9179C34.8563 96.9179 33.093 96.4936 31.5 95.6799L5.79002 80.8299C5.51232 80.657 5.24822 80.4631 5.00002 80.2499ZM36.7 100.89C34.9094 100.918 33.1409 100.491 31.56 99.6499L5.35002 84.4999C4.80951 84.18 4.35499 83.7333 4.02571 83.1984C3.69643 82.6636 3.50228 82.0566 3.46002 81.4299V77.4299C3.45543 77.3288 3.47079 77.2278 3.50524 77.1326C3.53969 77.0374 3.59255 76.9499 3.6608 76.8752C3.79864 76.7242 3.99081 76.6342 4.19502 76.6249C4.39924 76.6156 4.59878 76.6879 4.74975 76.8257C4.90071 76.9635 4.99074 77.1557 5.00002 77.3599C5.08002 78.2899 5.50002 78.8599 6.61002 79.5299L32.27 94.3799C33.638 95.063 35.146 95.4186 36.675 95.4186C38.204 95.4186 39.7121 95.063 41.08 94.3799L94.56 63.4899C95.66 62.8199 96.09 62.2499 96.16 61.3299C96.1822 61.139 96.2741 60.963 96.418 60.8357C96.562 60.7083 96.7478 60.6386 96.94 60.6399C97.1337 60.6477 97.3168 60.7301 97.4511 60.8699C97.5853 61.0097 97.6602 61.1961 97.66 61.3899V65.7399C97.5284 66.3813 97.2531 66.9845 96.8547 67.5042C96.4563 68.0238 95.9453 68.4463 95.36 68.7399L41.82 99.6499C40.236 100.492 38.464 100.919 36.67 100.89H36.7Z" fill="#0087CA"/>
<path fill-rule="evenodd" clip-rule="evenodd" d="M5.00002 80.2499V81.3899C5.03325 81.7717 5.15897 82.1397 5.3663 82.462C5.57364 82.7844 5.85636 83.0514 6.19002 83.2399L32.29 98.3499C33.5055 98.9816 34.8505 99.3238 36.22 99.3499V96.9199C34.5827 96.8774 32.9775 96.4564 31.53 95.6899L5.79002 80.8299C5.51232 80.657 5.24822 80.4631 5.00002 80.2499ZM36.7 100.89C34.9099 100.913 33.1426 100.487 31.56 99.6499L5.35002 84.4999C4.80951 84.18 4.35499 83.7333 4.02571 83.1984C3.69642 82.6636 3.50228 82.0566 3.46002 81.4299V77.4299C3.45975 77.2351 3.53431 77.0476 3.6683 76.9062C3.80229 76.7647 3.98547 76.6802 4.18002 76.6699C4.36926 76.6752 4.55048 76.7475 4.69147 76.8738C4.83245 77.0002 4.92407 77.1724 4.95002 77.3599C5.03002 78.2899 5.45002 78.8599 6.56002 79.5299L32.27 94.3799C33.7192 95.1171 35.3362 95.4618 36.96 95.3799C37.059 95.3653 37.1601 95.377 37.2532 95.4139C37.3462 95.4508 37.4279 95.5115 37.49 95.5899C37.5655 95.6582 37.6258 95.7416 37.6671 95.8346C37.7084 95.9276 37.7299 96.0282 37.73 96.1299V100.13C37.7279 100.321 37.6536 100.505 37.522 100.644C37.3904 100.783 37.2111 100.867 37.02 100.88H36.67L36.7 100.89Z" fill="#0087CA"/>
<path fill-rule="evenodd" clip-rule="evenodd" d="M35.58 91.44C35.4471 91.4365 35.3171 91.3999 35.2019 91.3336C35.0867 91.2672 34.9898 91.1732 34.92 91.06C34.8261 90.8899 34.8028 90.6897 34.8552 90.5026C34.9076 90.3155 35.0314 90.1566 35.2 90.06L41.68 86.31C41.8522 86.2288 42.0486 86.2152 42.2304 86.2719C42.4121 86.3286 42.566 86.4514 42.6615 86.616C42.7571 86.7807 42.7873 86.9752 42.7463 87.1612C42.7053 87.3471 42.596 87.5108 42.44 87.62L36 91.33C35.8725 91.4037 35.7274 91.4417 35.58 91.44Z" fill="#0065F5"/>
<path fill-rule="evenodd" clip-rule="evenodd" d="M59.06 52.62C58.9271 52.6165 58.7971 52.5799 58.6819 52.5136C58.5667 52.4472 58.4698 52.3532 58.4 52.24C58.3061 52.0699 58.2828 51.8697 58.3351 51.6826C58.3875 51.4955 58.5114 51.3365 58.68 51.24L65.16 47.49C65.3311 47.4011 65.5296 47.3806 65.7153 47.4326C65.901 47.4846 66.0599 47.6052 66.16 47.77C66.2474 47.9404 66.2682 48.1373 66.2183 48.3222C66.1684 48.5071 66.0513 48.6667 65.89 48.77L59.39 52.5C59.2954 52.5737 59.1799 52.6157 59.06 52.62Z" fill="#0087CA"/>
<path fill-rule="evenodd" clip-rule="evenodd" d="M80.93 65.2499C80.7998 65.2525 80.6716 65.2181 80.5601 65.1509C80.4486 65.0836 80.3585 64.9862 80.3 64.8699C80.2517 64.7866 80.2204 64.6946 80.2079 64.5991C80.1953 64.5037 80.2018 64.4067 80.2269 64.3137C80.252 64.2208 80.2952 64.1337 80.3541 64.0576C80.413 63.9814 80.4864 63.9176 80.57 63.8699L87 60.0999C87.1715 60.0134 87.3693 59.9942 87.5543 60.046C87.7393 60.0978 87.8983 60.2169 88 60.3799C88.0913 60.5505 88.1132 60.7499 88.061 60.9362C88.0089 61.1226 87.8867 61.2816 87.72 61.3799L81.25 65.1199C81.1539 65.1858 81.0448 65.2301 80.93 65.2499Z" fill="#0065F5"/>
<path fill-rule="evenodd" clip-rule="evenodd" d="M52.48 76.9999C52.3144 77.0012 52.1529 76.9476 52.0209 76.8475C51.8889 76.7474 51.7938 76.6063 51.7504 76.4464C51.707 76.2865 51.7177 76.1167 51.781 75.9636C51.8442 75.8105 51.9564 75.6826 52.1 75.5999C55.28 73.7499 58.02 72.1999 61.04 70.5999C61.1574 70.549 61.2604 70.47 61.34 70.3699C61.2511 70.2799 61.1501 70.2025 61.04 70.1399L56.77 67.6499C56.408 67.4956 56.0186 67.4161 55.625 67.4161C55.2315 67.4161 54.8421 67.4956 54.48 67.6499C53.2 68.3999 51.83 69.1399 50.48 69.8599C49.13 70.5799 48.1 71.1699 47.06 71.7699C46.4811 72.0996 45.8263 72.2729 45.16 72.2729C44.4938 72.2729 43.839 72.0996 43.26 71.7699L39.31 69.4599C38.9979 69.316 38.7318 69.0885 38.5411 68.8025C38.3505 68.5166 38.2428 68.1834 38.23 67.8399C38.259 67.509 38.3816 67.1931 38.5835 66.9293C38.7854 66.6654 39.0582 66.4645 39.37 66.3499C41.84 65.1599 44.53 63.7099 47.61 61.9099C47.782 61.8257 47.979 61.8077 48.1634 61.8593C48.3478 61.911 48.5068 62.0286 48.61 62.1899C48.7014 62.3605 48.7233 62.5599 48.6711 62.7462C48.6189 62.9326 48.4967 63.0916 48.33 63.1899C45.21 64.9999 42.48 66.4699 39.99 67.6799C39.74 67.7999 39.69 67.8899 39.69 67.8899C39.69 67.8899 39.8 67.9999 40.01 68.1399L44.01 70.4399C44.3643 70.6388 44.7638 70.7432 45.17 70.7432C45.5763 70.7432 45.9758 70.6388 46.33 70.4399C47.33 69.8399 48.55 69.1899 49.76 68.5199C50.97 67.8499 52.44 67.0699 53.69 66.3299C54.2862 66.0443 54.9389 65.8959 55.6 65.8959C56.2612 65.8959 56.9138 66.0443 57.51 66.3299L61.78 68.8099C62.0884 68.9445 62.3515 69.1651 62.5377 69.4453C62.7239 69.7255 62.8254 70.0535 62.83 70.3899C62.8084 70.7198 62.6949 71.037 62.5022 71.3057C62.3096 71.5743 62.0455 71.7836 61.74 71.9099C58.74 73.5199 56 75.0599 52.84 76.9099C52.7292 76.9688 52.6056 76.9997 52.48 76.9999Z" fill="#0087CA"/>
<path fill-rule="evenodd" clip-rule="evenodd" d="M60.74 76.1C60.6067 76.101 60.4756 76.0665 60.36 76L53.36 71.9C48.93 69.26 44.36 66.53 39.67 63.9C39.4963 63.8005 39.3692 63.6361 39.3167 63.443C39.2642 63.2498 39.2906 63.0437 39.39 62.87C39.4895 62.6963 39.6539 62.5692 39.847 62.5167C40.0402 62.4642 40.2463 62.4905 40.42 62.59C45.06 65.18 49.67 67.92 54.15 70.59L61.09 74.68C61.2567 74.7783 61.3789 74.9373 61.4311 75.1237C61.4833 75.3101 61.4614 75.5094 61.37 75.68C61.3101 75.7983 61.2206 75.8992 61.1102 75.9728C60.9998 76.0464 60.8723 76.0902 60.74 76.1Z" fill="#0087CA"/>
<path fill-rule="evenodd" clip-rule="evenodd" d="M2.71002 32.53L55.84 1.87001C57.3071 1.13063 58.9271 0.745483 60.57 0.745483C62.2129 0.745483 63.8329 1.13063 65.3 1.87001L90.84 16.62C93.46 18.12 93.46 20.62 90.84 22.08L37.73 52.75C36.2612 53.4895 34.6395 53.8746 32.995 53.8746C31.3505 53.8746 29.7289 53.4895 28.26 52.75L2.71002 38C0.130024 36.5 0.130024 34 2.71002 32.53Z" fill="white"/>
<path fill-rule="evenodd" clip-rule="evenodd" d="M3.1 33.19C2.67771 33.3682 2.30956 33.654 2.03231 34.019C1.75506 34.384 1.57841 34.8153 1.52 35.27C1.57841 35.7246 1.75506 36.1559 2.03231 36.5209C2.30956 36.8859 2.67771 37.1718 3.1 37.35L28.64 52.09C29.994 52.766 31.4866 53.118 33 53.118C34.5134 53.118 36.006 52.766 37.36 52.09L90.47 21.43C90.8829 21.2449 91.2409 20.956 91.509 20.5915C91.7772 20.227 91.9463 19.7993 92 19.35C91.9444 18.8972 91.7712 18.4668 91.4974 18.1019C91.2237 17.7369 90.8591 17.4501 90.44 17.27L64.93 2.51996C63.5762 1.84926 62.0858 1.5003 60.575 1.5003C59.0642 1.5003 57.5738 1.84926 56.22 2.51996L3.1 33.19ZM33 54.61C31.2245 54.6496 29.4685 54.2329 27.9 53.4L2.36 38.65C1.69685 38.3539 1.12681 37.8829 0.711046 37.2874C0.295282 36.6919 0.0494764 35.9945 0 35.27C0.0458817 34.5458 0.287882 33.8478 0.700084 33.2506C1.11229 32.6534 1.67916 32.1796 2.34 31.88L55.45 1.21996C57.0377 0.41835 58.7914 0.000732422 60.57 0.000732422C62.3486 0.000732422 64.1023 0.41835 65.69 1.21996L91.21 16C91.8675 16.3002 92.4314 16.7731 92.8417 17.3683C93.252 17.9634 93.4933 18.6586 93.54 19.38C93.495 20.1031 93.2545 20.8004 92.8442 21.3974C92.4338 21.9945 91.869 22.4689 91.21 22.77L38.1 53.4C36.5307 54.2309 34.7753 54.6473 33 54.61Z" fill="#0087CA"/>
<path fill-rule="evenodd" clip-rule="evenodd" d="M33.46 25.46C33.2 27.77 34.84 30.32 38.26 32.29C41.8845 34.2655 45.9751 35.2259 50.1 35.07L33.46 25.46Z" fill="#A6EDF8"/>
<path fill-rule="evenodd" clip-rule="evenodd" d="M34.28 26.8099C34.69 28.5199 36.28 30.2499 38.64 31.6399C41.2589 33.0831 44.151 33.9619 47.13 34.2199L34.28 26.8099ZM49.28 35.8099C45.3004 35.8384 41.3807 34.8395 37.9 32.9099C34.31 30.8399 32.42 28.0799 32.7 25.3499C32.7145 25.2241 32.7606 25.104 32.8341 25.0009C32.9075 24.8977 33.0059 24.8148 33.12 24.7599C33.2273 24.7013 33.3477 24.6705 33.47 24.6705C33.5923 24.6705 33.7127 24.7013 33.82 24.7599L50.46 34.3699C50.604 34.4487 50.7182 34.5726 50.785 34.7225C50.8519 34.8724 50.8677 35.0401 50.83 35.1999C50.7876 35.3581 50.696 35.4986 50.5683 35.6011C50.4406 35.7036 50.2836 35.7627 50.12 35.7699L49.28 35.8099Z" fill="#0087CA"/>
<path fill-rule="evenodd" clip-rule="evenodd" d="M65.05 31.9999C66.3 28.4799 63.84 24.1599 58.05 20.8399C52.1599 17.5714 45.4134 16.1761 38.71 16.8399L37.78 16.2999L59.53 3.73994C60.0551 3.49421 60.6299 3.37355 61.2094 3.38743C61.789 3.40131 62.3574 3.54935 62.87 3.81994L87.57 18.0899C88.57 18.6399 88.57 19.5099 87.72 20.0099L66 32.5499L65.05 31.9999Z" fill="#CBEAF5"/>
<path fill-rule="evenodd" clip-rule="evenodd" d="M65.94 31.65L87.34 19.36C87.51 19.26 87.57 19.15 87.57 19.13C87.57 19.11 87.49 18.92 87.2 18.74L62.48 4.47C62.0844 4.26702 61.6485 4.15454 61.204 4.1407C60.7596 4.12687 60.3176 4.21202 59.91 4.39L39.87 16C46.3373 15.5977 52.7846 17.0551 58.45 20.2C64.09 23.45 66.9 27.78 65.94 31.65ZM65.94 33.3C65.8097 33.3023 65.6815 33.2676 65.57 33.2L64.57 32.66C64.4204 32.5705 64.3066 32.4318 64.2482 32.2675C64.1898 32.1033 64.1905 31.9238 64.25 31.76C65.4 28.52 62.78 24.49 57.6 21.5C51.8616 18.2867 45.2742 16.9147 38.73 17.57C38.5776 17.587 38.4236 17.5555 38.29 17.48L37.29 16.93C37.1773 16.8638 37.0845 16.7686 37.0212 16.6542C36.9578 16.5399 36.9264 16.4106 36.93 16.28C36.9284 16.1497 36.9608 16.0213 37.0239 15.9073C37.087 15.7933 37.1787 15.6977 37.29 15.63L59.17 3.09C59.7957 2.78627 60.4844 2.63517 61.1797 2.64907C61.875 2.66298 62.5571 2.8415 63.17 3.17L88 17.44C88.3204 17.5963 88.5931 17.8354 88.7901 18.1326C88.987 18.4297 89.1009 18.7741 89.12 19.13C89.1062 19.4513 89.006 19.763 88.83 20.0323C88.6541 20.3015 88.4088 20.5183 88.12 20.66L66.37 33.2C66.2591 33.2687 66.1305 33.3034 66 33.3H65.94Z" fill="#0087CA"/>
<path fill-rule="evenodd" clip-rule="evenodd" d="M43.59 19.61C47.7084 19.4567 51.7918 20.4171 55.41 22.39C58.83 24.39 60.48 26.91 60.23 29.22L43.59 19.61Z" fill="#A6EDF8"/>
<path fill-rule="evenodd" clip-rule="evenodd" d="M46.56 20.4599L59.38 27.8699C58.98 26.1699 57.38 24.4299 55.03 23.0399C52.4188 21.5956 49.533 20.7166 46.56 20.4599ZM60.23 29.9999C60.0964 30.0036 59.9646 29.9689 59.85 29.8999L43.21 20.2599C43.0604 20.1842 42.941 20.0598 42.8713 19.9073C42.8016 19.7547 42.7858 19.583 42.8265 19.4203C42.8672 19.2576 42.9619 19.1135 43.0952 19.0117C43.2285 18.9099 43.3924 18.8564 43.56 18.8599C47.8238 18.6788 52.0551 19.6752 55.79 21.7399C59.38 23.8099 61.27 26.5699 60.97 29.2999C60.9584 29.424 60.9157 29.5431 60.8458 29.6463C60.7758 29.7494 60.681 29.8332 60.57 29.8899C60.4663 29.9515 60.3502 29.989 60.23 29.9999Z" fill="#0087CA"/>
<path fill-rule="evenodd" clip-rule="evenodd" d="M54.92 37.8599C48.2228 38.528 41.4815 37.1322 35.6 33.8599C29.85 30.5399 27.39 26.2199 28.6 22.6999L27.66 22.1599L6.00005 34.6699C5.13005 35.1799 5.19005 36.0399 6.12005 36.5899C14.38 41.3499 22.6234 46.1066 30.85 50.8599C31.3582 51.1333 31.9236 51.283 32.5005 51.2969C33.0773 51.3108 33.6493 51.1885 34.17 50.9399L55.8601 38.3999L54.92 37.8599Z" fill="#CBEAF5"/>
<path fill-rule="evenodd" clip-rule="evenodd" d="M27.68 23L6.34002 35.32C6.16002 35.43 6.09002 35.52 6.09002 35.56C6.09002 35.6 6.20002 35.77 6.47002 35.93L31.21 50.21C31.5983 50.4189 32.0299 50.5349 32.4706 50.5488C32.9114 50.5627 33.3493 50.4741 33.75 50.29L53.75 38.72C47.2786 39.113 40.8303 37.6415 35.17 34.48C29.54 31.24 26.72 26.9 27.67 23.02L27.68 23ZM32.61 52.05C31.8524 52.059 31.1051 51.873 30.44 51.51L5.73002 37.24C5.40548 37.0886 5.12755 36.8528 4.92525 36.5573C4.72296 36.2618 4.60373 35.9173 4.58002 35.56C4.5942 35.2374 4.6944 34.9246 4.87024 34.6538C5.04607 34.383 5.29113 34.1642 5.58002 34.02L27.3 21.48C27.4156 21.4133 27.5466 21.3782 27.68 21.3782C27.8134 21.3782 27.9445 21.4133 28.06 21.48L29 22C29.1518 22.0878 29.2686 22.2253 29.3306 22.3893C29.3925 22.5534 29.3959 22.7338 29.34 22.9C28.19 26.15 30.78 30.17 35.97 33.16C41.711 36.3666 48.2963 37.7381 54.84 37.09C55.0034 37.0709 55.1686 37.106 55.31 37.19L56.24 37.73C56.3544 37.796 56.4495 37.8907 56.5162 38.0046C56.5828 38.1186 56.6186 38.248 56.62 38.38C56.6196 38.5122 56.5842 38.642 56.5175 38.7561C56.4508 38.8703 56.355 38.9648 56.24 39.03L34.52 51.59C33.9324 51.9021 33.2753 52.0604 32.61 52.05Z" fill="#0087CA"/>
<path fill-rule="evenodd" clip-rule="evenodd" d="M72.27 15.59C73.73 14.74 73.76 13.38 72.27 12.59C71.4588 12.1756 70.5609 11.9596 69.65 11.9596C68.7392 11.9596 67.8412 12.1756 67.03 12.59C65.54 13.43 65.52 14.79 66.97 15.59C67.7909 16.0079 68.6989 16.2258 69.62 16.2258C70.5412 16.2258 71.4492 16.0079 72.27 15.59Z" fill="white"/>
<path fill-rule="evenodd" clip-rule="evenodd" d="M69.74 12.7C68.9382 12.6846 68.1449 12.8666 67.43 13.23C66.96 13.5 66.69 13.84 66.69 14.13C66.69 14.42 66.94 14.72 67.38 14.97C68.0808 15.318 68.8526 15.4991 69.635 15.4991C70.4175 15.4991 71.1893 15.318 71.89 14.97C72.36 14.7 72.63 14.36 72.63 14.07C72.63 13.78 72.37 13.49 71.95 13.24C71.2696 12.8824 70.5084 12.7067 69.74 12.73V12.7ZM69.59 17C68.5453 17.0287 67.5111 16.7839 66.59 16.29C66.1839 16.0925 65.838 15.7899 65.5883 15.4136C65.3386 15.0373 65.1942 14.601 65.17 14.15C65.1987 13.6835 65.352 13.2332 65.6141 12.8462C65.8762 12.4592 66.2375 12.1497 66.66 11.95C67.5885 11.4744 68.6168 11.2263 69.66 11.2263C70.7033 11.2263 71.7316 11.4744 72.66 11.95C73.0654 12.1298 73.4154 12.4147 73.6739 12.7751C73.9323 13.1355 74.0898 13.5584 74.13 14C74.0974 14.4667 73.9413 14.9164 73.6777 15.303C73.4142 15.6895 73.0526 15.9991 72.63 16.2C71.7014 16.7213 70.655 16.9967 69.59 17Z" fill="#0065F5"/>
<path fill-rule="evenodd" clip-rule="evenodd" d="M26.5 42C25.6826 42.4115 24.7802 42.6258 23.865 42.6258C22.9499 42.6258 22.0474 42.4115 21.23 42C19.78 41.17 19.81 39.81 21.29 39C22.103 38.5856 23.0025 38.3695 23.915 38.3695C24.8275 38.3695 25.7271 38.5856 26.54 39C28 39.81 28 41.17 26.5 42Z" fill="white"/>
<path fill-rule="evenodd" clip-rule="evenodd" d="M24 39.1199C23.1954 39.0998 22.3993 39.2893 21.69 39.6699C21.22 39.9299 20.94 40.2699 20.94 40.5599C20.94 40.8499 21.2 41.1499 21.64 41.3999C22.3391 41.7478 23.1092 41.9289 23.89 41.9289C24.6708 41.9289 25.441 41.7478 26.14 41.3999C26.61 41.1299 26.88 40.7899 26.88 40.4999C26.88 40.2099 26.63 39.9199 26.19 39.6599C25.5171 39.2986 24.7638 39.1128 24 39.1199ZM23.83 43.4099C22.7855 43.4358 21.7521 43.1913 20.83 42.6999C20.4252 42.5008 20.0804 42.1977 19.831 41.8218C19.5815 41.4458 19.4362 41.0104 19.41 40.5599C19.4417 40.0942 19.5963 39.6453 19.8581 39.2588C20.1198 38.8723 20.4794 38.5622 20.9 38.3599C21.8283 37.8835 22.8567 37.635 23.9 37.635C24.9434 37.635 25.9718 37.8835 26.9 38.3599C27.3074 38.5581 27.6551 38.8604 27.9079 39.2362C28.1608 39.612 28.3099 40.048 28.34 40.4999C28.3075 40.968 28.1503 41.4188 27.8848 41.8057C27.6192 42.1925 27.2551 42.5013 26.83 42.6999C25.8968 43.1904 24.854 43.4347 23.8 43.4099H23.83Z" fill="#0065F5"/>
<path fill-rule="evenodd" clip-rule="evenodd" d="M70.53 33.81L58.05 41.02L23.03 20.81L35.52 13.6L70.53 33.81Z" fill="white"/>
<path fill-rule="evenodd" clip-rule="evenodd" d="M24.54 20.81L58.05 40.15L69.05 33.81L35.52 14.47L24.52 20.81H24.54ZM58.05 41.81C57.9137 41.81 57.7795 41.7756 57.66 41.71L22.66 21.5C22.5487 21.4323 22.457 21.3367 22.3939 21.2227C22.3308 21.1088 22.2984 20.9803 22.3 20.85C22.2964 20.7194 22.3278 20.5901 22.3911 20.4758C22.4545 20.3615 22.5473 20.2662 22.66 20.2L35.15 13C35.263 12.9311 35.3927 12.8947 35.525 12.8947C35.6573 12.8947 35.7871 12.9311 35.9 13L70.9 33.21C71.0143 33.2758 71.1092 33.3705 71.1751 33.4846C71.2411 33.5987 71.2759 33.7282 71.2759 33.86C71.2759 33.9918 71.2411 34.1213 71.1751 34.2354C71.1092 34.3495 71.0143 34.4443 70.9 34.51L58.42 41.67C58.3076 41.7353 58.18 41.7698 58.05 41.77V41.81Z" fill="#0087CA"/>
<path fill-rule="evenodd" clip-rule="evenodd" d="M60.38 39.67L61.66 38.94L62.93 38.2L27.92 17.99L26.64 18.72L25.37 19.45L60.38 39.67Z" fill="#A6EDF8"/>
<path fill-rule="evenodd" clip-rule="evenodd" d="M26.88 19.45L60.38 38.8L61.38 38.2L27.92 18.86L26.92 19.45H26.88ZM60.38 40.45C60.2528 40.4526 60.1277 40.4178 60.02 40.35L25 20.11C24.886 20.0428 24.7914 19.9471 24.7257 19.8322C24.66 19.7173 24.6255 19.5873 24.6255 19.455C24.6255 19.3226 24.66 19.1926 24.7257 19.0777C24.7914 18.9628 24.886 18.8671 25 18.8L27.53 17.34C27.6468 17.2714 27.7797 17.2352 27.915 17.2352C28.0504 17.2352 28.1833 17.2714 28.3 17.34L63.3 37.55C63.4095 37.6195 63.4996 37.7155 63.5621 37.8291C63.6245 37.9427 63.6572 38.0703 63.6572 38.2C63.6572 38.3296 63.6245 38.4572 63.5621 38.5708C63.4996 38.6844 63.4095 38.7805 63.3 38.85L60.75 40.32C60.6366 40.3828 60.5097 40.4171 60.38 40.42V40.45Z" fill="#0087CA"/>
<path fill-rule="evenodd" clip-rule="evenodd" d="M66.92 35.9L65.64 36.63L30.64 16.42L31.91 15.69L33.18 14.95L68.2 35.16L66.92 35.9Z" fill="#A6EDF8"/>
<path fill-rule="evenodd" clip-rule="evenodd" d="M32.14 16.41L65.64 35.76L66.64 35.16L33.18 15.82L32.18 16.41H32.14ZM65.64 37.38C65.507 37.3788 65.3764 37.3444 65.26 37.28L30.26 17.07C30.1424 17.0069 30.0441 16.9131 29.9754 16.7987C29.9068 16.6843 29.8704 16.5534 29.87 16.42C29.8712 16.2902 29.9048 16.1629 29.9676 16.0494C30.0305 15.9359 30.1207 15.8398 30.23 15.77L32.8 14.3C32.9183 14.2361 33.0506 14.2026 33.185 14.2026C33.3194 14.2026 33.4517 14.2361 33.57 14.3L68.57 34.51C68.6866 34.575 68.7837 34.67 68.8514 34.7852C68.919 34.9003 68.9547 35.0314 68.9547 35.165C68.9547 35.2985 68.919 35.4296 68.8514 35.5448C68.7837 35.6599 68.6866 35.7549 68.57 35.82L67.32 36.55L66 37.28C65.8894 37.3409 65.7661 37.3752 65.64 37.38Z" fill="#0087CA"/>
<path fill-rule="evenodd" clip-rule="evenodd" d="M92.8 19.35V37.35C92.7411 37.9422 92.5244 38.5079 92.1727 38.988C91.8209 39.4681 91.347 39.8452 90.8 40.08L37.75 70.76C36.4823 71.4286 35.082 71.8078 33.65 71.87H33.33C31.5923 71.947 29.8657 71.5568 28.33 70.74L2.73003 56C2.19566 55.7565 1.73441 55.3773 1.39227 54.9C1.05013 54.4228 0.839038 53.8642 0.780029 53.28V35.28C0.847939 35.8694 1.06803 36.4311 1.41869 36.9097C1.76934 37.3883 2.23849 37.7675 2.78003 38.01L28.26 52.75C29.813 53.5679 31.5569 53.9547 33.31 53.87C34.8524 53.8606 36.3693 53.4762 37.73 52.75L90.84 22.08C91.3758 21.8346 91.8384 21.4537 92.1821 20.975C92.5259 20.4962 92.7388 19.9361 92.8 19.35Z" fill="#A6EDF8"/>
<path fill-rule="evenodd" clip-rule="evenodd" d="M1.52 38.08V53.28C1.61 54.28 2.1 54.72 3.14 55.38L28.64 70.11C30.0765 70.8625 31.6913 71.2083 33.31 71.11H33.61C34.9202 71.0689 36.2033 70.7267 37.36 70.11L90.47 39.45C91.47 38.79 91.97 38.32 92.05 37.3V22.15C91.78 22.36 91.52 22.55 91.25 22.72L38.1 53.4C36.6389 54.1854 35.0088 54.604 33.35 54.62C31.458 54.6963 29.5789 54.2757 27.9 53.4L2.36 38.65C2.06928 38.4763 1.78881 38.286 1.52 38.08ZM33.12 72.63C31.3038 72.6809 29.5055 72.2606 27.9 71.41L2.36 56.67C1.71481 56.3629 1.1591 55.8956 0.745938 55.3126C0.332777 54.7296 0.0759573 54.0505 7.30846e-07 53.34V35.27C-0.000269283 35.0751 0.0742882 34.8877 0.208276 34.7462C0.342264 34.6048 0.525449 34.5202 0.720001 34.51C0.817288 34.5003 0.915523 34.5108 1.00855 34.5409C1.10158 34.571 1.18739 34.6199 1.26062 34.6847C1.33385 34.7495 1.39291 34.8287 1.4341 34.9173C1.47529 35.006 1.49773 35.1022 1.5 35.2C1.59 36.2 2.06 36.7 3.12 37.37L28.62 52.09C30.059 52.8354 31.6719 53.1808 33.29 53.09C34.6844 53.0835 36.0566 52.7405 37.29 52.09L90.47 21.43C91.47 20.78 91.97 20.31 92.05 19.29C92.0524 19.1932 92.0745 19.0978 92.1151 19.0099C92.1557 18.922 92.2138 18.8433 92.286 18.7787C92.3581 18.714 92.4427 18.6648 92.5345 18.6341C92.6264 18.6034 92.7235 18.5918 92.82 18.6C93.0128 18.6101 93.1946 18.6933 93.3283 18.8326C93.462 18.9719 93.5377 19.1569 93.54 19.35V37.35C93.4736 38.0619 93.2266 38.745 92.8224 39.3348C92.4182 39.9245 91.8701 40.4013 91.23 40.72L38.1 71.41C36.7432 72.1485 35.2337 72.5627 33.69 72.62H33.12V72.63Z" fill="#0087CA"/>
<path fill-rule="evenodd" clip-rule="evenodd" d="M33.29 71.8899C31.553 71.9592 29.8284 71.5695 28.29 70.7599L2.73003 55.9999C2.19566 55.7565 1.73441 55.3772 1.39227 54.9C1.05013 54.4227 0.839038 53.8642 0.780029 53.2799V35.2799C0.847939 35.8694 1.06803 36.431 1.41869 36.9096C1.76934 37.3883 2.23849 37.7674 2.78003 38.0099L28.26 52.7499C29.7995 53.5556 31.524 53.9418 33.26 53.8699L33.29 71.8899Z" fill="#00CEF0"/>
<path fill-rule="evenodd" clip-rule="evenodd" d="M1.52 38.08V53.2799C1.61 54.2799 2.1 54.72 3.14 55.38L28.64 70.11C29.8439 70.7436 31.1797 71.0861 32.54 71.11V54.61C30.9181 54.5889 29.3256 54.1736 27.9 53.4L2.36 38.65C2.06928 38.4763 1.78881 38.2859 1.52 38.08ZM33.07 72.6299C31.271 72.6807 29.4896 72.2638 27.9 71.4199L2.36 56.6699C1.71481 56.3629 1.1591 55.8955 0.745938 55.3126C0.332777 54.7296 0.0759573 54.0504 7.30846e-07 53.34V35.27C-0.000269283 35.0751 0.0742882 34.8876 0.208276 34.7462C0.342264 34.6048 0.525449 34.5202 0.720001 34.5099C0.817288 34.5003 0.915523 34.5108 1.00855 34.5409C1.10158 34.5709 1.18739 34.6199 1.26062 34.6847C1.33385 34.7495 1.39291 34.8287 1.4341 34.9173C1.47529 35.006 1.49773 35.1022 1.5 35.2C1.59 36.2 2.08 36.7099 3.12 37.3699L28.62 52.09C30.0523 52.8342 31.6584 53.1796 33.27 53.09C33.4665 53.0925 33.6551 53.1672 33.8 53.2999C33.944 53.4431 34.0266 53.6369 34.03 53.84V71.8399C34.03 72.0362 33.952 72.2244 33.8133 72.3632C33.6745 72.502 33.4863 72.58 33.29 72.58L33.07 72.6299Z" fill="#0087CA"/>
<path fill-rule="evenodd" clip-rule="evenodd" d="M33.14 65.7C31.3172 65.7535 29.5118 65.3331 27.9 64.48L2.36005 49.72C1.71503 49.4154 1.15919 48.95 0.745899 48.3686C0.332612 47.7872 0.0757707 47.1093 4.73751e-05 46.4C-0.0111282 46.2006 0.0556383 46.0046 0.186249 45.8534C0.31686 45.7023 0.501093 45.6078 0.700047 45.59C0.89684 45.5788 1.09028 45.6445 1.23954 45.7733C1.3888 45.902 1.48221 46.0837 1.50005 46.28C1.59005 47.28 2.08005 47.78 3.12005 48.44L28.62 63.17C30.0583 63.9178 31.6717 64.2633 33.29 64.17C34.6219 64.1565 35.9338 63.8456 37.13 63.26L37.34 63.14L90.47 32.5C91.47 31.86 91.97 31.38 92.05 30.36C92.081 30.171 92.1821 30.0006 92.3333 29.8829C92.4844 29.7653 92.6744 29.709 92.8653 29.7255C93.0561 29.7419 93.2337 29.8298 93.3625 29.9715C93.4913 30.1133 93.5619 30.2985 93.56 30.49C93.4833 31.1898 93.2314 31.859 92.8276 32.4358C92.4239 33.0126 91.8813 33.4783 91.25 33.79L37.86 64.62C36.4537 65.3054 34.9143 65.674 33.35 65.7H33.14Z" fill="#0087CA"/>
<path fill-rule="evenodd" clip-rule="evenodd" d="M33 58.5599C32.66 58.5599 32.32 58.5599 32 58.5599C30.5686 58.4678 29.1737 58.0688 27.91 57.3899L2.36002 42.5899C1.71266 42.2885 1.15476 41.824 0.741025 41.242C0.327295 40.66 0.0719452 39.9804 1.85547e-05 39.2699C-0.0141713 39.072 0.0486357 38.8762 0.175335 38.7234C0.302034 38.5706 0.482837 38.4726 0.680019 38.4499C0.881125 38.4361 1.07966 38.5016 1.23297 38.6325C1.38629 38.7634 1.48217 38.9492 1.50002 39.1499C1.59002 40.1499 2.06002 40.6399 3.12002 41.3099L28.64 55.9999C29.7095 56.5746 30.8889 56.9155 32.1 56.9999C32.61 56.9999 33.1 56.9999 33.61 56.9999C34.12 56.9999 34.39 56.9199 34.8 56.8599C35.4436 56.7452 36.0736 56.5642 36.68 56.3199C36.9 56.2199 37.13 56.1099 37.36 55.9799L90.47 25.3699C91.47 24.7199 91.97 24.2499 92.05 23.2299C92.0502 23.1288 92.0723 23.029 92.1148 22.9372C92.1573 22.8454 92.2191 22.764 92.2961 22.6984C92.3731 22.6328 92.4633 22.5847 92.5607 22.5573C92.658 22.53 92.7602 22.5241 92.86 22.5399C93.0574 22.5577 93.2397 22.6529 93.3671 22.8047C93.4945 22.9565 93.5567 23.1525 93.54 23.3499C93.4723 24.0512 93.2263 24.7234 92.8255 25.3028C92.4247 25.8821 91.8823 26.3493 91.25 26.6599L38.1 57.3299C37.8284 57.489 37.5479 57.6326 37.26 57.7599C36.5466 58.0467 35.8062 58.2611 35.05 58.3999C34.56 58.4699 34.16 58.5199 33.69 58.5499L33 58.5599Z" fill="#0087CA"/>
<path fill-rule="evenodd" clip-rule="evenodd" d="M32.88 62.17H32.65C31.8595 62.1385 31.0731 62.0381 30.3 61.87C29.4572 61.6926 28.6429 61.3998 27.88 61L2.33002 46.2C1.69235 45.8891 1.14405 45.4214 0.736524 44.8407C0.328994 44.26 0.075576 43.5853 2.15546e-05 42.88C-0.0113039 42.6794 0.0551476 42.4823 0.18554 42.3295C0.315932 42.1768 0.500216 42.0802 0.700022 42.06C0.798576 42.0518 0.89778 42.0631 0.991923 42.0934C1.08607 42.1237 1.17329 42.1723 1.24857 42.2364C1.32386 42.3006 1.38571 42.379 1.43058 42.4671C1.47545 42.5552 1.50245 42.6514 1.51002 42.75C1.59002 43.75 2.08002 44.25 3.12002 44.91L28.62 59.64C29.2511 59.9809 29.9232 60.2396 30.62 60.41C31.2983 60.5522 31.9875 60.6358 32.68 60.66C33.1741 60.6693 33.6683 60.6493 34.16 60.6C35.2767 60.4848 36.3584 60.1447 37.34 59.6L90.44 29C91.44 28.39 91.95 27.86 92.03 26.85C92.0363 26.7509 92.0624 26.6541 92.1068 26.5653C92.1513 26.4765 92.2131 26.3976 92.2887 26.3332C92.3643 26.2688 92.452 26.2203 92.5468 26.1905C92.6415 26.1608 92.7412 26.1504 92.84 26.16C93.0364 26.1802 93.2171 26.2761 93.344 26.4273C93.4709 26.5784 93.534 26.7731 93.52 26.97C93.4459 27.6693 93.1975 28.3388 92.7973 28.9171C92.3972 29.4955 91.8583 29.9641 91.23 30.28L38.09 60.94C36.9343 61.5748 35.6621 61.9694 34.35 62.1C33.8615 62.148 33.3709 62.1713 32.88 62.17Z" fill="#0087CA"/>
<path fill-rule="evenodd" clip-rule="evenodd" d="M33 69.3299C31.2353 69.3583 29.4918 68.9422 27.93 68.1199L2.36005 53.3699C1.70947 53.0594 1.15025 52.5859 0.736731 51.9954C0.323207 51.4049 0.0694294 50.7175 4.73751e-05 49.9999C-0.0111282 49.8005 0.0556383 49.6045 0.186249 49.4534C0.31686 49.3022 0.501093 49.2078 0.700047 49.1899C0.897451 49.1761 1.0923 49.2409 1.24215 49.3702C1.392 49.4994 1.4847 49.6826 1.50005 49.8799C1.59005 50.8799 2.08005 51.3899 3.12005 52.0399L28.64 66.7999C30.3483 67.6918 32.2881 68.0407 34.2 67.7999C35.3179 67.6755 36.4012 67.3359 37.39 66.7999L90.47 36.1399C91.47 35.5199 91.97 35.0099 92.05 33.9999C92.0576 33.9017 92.0846 33.806 92.1296 33.7184C92.1746 33.6307 92.2366 33.553 92.3121 33.4896C92.3875 33.4263 92.4749 33.3787 92.569 33.3495C92.663 33.3204 92.762 33.3103 92.86 33.3199C92.9593 33.3247 93.0564 33.3499 93.1454 33.394C93.2344 33.4381 93.3134 33.5001 93.3772 33.5762C93.4411 33.6523 93.4885 33.7407 93.5166 33.836C93.5446 33.9313 93.5526 34.0314 93.54 34.1299C93.468 34.8286 93.2201 35.4976 92.8197 36.0746C92.4193 36.6517 91.8793 37.1179 91.25 37.4299L38.1 68.1099C36.9478 68.7428 35.6786 69.1341 34.37 69.2599C33.9149 69.3074 33.4576 69.3307 33 69.3299Z" fill="#0087CA"/>
<path fill-rule="evenodd" clip-rule="evenodd" d="M70.53 33.8099V51.8099L57.39 59.4099V41.4099L70.53 33.8099Z" fill="#A6EDF8"/>
<path fill-rule="evenodd" clip-rule="evenodd" d="M58.13 41.83V58.11L69.78 51.39V35.11L58.13 41.83ZM57.39 60.17C57.2902 60.1713 57.1911 60.1529 57.0984 60.116C57.0057 60.079 56.9212 60.0241 56.8496 59.9545C56.7781 59.8848 56.7211 59.8018 56.6817 59.7101C56.6423 59.6183 56.6213 59.5198 56.62 59.42V41.42C56.6214 41.2879 56.6572 41.1586 56.7238 41.0446C56.7905 40.9306 56.8857 40.836 57 40.77L70.15 33.18C70.2648 33.1112 70.3962 33.075 70.53 33.075C70.6638 33.075 70.7952 33.1112 70.91 33.18C71.025 33.2452 71.1207 33.3397 71.1875 33.4538C71.2542 33.568 71.2896 33.6977 71.29 33.83V51.83C71.2883 51.9633 71.2525 52.094 71.186 52.2095C71.1195 52.325 71.0245 52.4216 70.91 52.49L57.75 60.07C57.6424 60.1378 57.5172 60.1726 57.39 60.17Z" fill="#0087CA"/>
<path fill-rule="evenodd" clip-rule="evenodd" d="M31.91 49.1899C31.779 49.1898 31.6505 49.1545 31.5379 49.0876C31.4253 49.0208 31.3328 48.9249 31.27 48.81C31.1786 48.6393 31.1567 48.44 31.2089 48.2536C31.2611 48.0673 31.3833 47.9083 31.55 47.81L38 44.0699C38.1699 43.9802 38.3676 43.9581 38.5531 44.0082C38.7387 44.0583 38.8983 44.1768 39 44.3399C39.0874 44.5104 39.1082 44.7072 39.0583 44.8921C39.0083 45.077 38.8913 45.2367 38.73 45.3399L32.29 49.0499C32.1776 49.1288 32.0467 49.1771 31.91 49.1899Z" fill="#0065F5"/>
<path fill-rule="evenodd" clip-rule="evenodd" d="M55.22 10.65C55.0871 10.6465 54.9571 10.6099 54.8419 10.5435C54.7266 10.4772 54.6298 10.3832 54.56 10.27C54.4711 10.0988 54.4506 9.90035 54.5026 9.71467C54.5546 9.52899 54.6752 9.37002 54.84 9.26995L61.27 5.54995C61.442 5.46572 61.639 5.44771 61.8234 5.49935C62.0078 5.55098 62.1668 5.66866 62.27 5.82995C62.3614 6.00056 62.3833 6.19988 62.3311 6.38625C62.2789 6.57262 62.1567 6.7316 61.99 6.82995L55.6 10.55C55.4841 10.6156 55.3532 10.65 55.22 10.65Z" fill="#0065F5"/>
<path fill-rule="evenodd" clip-rule="evenodd" d="M76.94 23.19C76.7753 23.187 76.616 23.1306 76.4861 23.0292C76.3562 22.9278 76.2627 22.787 76.2198 22.6279C76.177 22.4688 76.187 22.3 76.2483 22.1471C76.3097 21.9942 76.4191 21.8653 76.56 21.78L83 18.07C83.1724 17.9692 83.3778 17.941 83.571 17.9917C83.7641 18.0423 83.9293 18.1676 84.03 18.34C84.1308 18.5124 84.159 18.7177 84.1084 18.9109C84.0577 19.1041 83.9324 19.2692 83.76 19.37L77.33 23.09C77.2093 23.1523 77.0759 23.1865 76.94 23.19Z" fill="#0065F5"/>
<path fill-rule="evenodd" clip-rule="evenodd" d="M60.38 39.6699L61.66 38.9399L62.93 38.2V56.2099L61.66 56.95L60.38 57.68V39.6699Z" fill="#00CEF0"/>
<path fill-rule="evenodd" clip-rule="evenodd" d="M61.14 40.0999V56.3799L62.14 55.7799V39.4999L61.14 40.0999ZM60.38 58.4299C60.2468 58.43 60.1159 58.3956 60 58.3299C59.8847 58.2659 59.7892 58.1714 59.724 58.0567C59.6587 57.9421 59.6262 57.8118 59.63 57.6799V39.6799C59.618 39.5427 59.6466 39.4051 59.7124 39.2841C59.7783 39.1632 59.8783 39.0643 60 38.9999L62.53 37.5299C62.6455 37.4632 62.7766 37.4281 62.91 37.4281C63.0434 37.4281 63.1745 37.4632 63.29 37.5299C63.4027 37.5961 63.4956 37.6914 63.5589 37.8057C63.6222 37.92 63.6537 38.0493 63.65 38.1799V56.1799C63.6524 56.3117 63.6204 56.4418 63.5573 56.5576C63.4942 56.6733 63.4021 56.7706 63.29 56.8399L60.74 58.2999C60.6323 58.3717 60.5088 58.4164 60.38 58.4299Z" fill="#0087CA"/>
<path fill-rule="evenodd" clip-rule="evenodd" d="M66.92 35.8999L65.64 36.6299V54.6499L66.92 53.9099L68.2 53.1799V35.1599L66.92 35.8999Z" fill="#00CEF0"/>
<path fill-rule="evenodd" clip-rule="evenodd" d="M66.41 37.06V53.34L67.41 52.75V36.46L66.41 37.06ZM65.64 55.39C65.5084 55.3875 65.3788 55.3568 65.26 55.3C65.1494 55.2315 65.0582 55.1358 64.9952 55.022C64.9321 54.9082 64.8994 54.7801 64.9 54.65V36.65C64.8963 36.5193 64.9278 36.3901 64.9911 36.2758C65.0544 36.1614 65.1473 36.0662 65.26 36L66.54 35.27L67.81 34.53C67.9228 34.466 68.0503 34.4324 68.18 34.4324C68.3097 34.4324 68.4372 34.466 68.55 34.53C68.6662 34.5947 68.7634 34.6888 68.8318 34.8029C68.9003 34.917 68.9376 35.047 68.94 35.18V53.18C68.9376 53.313 68.9003 53.443 68.8318 53.5571C68.7634 53.6712 68.6662 53.7653 68.55 53.83L66 55.3C65.8874 55.3541 65.7649 55.3848 65.64 55.39Z" fill="#0087CA"/>
</g>
<defs>
<clipPath id="clip0">
<rect width="97.66" height="100.89" fill="white"/>
</clipPath>
</defs>
</svg>
